<svg version="1.1" id="calculator" xmlns="http://www.w3.org/2000/svg" xmlns:xlink="http://www.w3.org/1999/xlink" x="0px" y="0px" viewBox="0 0 64.001 81.875" enable-background="new 0 0 64.001 81.875" xml:space="preserve">
<path id="calcBody" fill="#5C6165" d="M61.401,82H2.599C1.163,82,0,80.837,0,79.401V8.982c0-1.435,1.163-2.599,2.599-2.599h58.803
	C62.837,6.383,64,7.547,64,8.982v70.419C64,80.837,62.837,82,61.401,82z"/>
<g id="calButtons">
	<path fill="#41464C" d="M16.5,36.602h-4.591H7.318c-0.677,0-1.225,0.548-1.225,1.225v6.273c0,0.677,0.548,1.226,1.225,1.226H16.5
		c0.677,0,1.225-0.549,1.225-1.226v-6.273C17.725,37.15,17.177,36.602,16.5,36.602z"/>
	<path fill="#41464C" d="M30.458,36.602h-4.591h-4.591c-0.677,0-1.225,0.548-1.225,1.225v6.273c0,0.677,0.548,1.226,1.225,1.226
		h9.182c0.677,0,1.225-0.549,1.225-1.226v-6.273C31.684,37.15,31.135,36.602,30.458,36.602z"/>
	<path fill="#41464C" d="M44.417,36.602h-4.591h-4.591c-0.677,0-1.226,0.548-1.226,1.225v6.273c0,0.677,0.549,1.226,1.226,1.226
		h9.182c0.677,0,1.226-0.549,1.226-1.226v-6.273C45.643,37.15,45.094,36.602,44.417,36.602z"/>
	<path fill="#41464C" d="M16.5,47.071h-4.591H7.318c-0.677,0-1.225,0.548-1.225,1.225v6.273c0,0.677,0.548,1.226,1.225,1.226H16.5
		c0.677,0,1.225-0.549,1.225-1.226v-6.273C17.725,47.619,17.177,47.071,16.5,47.071z"/>
	<path fill="#41464C" d="M30.458,47.071h-4.591h-4.591c-0.677,0-1.225,0.548-1.225,1.225v6.273c0,0.677,0.548,1.226,1.225,1.226
		h9.182c0.677,0,1.225-0.549,1.225-1.226v-6.273C31.684,47.619,31.135,47.071,30.458,47.071z"/>
	<path fill="#41464C" d="M44.417,47.071h-4.591h-4.591c-0.677,0-1.226,0.548-1.226,1.225v6.273c0,0.677,0.549,1.226,1.226,1.226
		h9.182c0.677,0,1.226-0.549,1.226-1.226v-6.273C45.643,47.619,45.094,47.071,44.417,47.071z"/>
	<path fill="#41464C" d="M16.5,57.54h-4.591H7.318c-0.677,0-1.225,0.549-1.225,1.225v6.274c0,0.676,0.548,1.225,1.225,1.225H16.5
		c0.677,0,1.225-0.549,1.225-1.225v-6.274C17.725,58.089,17.177,57.54,16.5,57.54z"/>
	<path fill="#41464C" d="M30.458,57.54h-4.591h-4.591c-0.677,0-1.225,0.549-1.225,1.225v6.274c0,0.676,0.548,1.225,1.225,1.225
		h9.182c0.677,0,1.225-0.549,1.225-1.225v-6.274C31.684,58.089,31.135,57.54,30.458,57.54z"/>
	<path fill="#41464C" d="M44.417,57.54h-4.591h-4.591c-0.677,0-1.226,0.549-1.226,1.225v6.274c0,0.676,0.549,1.225,1.226,1.225
		h9.182c0.677,0,1.226-0.549,1.226-1.225v-6.274C45.643,58.089,45.094,57.54,44.417,57.54z"/>
	<path fill="#41464C" d="M16.5,68.009h-4.591H7.318c-0.677,0-1.225,0.549-1.225,1.226v6.273c0,0.677,0.548,1.225,1.225,1.225H16.5
		c0.677,0,1.225-0.548,1.225-1.225v-6.273C17.725,68.558,17.177,68.009,16.5,68.009z"/>
	<path fill="#41464C" d="M44.417,68.009h-4.591h-4.591c-0.677,0-1.226,0.549-1.226,1.226v6.273c0,0.677,0.549,1.225,1.226,1.225
		h9.182c0.677,0,1.226-0.548,1.226-1.225v-6.273C45.643,68.558,45.094,68.009,44.417,68.009z"/>
	<path fill="#41464C" d="M30.458,68.009h-4.591h-4.591c-0.677,0-1.225,0.549-1.225,1.226v6.273c0,0.677,0.548,1.225,1.225,1.225
		h9.182c0.677,0,1.225-0.548,1.225-1.225v-6.273C31.684,68.558,31.135,68.009,30.458,68.009z"/>
	<path fill="#41464C" d="M49.207,45.326h9.182c0.677,0,1.226-0.549,1.226-1.226v-6.273c0-0.677-0.549-1.225-1.226-1.225h-4.591
		h-4.591c-0.677,0-1.225,0.548-1.225,1.225v6.273C47.982,44.777,48.53,45.326,49.207,45.326z"/>
	<path fill="#41464C" d="M58.389,68.009h-4.591h-4.591c-0.677,0-1.225,0.549-1.225,1.226v6.273c0,0.677,0.548,1.225,1.225,1.225
		h9.182c0.677,0,1.226-0.548,1.226-1.225v-6.273C59.614,68.558,59.065,68.009,58.389,68.009z"/>
	<path fill="#41464C" d="M58.389,57.54h-4.591h-4.591c-0.677,0-1.225,0.549-1.225,1.225v6.274c0,0.677,0.548,1.225,1.225,1.225
		h9.182c0.677,0,1.226-0.548,1.226-1.225v-6.274C59.614,58.089,59.065,57.54,58.389,57.54z"/>
	<path fill="#41464C" d="M58.389,47.071h-4.591h-4.591c-0.677,0-1.225,0.548-1.225,1.225v6.273c0,0.677,0.548,1.226,1.225,1.226
		h9.182c0.677,0,1.226-0.549,1.226-1.226v-6.273C59.614,47.619,59.065,47.071,58.389,47.071z"/>
</g>
<g id="calcDigits">
	<path fill="#A5A8A7" d="M16.021,44.848H6.839c-0.677,0-1.225-0.549-1.225-1.226v-6.273c0-0.677,0.548-1.226,1.225-1.226h4.591
		h4.591c0.677,0,1.225,0.549,1.225,1.226v6.273C17.246,44.299,16.698,44.848,16.021,44.848z"/>
	<g>
		<path fill="#FFFFFF" d="M9.792,38.911v-0.889h3.275v0.695c-0.271,0.266-0.545,0.648-0.825,1.146
			c-0.28,0.498-0.493,1.026-0.639,1.586s-0.219,1.06-0.216,1.501h-0.923c0.016-0.69,0.158-1.395,0.427-2.113
			c0.27-0.718,0.629-1.36,1.079-1.926H9.792z"/>
	</g>
	<path fill="#A5A8A7" d="M29.979,44.848h-9.182c-0.677,0-1.225-0.549-1.225-1.226v-6.273c0-0.677,0.548-1.226,1.225-1.226h4.591
		h4.591c0.677,0,1.225,0.549,1.225,1.226v6.273C31.205,44.299,30.656,44.848,29.979,44.848z"/>
	<g>
		<path fill="#FFFFFF" d="M24.581,40.253c-0.248-0.104-0.428-0.248-0.54-0.431c-0.113-0.183-0.169-0.383-0.169-0.602
			c0-0.373,0.13-0.68,0.39-0.923c0.26-0.243,0.63-0.365,1.109-0.365c0.475,0,0.844,0.122,1.106,0.365
			c0.263,0.243,0.394,0.551,0.394,0.923c0,0.232-0.06,0.438-0.181,0.619c-0.12,0.181-0.29,0.319-0.508,0.414
			c0.277,0.111,0.488,0.274,0.632,0.487c0.144,0.213,0.216,0.46,0.216,0.74c0,0.461-0.147,0.836-0.441,1.124
			c-0.294,0.289-0.686,0.433-1.174,0.433c-0.455,0-0.833-0.119-1.135-0.357c-0.357-0.281-0.535-0.668-0.535-1.159
			c0-0.27,0.067-0.519,0.201-0.745C24.081,40.551,24.292,40.376,24.581,40.253z M24.69,41.429c0,0.264,0.068,0.469,0.203,0.617
			c0.135,0.147,0.304,0.222,0.506,0.222c0.198,0,0.361-0.071,0.491-0.213c0.129-0.142,0.194-0.347,0.194-0.615
			c0-0.234-0.066-0.422-0.198-0.564s-0.299-0.213-0.501-0.213c-0.234,0-0.408,0.081-0.523,0.242S24.69,41.241,24.69,41.429z
			 M24.779,39.289c0,0.191,0.054,0.34,0.162,0.446c0.108,0.107,0.252,0.16,0.431,0.16c0.182,0,0.327-0.054,0.437-0.162
			c0.109-0.108,0.164-0.257,0.164-0.448c0-0.18-0.054-0.323-0.162-0.431s-0.25-0.162-0.428-0.162c-0.184,0-0.331,0.055-0.439,0.164
			C24.833,38.965,24.779,39.109,24.779,39.289z"/>
	</g>
	<path fill="#A5A8A7" d="M43.938,44.848h-9.182c-0.677,0-1.226-0.549-1.226-1.226v-6.273c0-0.677,0.549-1.226,1.226-1.226h4.591
		h4.591c0.676,0,1.225,0.549,1.225,1.226v6.273C45.163,44.299,44.614,44.848,43.938,44.848z"/>
	<g>
		<path fill="#FFFFFF" d="M37.774,41.794l0.927-0.103c0.022,0.189,0.082,0.328,0.178,0.419c0.095,0.091,0.221,0.137,0.378,0.137
			c0.197,0,0.366-0.091,0.505-0.272c0.138-0.182,0.227-0.559,0.266-1.132c-0.241,0.28-0.542,0.419-0.903,0.419
			c-0.394,0-0.732-0.151-1.018-0.455c-0.285-0.303-0.428-0.698-0.428-1.184c0-0.507,0.151-0.915,0.452-1.225s0.685-0.465,1.15-0.465
			c0.506,0,0.922,0.196,1.247,0.588c0.324,0.392,0.487,1.037,0.487,1.934c0,0.913-0.17,1.572-0.508,1.976
			c-0.339,0.405-0.779,0.606-1.322,0.606c-0.391,0-0.707-0.104-0.947-0.312C37.997,42.518,37.843,42.207,37.774,41.794z
			 M39.941,39.701c0-0.309-0.07-0.548-0.213-0.719c-0.142-0.17-0.306-0.256-0.492-0.256c-0.177,0-0.324,0.07-0.441,0.21
			c-0.117,0.14-0.176,0.368-0.176,0.687c0,0.323,0.064,0.56,0.191,0.71s0.286,0.227,0.477,0.227c0.185,0,0.34-0.073,0.466-0.218
			C39.879,40.197,39.941,39.983,39.941,39.701z"/>
	</g>
	<path fill="#A5A8A7" d="M16.021,55.316H6.839c-0.677,0-1.225-0.549-1.225-1.226v-6.273c0-0.677,0.548-1.226,1.225-1.226h4.591
		h4.591c0.677,0,1.225,0.549,1.225,1.226v6.273C17.246,54.768,16.698,55.316,16.021,55.316z"/>
	<g>
		<path fill="#FFFFFF" d="M11.679,53.462v-1.005H9.634v-0.839l2.167-3.173h0.804v3.17h0.62v0.842h-0.62v1.005H11.679z
			 M11.679,51.615v-1.707l-1.149,1.707H11.679z"/>
	</g>
	<path fill="#A5A8A7" d="M29.979,55.316h-9.182c-0.677,0-1.225-0.549-1.225-1.226v-6.273c0-0.677,0.548-1.226,1.225-1.226h4.591
		h4.591c0.677,0,1.225,0.549,1.225,1.226v6.273C31.205,54.768,30.656,55.316,29.979,55.316z"/>
	<g>
		<path fill="#FFFFFF" d="M23.708,52.091l0.955-0.099c0.027,0.216,0.107,0.387,0.242,0.513s0.289,0.188,0.463,0.188
			c0.2,0,0.369-0.081,0.508-0.243c0.139-0.163,0.208-0.407,0.208-0.734c0-0.307-0.069-0.537-0.206-0.69
			c-0.138-0.153-0.316-0.229-0.537-0.229c-0.274,0-0.521,0.121-0.739,0.364l-0.777-0.112l0.491-2.601h2.532v0.896h-1.806
			l-0.15,0.849c0.214-0.106,0.432-0.16,0.654-0.16c0.425,0,0.785,0.154,1.081,0.464c0.295,0.309,0.443,0.71,0.443,1.202
			c0,0.412-0.119,0.778-0.358,1.102c-0.325,0.44-0.776,0.661-1.353,0.661c-0.461,0-0.837-0.124-1.128-0.372
			C23.939,52.842,23.766,52.509,23.708,52.091z"/>
	</g>
	<path fill="#A5A8A7" d="M43.938,55.316h-9.182c-0.677,0-1.226-0.549-1.226-1.226v-6.273c0-0.677,0.549-1.226,1.226-1.226h4.591
		h4.591c0.676,0,1.225,0.549,1.225,1.226v6.273C45.163,54.768,44.614,55.316,43.938,55.316z"/>
	<g>
		<path fill="#FFFFFF" d="M40.923,49.647l-0.927,0.102c-0.022-0.19-0.081-0.331-0.177-0.422s-0.22-0.137-0.372-0.137
			c-0.202,0-0.373,0.091-0.513,0.272s-0.228,0.561-0.264,1.135c0.238-0.281,0.535-0.422,0.89-0.422c0.399,0,0.742,0.151,1.027,0.456
			s0.428,0.697,0.428,1.18c0,0.511-0.15,0.921-0.45,1.229c-0.3,0.31-0.685,0.464-1.155,0.464c-0.504,0-0.919-0.196-1.244-0.588
			c-0.324-0.392-0.487-1.034-0.487-1.927c0-0.916,0.17-1.576,0.508-1.98c0.339-0.404,0.778-0.606,1.319-0.606
			c0.379,0,0.693,0.106,0.942,0.318C40.696,48.935,40.855,49.243,40.923,49.647z M38.753,51.736c0,0.312,0.071,0.551,0.214,0.721
			c0.144,0.169,0.308,0.254,0.491,0.254c0.177,0,0.325-0.069,0.443-0.208s0.177-0.366,0.177-0.682c0-0.325-0.063-0.562-0.19-0.714
			c-0.128-0.151-0.286-0.227-0.478-0.227c-0.184,0-0.34,0.072-0.467,0.217C38.816,51.241,38.753,51.454,38.753,51.736z"/>
	</g>
	<path fill="#A5A8A7" d="M16.021,65.785H6.839c-0.677,0-1.225-0.549-1.225-1.226v-6.273c0-0.677,0.548-1.226,1.225-1.226h4.591
		h4.591c0.677,0,1.225,0.549,1.225,1.226v6.273C17.246,65.236,16.698,65.785,16.021,65.785z"/>
	<g>
		<path fill="#FFFFFF" d="M12.236,63.931h-0.958v-3.608c-0.35,0.327-0.762,0.569-1.237,0.726v-0.869
			c0.25-0.081,0.521-0.236,0.814-0.465c0.293-0.229,0.494-0.495,0.604-0.799h0.777V63.931z"/>
	</g>
	<path fill="#A5A8A7" d="M29.979,65.785h-9.182c-0.677,0-1.225-0.549-1.225-1.226v-6.273c0-0.677,0.548-1.226,1.225-1.226h4.591
		h4.591c0.677,0,1.225,0.549,1.225,1.226v6.273C31.205,65.236,30.656,65.785,29.979,65.785z"/>
	<g>
		<path fill="#FFFFFF" d="M27.067,63.042v0.889H23.71c0.036-0.336,0.146-0.654,0.327-0.955c0.182-0.302,0.541-0.701,1.077-1.198
			c0.432-0.402,0.697-0.675,0.794-0.818c0.132-0.197,0.198-0.393,0.198-0.586c0-0.213-0.057-0.378-0.172-0.492
			c-0.115-0.115-0.273-0.172-0.476-0.172c-0.2,0-0.359,0.06-0.477,0.181c-0.118,0.12-0.186,0.32-0.205,0.6l-0.954-0.096
			c0.057-0.527,0.235-0.905,0.535-1.135s0.675-0.344,1.125-0.344c0.493,0,0.88,0.133,1.162,0.398s0.422,0.597,0.422,0.992
			c0,0.225-0.04,0.438-0.121,0.642c-0.081,0.203-0.208,0.417-0.384,0.64c-0.116,0.147-0.325,0.359-0.627,0.637
			s-0.494,0.461-0.574,0.552c-0.081,0.092-0.146,0.18-0.196,0.267H27.067z"/>
	</g>
	<path fill="#A5A8A7" d="M43.938,65.785h-9.182c-0.677,0-1.226-0.549-1.226-1.226v-6.273c0-0.677,0.549-1.226,1.226-1.226h4.591
		h4.591c0.676,0,1.225,0.549,1.225,1.226v6.273C45.163,65.236,44.614,65.785,43.938,65.785z"/>
	<g>
		<path fill="#FFFFFF" d="M37.688,62.562l0.927-0.112c0.029,0.236,0.109,0.417,0.238,0.542c0.13,0.125,0.287,0.188,0.471,0.188
			c0.198,0,0.364-0.075,0.499-0.225c0.136-0.15,0.203-0.353,0.203-0.606c0-0.241-0.064-0.433-0.194-0.573s-0.287-0.211-0.474-0.211
			c-0.123,0-0.27,0.023-0.439,0.071l0.105-0.78c0.259,0.007,0.457-0.05,0.593-0.169c0.137-0.119,0.204-0.277,0.204-0.476
			c0-0.168-0.05-0.302-0.149-0.401c-0.1-0.101-0.232-0.15-0.398-0.15c-0.164,0-0.304,0.057-0.42,0.171
			c-0.115,0.113-0.186,0.279-0.211,0.497l-0.883-0.149c0.062-0.303,0.154-0.544,0.278-0.725s0.296-0.322,0.518-0.426
			s0.47-0.155,0.745-0.155c0.47,0,0.847,0.15,1.131,0.45c0.234,0.245,0.352,0.522,0.352,0.831c0,0.438-0.24,0.788-0.72,1.05
			c0.286,0.062,0.516,0.199,0.688,0.412c0.171,0.214,0.257,0.472,0.257,0.773c0,0.438-0.16,0.812-0.48,1.121
			c-0.32,0.31-0.719,0.464-1.196,0.464c-0.452,0-0.827-0.13-1.124-0.39C37.908,63.323,37.735,62.983,37.688,62.562z"/>
	</g>
	<path fill="#A5A8A7" d="M16.021,76.254H6.839c-0.677,0-1.225-0.549-1.225-1.226v-6.273c0-0.677,0.548-1.226,1.225-1.226h4.591
		h4.591c0.677,0,1.225,0.549,1.225,1.226v6.273C17.246,75.705,16.698,76.254,16.021,76.254z"/>
	<g>
		<path fill="#FFFFFF" d="M11.405,69.341c0.484,0,0.862,0.173,1.135,0.519c0.325,0.408,0.487,1.087,0.487,2.034
			c0,0.945-0.164,1.624-0.491,2.038c-0.271,0.341-0.647,0.511-1.131,0.511c-0.486,0-0.878-0.187-1.176-0.561
			s-0.446-1.04-0.446-1.999c0-0.94,0.164-1.617,0.491-2.03C10.543,69.512,10.921,69.341,11.405,69.341z M11.405,70.135
			c-0.116,0-0.219,0.037-0.31,0.111c-0.091,0.073-0.161,0.206-0.211,0.396c-0.066,0.248-0.099,0.665-0.099,1.251
			s0.029,0.988,0.088,1.208c0.059,0.219,0.133,0.365,0.223,0.438c0.09,0.073,0.192,0.109,0.309,0.109c0.116,0,0.219-0.037,0.31-0.11
			c0.091-0.074,0.161-0.206,0.211-0.397c0.066-0.245,0.099-0.661,0.099-1.247s-0.029-0.989-0.088-1.208
			c-0.059-0.22-0.134-0.366-0.224-0.439C11.624,70.172,11.521,70.135,11.405,70.135z"/>
	</g>
	<g>
		<path fill="#A5A8A7" d="M43.938,76.254h-9.182c-0.677,0-1.226-0.549-1.226-1.226v-6.273c0-0.677,0.549-1.226,1.226-1.226h4.591
			h4.591c0.676,0,1.225,0.549,1.225,1.226v6.273C45.163,75.705,44.614,76.254,43.938,76.254z"/>
		<g>
			<path fill="#FFFFFF" d="M38.909,73.639V72.34h-1.309v-0.896h1.309v-1.298h0.872v1.298h1.312v0.896h-1.312v1.299H38.909z"/>
		</g>
	</g>
	<g>
		<path fill="#A5A8A7" d="M29.979,76.254h-9.182c-0.677,0-1.225-0.549-1.225-1.226v-6.273c0-0.677,0.548-1.226,1.225-1.226h4.591
			h4.591c0.677,0,1.225,0.549,1.225,1.226v6.273C31.205,75.705,30.656,76.254,29.979,76.254z"/>
		<g>
			<path fill="#FFFFFF" d="M23.642,71.575v-0.88h3.493v0.88H23.642z M23.642,73.088v-0.883h3.493v0.883H23.642z"/>
		</g>
	</g>
	<g>
		<g>
			<path fill="#F16A2E" d="M57.91,44.848h-9.182c-0.677,0-1.226-0.549-1.226-1.226v-6.273c0-0.677,0.549-1.226,1.226-1.226h4.591
				h4.591c0.677,0,1.225,0.549,1.225,1.226v6.273C59.135,44.299,58.587,44.848,57.91,44.848z"/>
			<g>
				<path fill="#FFFFFF" d="M48.067,40.509c0-0.401,0.06-0.738,0.181-1.01c0.089-0.201,0.211-0.38,0.366-0.54
					s0.324-0.277,0.509-0.354c0.245-0.104,0.528-0.156,0.849-0.156c0.58,0,1.044,0.18,1.393,0.54s0.522,0.86,0.522,1.501
					c0,0.636-0.173,1.133-0.519,1.492c-0.346,0.359-0.808,0.538-1.386,0.538c-0.585,0-1.051-0.178-1.396-0.536
					C48.24,41.628,48.067,41.136,48.067,40.509z M48.887,40.482c0,0.446,0.103,0.784,0.309,1.014
					c0.206,0.23,0.468,0.345,0.784,0.345c0.317,0,0.577-0.114,0.78-0.342s0.305-0.571,0.305-1.027c0-0.451-0.099-0.788-0.297-1.01
					c-0.197-0.222-0.46-0.333-0.788-0.333c-0.327,0-0.592,0.112-0.792,0.337C48.986,39.691,48.887,40.029,48.887,40.482z"/>
				<path fill="#FFFFFF" d="M52.512,42.454v-3.938h2.699v0.666h-1.904v0.932h1.645v0.666h-1.645v1.673H52.512z"/>
				<path fill="#FFFFFF" d="M55.872,42.454v-3.938h2.698v0.666h-1.903v0.932h1.644v0.666h-1.644v1.673H55.872z"/>
			</g>
		</g>
		<g>
			<g>
				<path fill="#A5A8A7" d="M57.91,76.254h-9.182c-0.677,0-1.226-0.549-1.226-1.226v-6.273c0-0.677,0.549-1.226,1.226-1.226h4.591
					h4.591c0.677,0,1.226,0.549,1.226,1.226v6.273C59.136,75.705,58.587,76.254,57.91,76.254z"/>
				<path fill="#FFFFFF" d="M51.572,72.333V71.45h3.493v0.883H51.572z"/>
			</g>
			<g>
				<path fill="#A5A8A7" d="M57.91,65.785h-9.182c-0.677,0-1.226-0.549-1.226-1.226v-6.273c0-0.677,0.549-1.226,1.226-1.226h4.591
					h4.591c0.677,0,1.226,0.549,1.226,1.226v6.273C59.136,65.236,58.587,65.785,57.91,65.785z"/>
				<g>
					<path fill="#FFFFFF" d="M51.432,63.232l1.305-1.864l-1.251-1.755h1.169l0.641,0.995l0.675-0.995h1.125l-1.227,1.714
						l1.339,1.905h-1.176l-0.736-1.121l-0.742,1.121H51.432z"/>
				</g>
			</g>
			<g>
				<path fill="#A5A8A7" d="M57.91,55.316h-9.182c-0.677,0-1.226-0.549-1.226-1.226v-6.273c0-0.677,0.549-1.226,1.226-1.226h4.591
					h4.591c0.677,0,1.226,0.549,1.226,1.226v6.273C59.136,54.768,58.587,55.316,57.91,55.316z"/>
				<path fill="#FFFFFF" d="M51.572,51.396v-0.883h3.493v0.883H51.572z"/>
				<g>
					<circle fill="#FFFFFF" cx="53.319" cy="49.42" r="0.473"/>
					<circle fill="#FFFFFF" cx="53.319" cy="52.488" r="0.473"/>
				</g>
			</g>
		</g>
	</g>
</g>
<g id="calcScreen">
	<path fill="#41464C" d="M61.401,0H2.599C1.163,0,0,1.163,0,2.599v6.537V30h64V2.599C64,1.163,62.837,0,61.401,0z"/>
	<g>
		<rect x="34.857" y="20.042" fill="#D1C3B8" width="24.285" height="4.857"/>
		<g>
			<path fill="#A2968C" d="M40.038,24.778h-4.29c-0.408,0-0.739-0.331-0.739-0.739v-3.136c0-0.408,0.331-0.739,0.739-0.739h1.784
				h2.506c0.408,0,0.739,0.331,0.739,0.739v3.136C40.777,24.447,40.446,24.778,40.038,24.778z"/>
			<path fill="#A2968C" d="M46.109,24.778h-4.29c-0.408,0-0.739-0.331-0.739-0.739v-3.136c0-0.408,0.331-0.739,0.739-0.739h1.784
				h2.506c0.408,0,0.739,0.331,0.739,0.739v3.136C46.849,24.447,46.518,24.778,46.109,24.778z"/>
			<path fill="#A2968C" d="M52.181,24.778h-4.29c-0.408,0-0.738-0.331-0.738-0.739v-3.136c0-0.408,0.33-0.739,0.738-0.739h1.784
				h2.506c0.408,0,0.739,0.331,0.739,0.739v3.136C52.92,24.447,52.589,24.778,52.181,24.778z"/>
			<path fill="#A2968C" d="M58.252,24.778h-4.29c-0.407,0-0.738-0.331-0.738-0.739v-3.136c0-0.408,0.331-0.739,0.738-0.739h1.785
				h2.505c0.408,0,0.739,0.331,0.739,0.739v3.136C58.991,24.447,58.66,24.778,58.252,24.778z"/>
		</g>
	</g>
	<path fill="#CDCECB" d="M58.673,16.113H5.328C4.594,16.113,4,15.519,4,14.786V5.441c0-0.733,0.594-1.328,1.328-1.328h53.345
		C59.405,4.113,60,4.708,60,5.441v9.345C60,15.519,59.405,16.113,58.673,16.113z"/>
</g>
<text transform="matrix(1 0 0 1 4.438 9.1665)"><tspan x="0" y="0" font-family="'UnifontMedium'" font-size="5">CODING + COLLABORATION </tspan><tspan x="18.75" y="6" font-family="'UnifontMedium'" font-size="5">= </tspan><tspan x="23.75" y="6" fill="#FF0000" font-family="'UnifontMedium'" font-size="5">♥</tspan><tspan x="26.25" y="6" font-family="'UnifontMedium'" font-size="5"> </tspan><tspan x="28.75" y="6" fill="#FFFF00" font-family="'UnifontMedium'" font-size="5">⭑</tspan><tspan x="33.75" y="6" font-family="'UnifontMedium'" font-size="5"> </tspan><tspan x="36.25" y="6" fill="#0000FF" font-family="'UnifontMedium'" font-size="5">☺</tspan></text>
</svg>
