<svg version="1.1" id="Layer_1" xmlns="http://www.w3.org/2000/svg" xmlns:xlink="http://www.w3.org/1999/xlink" x="0px" y="0px"
	 width="450px" height="450px" viewBox="0 0 450 450" enable-background="new 0 0 450 450" xml:space="preserve">
<g id="freecodecampIconBackground">
	<path d="M393.75,451.5H56.25C25.2,451.5,0,426.3,0,395.25V57.75C0,26.7,25.2,1.5,56.25,1.5h337.5C424.8,1.5,450,26.7,450,57.75
		v337.5C450,426.3,424.8,451.5,393.75,451.5z"/>
</g>
<g id="freecodecampIconForeground">
<path id="path1" fill="#FFFFFF" d="M112.867,341.08c-5.858-1.398-14.335-8.753-23.736-20.593
	c-19.083-24.034-29.444-50.991-32.495-84.541c-0.587-6.458-0.582-22.794,0.01-28.773c2.791-28.188,12.654-52.463,30.752-75.684
	c5.542-7.111,14.728-16.426,19.127-19.397c6.225-4.204,10.143-4.544,13.903-1.206c1.533,1.361,1.887,1.995,2.083,3.74
	c0.369,3.286-1.314,5.853-9.147,13.943c-10.945,11.305-15.995,17.598-21.587,26.905c-12.702,21.134-18.136,43.359-17.357,70.978
	c0.415,14.714,1.99,25.56,5.462,37.624c3.127,10.864,6.881,19.625,12.502,29.178c5.644,9.592,10.386,15.659,19.87,25.425
	c8.32,8.566,10.387,11.543,10.387,14.955c0,3.394-2.396,6.465-5.778,7.404C114.994,341.556,114.867,341.559,112.867,341.08
	L112.867,341.08z M332.495,341.208c-1.771-0.375-4.938-3.78-5.294-5.693c-0.576-3.081,1.257-5.826,9.805-14.679
	c4.205-4.356,9.381-10.081,11.499-12.725c15.505-19.333,24.119-40.845,26.418-65.972c0.708-7.745,0.343-27.703-0.646-35.186
	c-2.068-15.676-5.89-28.501-12.505-41.986c-6.33-12.903-12.881-22.055-23.941-33.455c-7.43-7.655-9.619-10.45-10.365-13.23
	c-0.731-2.725-0.206-4.749,1.839-7.071c2.803-3.185,6.007-3.469,11.019-0.978c6.066,3.017,13.93,10.894,23.057,23.099
	c18.362,24.556,27.833,51.571,30.109,85.887c1.934,29.156-5.14,58.669-19.918,83.111c-10.202,16.872-25.765,34.159-34.054,37.826
	C337.351,341.114,334.244,341.58,332.495,341.208L332.495,341.208z M149.208,323.43c-4.961-1.504-7.837-6.461-6.641-11.448
	c0.739-3.084,3.835-6.254,6.847-7.013c3.034-0.764,159.972-0.764,163.004,0c3.105,0.782,6.155,3.962,6.834,7.126
	c0.889,4.145-0.974,8.388-4.595,10.461l-1.913,1.097l-81.15,0.076C186.961,323.771,149.887,323.637,149.208,323.43L149.208,323.43z
	 M211.024,285.281c-15.07-5.482-27.609-16.164-34.028-28.991c-3.568-7.131-5.64-15.768-5.638-23.509
	c0.002-10.465,4.095-20.438,16.562-40.361c9.287-14.838,10.869-17.542,13.6-23.241c3.634-7.584,4.832-12.089,4.908-18.452
	c0.072-6.082-0.839-9.69-3.64-14.409c-1.988-3.35-6.462-8.393-8.278-9.333c-2.961-1.531-3.575-3.611-1.473-4.989
	c3.325-2.178,12.411-0.797,20.758,3.157c9.444,4.474,16.405,10.898,20.937,19.323c3.494,6.494,4.902,11.47,7.272,25.69
	c2.63,15.779,5.236,20.785,10.508,20.18c2.792-0.321,4.536-1.381,5.712-3.474c1.873-3.334,1.07-7.896-2.718-15.448
	c-3.097-6.169-2.905-8.033,0.726-7.072c1.882,0.497,7.985,5.482,12.211,9.973c10.572,11.235,15.833,21.442,18.364,35.625
	c1.327,7.439,1.438,19.775,0.234,26.221c-1.518,8.133-4.593,15.81-8.964,22.374c-4.873,7.32-15.04,16.583-22.433,20.437
	c-3.338,1.738-4.496,1.845-6.133,0.558c-2.035-1.601-1.605-2.714,2.894-7.492c6.76-7.181,10.21-12.284,12.213-18.063
	c3.089-8.916,1.552-21.347-3.62-29.268c-2.144-3.281-5.283-6.176-6.702-6.176c-0.775,0-0.647,1.024,0.793,6.299
	c0.505,1.847,0.917,4.106,0.917,5.019c0,4.825-6.812,8.324-12.812,6.58c-4.876-1.418-7.025-5.84-6.38-13.125
	c0.2-2.252,0.379-6.343,0.396-9.093c0.033-4.847-0.013-5.092-1.548-8.118c-2.991-5.898-9.908-11.975-13.632-11.975
	c-1.606,0-1.738,0.098-1.738,1.278c0,0.792,0.445,1.693,1.174,2.373c3.859,3.602,4.584,10.981,1.722,17.496
	c-1.77,4.026-3.765,6.308-10.579,12.091c-8.966,7.609-11.854,11.233-13.646,17.117c-0.828,2.722-0.914,3.829-0.681,8.815
	c0.392,8.373,2.098,13.923,6.086,19.796c3.062,4.509,6.647,7.369,11.517,9.188c2.342,0.875,2.6,1.101,2.6,2.279
	c0,1.366-1.038,2.263-2.569,2.222C215.462,286.771,213.262,286.096,211.024,285.281L211.024,285.281z"/>
</g>
</svg>
