<?xml version="1.0" encoding="utf-8"?>
<!-- Generator: Adobe Illustrator 16.0.0, SVG Export Plug-In . SVG Version: 6.00 Build 0)  -->
<!DOCTYPE svg PUBLIC "-//W3C//DTD SVG 1.1//EN" "http://www.w3.org/Graphics/SVG/1.1/DTD/svg11.dtd">
<svg version="1.1" id="Layer_1" xmlns="http://www.w3.org/2000/svg" xmlns:xlink="http://www.w3.org/1999/xlink" x="0px" y="0px"
	 width="760px" height="514.089px" viewBox="0 0 760 514.089" enable-background="new 0 0 760 514.089" xml:space="preserve">
<g>
	<path fill="#FFFFFF" d="M3.887,55.166c-7.253,7.372-1.392,9.348-1.392,19.711c0,10.371,1.305,10.371,1.305,20.739
		c0,10.368-0.129,10.368-0.129,20.729c0,10.372-2.075,10.372-2.075,20.739C1.595,147.452,2,147.452,2,157.819
		c0,10.371-0.471,10.371-0.471,20.741s1.611,10.371,1.611,20.739c0,10.371,1.089,10.371,1.089,20.741s-2.181,10.371-2.181,20.743
		c0,10.371,0.717,10.371,0.717,20.741c0,10.362-0.521,10.362-0.521,20.724c0,10.369,1.255,10.369,1.255,20.738
		c0,10.363-0.792,10.363-0.792,20.728c0,10.371,0.145,10.371,0.145,20.741c0,10.374,0.308,10.374,0.308,20.75
		c0,10.37,0.09,10.37,0.09,20.748c0,10.371,0.145,10.371,0.145,20.745c0,10.371-1.136,10.371-1.136,20.741
		c0,10.372,1.077,10.372,1.077,20.745c0,10.383-1.581,10.383-1.581,20.765c0,10.388,0.278,10.388,0.278,20.779
		c0,10.387-5.553,12.51,1.694,19.924c7.119,7.279,9.294,1.666,19.456,1.666c10.162,0,10.162-1.325,20.324-1.325
		c10.172,0,10.172-0.719,20.341-0.719c10.167,0,10.167,2.444,20.337,2.444c10.16,0,10.16-1.017,20.324-1.017
		c10.164,0,10.164,0.577,20.326,0.577c10.167,0,10.167-0.774,20.333-0.774c10.175,0,10.175,1.247,20.348,1.247
		c10.164,0,10.164-1.062,20.332-1.062c10.165,0,10.165-1.517,20.329-1.517c10.172,0,10.172,1.938,20.341,1.938
		c10.171,0,10.171-0.33,20.345-0.33c10.164,0,10.164,1.103,20.331,1.103c10.172,0,10.172-0.273,20.34-0.273
		c10.172,0,10.172-2.433,20.348-2.433c10.168,0,10.168,2.29,20.336,2.29c10.177,0,10.177-1.069,20.35-1.069
		c10.171,0,10.171-0.708,20.341-0.708c10.173,0,10.173,1.98,20.345,1.98c10.175,0,10.175-0.24,20.347-0.24
		c10.176,0,10.176-1.534,20.351-1.534c10.171,0,10.171,0.914,20.346,0.914c10.177,0,10.177-0.006,20.352-0.006
		c10.179,0,10.179-1.396,20.354-1.396s10.175,1.199,20.35,1.199c10.168,0,10.168,0.438,20.335,0.438
		c10.175,0,10.175-1.385,20.352-1.385c10.168,0,10.168,0.494,20.334,0.494c10.177,0,10.177-1.147,20.352-1.147
		c10.177,0,10.177,1.25,20.358,1.25c10.179,0,10.179,1.588,20.355,1.588s10.177-1.933,20.358-1.933
		c10.177,0,10.177-0.045,20.352-0.045c10.174,0,10.174,1.846,20.354,1.846c10.185,0,10.185-2.196,20.371-2.196
		c10.193,0,10.193-0.374,20.388-0.374c10.191,0,14.062,9.479,21.226,2.193c7.253-7.373-1.569-11.195-1.569-21.558
		c0-10.372,1.863-10.372,1.863-20.743c0-10.363-1.469-10.363-1.469-20.73c0-10.366-0.551-10.366-0.551-20.737
		c0-10.369,0.644-10.369,0.644-20.734c0-10.37,0.432-10.37,0.432-20.741c0-10.369-0.548-10.369-0.548-20.737
		c0-10.373-0.044-10.373-0.044-20.742c0-10.373,1.464-10.373,1.464-20.742c0-10.373-0.247-10.373-0.247-20.744
		c0-10.359-0.816-10.359-0.816-20.72c0-10.374,0.206-10.374,0.206-20.74c0-10.365-1.59-10.365-1.59-20.728
		c0-10.373,1.02-10.373,1.02-20.741c0-10.374,0.819-10.374,0.819-20.747c0-10.377,0.925-10.377,0.925-20.748
		c0-10.376-0.123-10.376-0.123-20.749c0-10.37-0.964-10.37-0.964-20.741c0-10.374-1.605-10.374-1.605-20.744
		c0-10.385,1.889-10.385,1.889-20.765c0-10.391,0.816-10.391,0.816-20.776c0-10.388,6.898-14.393-0.351-21.804
		c-7.117-7.28-11.198,0.919-21.358,0.919c-10.161,0-10.161,0.902-20.323,0.902c-10.173,0-10.173,0.118-20.341,0.118
		c-10.169,0-10.169-0.366-20.337-0.366c-10.162,0-10.162-1.981-20.324-1.981c-10.166,0-10.166,1.315-20.328,1.315
		c-10.166,0-10.166-0.719-20.333-0.719c-10.172,0-10.172,0.258-20.347,0.258c-10.168,0-10.168-0.081-20.333-0.081
		c-10.164,0-10.164,1.82-20.331,1.82c-10.168,0-10.168-0.893-20.338-0.893c-10.173,0-10.173-0.707-20.343-0.707
		c-10.167,0-10.167,0.075-20.335,0.075c-10.17,0-10.17-0.24-20.339-0.24c-10.175,0-10.175,1.086-20.348,1.086
		c-10.168,0-10.168-1.105-20.338-1.105c-10.176,0-10.176,1.12-20.348,1.12c-10.171,0-10.171-0.517-20.344-0.517
		s-10.173,1.362-20.343,1.362c-10.175,0-10.175-0.345-20.348-0.345c-10.174,0-10.174-1.88-20.35-1.88
		c-10.174,0-10.174,0.175-20.345,0.175c-10.175,0-10.175,0.639-20.354,0.639c-10.175,0-10.175,0.208-20.352,0.208
		c-10.174,0-10.174,0.372-20.351,0.372c-10.165,0-10.165-0.116-20.333-0.116c-10.177,0-10.177,0.847-20.35,0.847
		c-10.168,0-10.168-2.422-20.339-2.422c-10.172,0-10.172,1.319-20.349,1.319c-10.179,0-10.179-1.402-20.358-1.402
		c-10.177,0-10.177,0.284-20.354,0.284c-10.181,0-10.181,1.642-20.36,1.642c-10.175,0-10.175-1.169-20.352-1.169
		c-10.179,0-10.179,1.622-20.354,1.622c-10.185,0-10.185-1.078-20.371-1.078c-10.194,0-10.611,3.134-20.624,1.208
		C12.851,53.437,11.049,47.883,3.887,55.166z M38.803,496.046c-8.581,0-15.177-8.432-15.177-17.052
		c0-8.614,6.596-16.539,15.177-16.539c8.579,0,16.337,7.925,16.337,16.539C55.14,487.614,47.382,496.046,38.803,496.046z
		 M38.803,431.683c-8.581,0-15.177-8.431-15.177-17.045c0-8.617,6.596-16.547,15.177-16.547c8.579,0,16.337,7.931,16.337,16.547
		C55.14,423.252,47.382,431.683,38.803,431.683z M38.803,367.316c-8.581,0-15.177-8.419-15.177-17.038
		c0-8.623,6.596-16.542,15.177-16.542c8.579,0,16.337,7.919,16.337,16.542C55.14,358.897,47.382,367.316,38.803,367.316z
		 M38.803,302.966c-8.581,0-15.177-8.431-15.177-17.054c0-8.616,6.596-16.54,15.177-16.54c8.579,0,16.337,7.924,16.337,16.54
		C55.14,294.535,47.382,302.966,38.803,302.966z M38.803,238.602c-8.581,0-15.177-8.429-15.177-17.047
		c0-8.617,6.596-16.544,15.177-16.544c8.579,0,16.337,7.927,16.337,16.544C55.14,230.173,47.382,238.602,38.803,238.602z
		 M38.803,174.238c-8.581,0-15.177-8.43-15.177-17.046c0-8.621,6.596-16.542,15.177-16.542c8.579,0,16.337,7.921,16.337,16.542
		C55.14,165.809,47.382,174.238,38.803,174.238z M38.803,109.879c-8.581,0-15.177-8.429-15.177-17.051
		c0-8.618,6.596-16.538,15.177-16.538c8.579,0,16.337,7.919,16.337,16.538C55.14,101.451,47.382,109.879,38.803,109.879z"/>
</g>
<g opacity="0.7">
	<polygon fill="#B959A2" points="550.31,112.283 224.016,90.529 233.079,80.808 225.108,73.861 236.555,63.212 226.214,57.18 
		235.413,45.329 227.634,35.734 238.006,32.546 228.727,19.063 237.121,10.602 229.983,0 556.298,21.752 542.529,32.602 
		555.104,39.622 544.817,50.573 553.854,58.687 546.701,66.086 552.825,74.177 542.857,80.41 551.643,92.045 544.099,96.685 
		550.86,103.958 	"/>
</g>
</svg>
