<?xml version="1.0" encoding="utf-8"?>
<!-- Generator: Adobe Illustrator 16.0.0, SVG Export Plug-In . SVG Version: 6.00 Build 0)  -->
<!DOCTYPE svg PUBLIC "-//W3C//DTD SVG 1.1//EN" "http://www.w3.org/Graphics/SVG/1.1/DTD/svg11.dtd">
<svg version="1.1" id="Layer_1" xmlns="http://www.w3.org/2000/svg" xmlns:xlink="http://www.w3.org/1999/xlink" x="0px" y="0px"
	 width="1615.076px" height="807.539px" viewBox="0 -130.854 1615.076 807.539"
	 enable-background="new 0 -130.854 1615.076 807.539" xml:space="preserve">
<g id="state-2">
	<path d="M1546.837,68.206H1336.41V0h-250.207v68.206H870.126v68.271h-62.588v204.645h136.528v68.252h-68.264v68.291h68.264v68.167
		h142.133v-68.167h-62.594v-68.291h125.187v-68.252h125.03v68.252h125.175v68.291h-62.587v68.167h142.136v-68.167h68.265v-68.291
		h-68.265v-68.252h136.529V136.477h-68.238V68.206z M1148.792,272.859h-125.187v-68.176h125.187V272.859z M1398.997,272.859
		h-125.175v-68.176h125.175V272.859z"/>
	<rect x="1148.792" y="409.384" width="125.03" height="68.29"/>
</g>
<g id="state-1">
	<rect y="477.671" width="136.529" height="68.161"/>
	<rect x="341.254" y="409.441" width="125.03" height="68.229"/>
	<path d="M341.254,409.441V341.15h125.03v68.291h68.351v68.229h136.374v-68.229h-68.193V341.15h204.724V136.435H739.3V68.196
		H528.872V0H278.665v68.196H68.334v68.239H0v204.707h204.716v68.291h-68.187v68.23h136.529v-68.222 M466.284,204.69H591.46v68.222
		H466.284V204.69z M216.069,204.69h125.185v68.222H216.069V204.69z"/>
	<rect x="671.008" y="477.671" width="136.528" height="68.161"/>
</g>
</svg>
