<?xml version="1.0" encoding="utf-8"?>
<!-- Generator: Adobe Illustrator 16.0.0, SVG Export Plug-In . SVG Version: 6.00 Build 0)  -->
<!DOCTYPE svg PUBLIC "-//W3C//DTD SVG 1.1//EN" "http://www.w3.org/Graphics/SVG/1.1/DTD/svg11.dtd">
<svg version="1.1" id="calculator" xmlns="http://www.w3.org/2000/svg" xmlns:xlink="http://www.w3.org/1999/xlink" x="0px" y="0px"
	 width="600px" height="450px" viewBox="0 0 600 450" enable-background="new 0 0 600 450" xml:space="preserve">
<path id="calcBody" fill="#5C6165" d="M461.591,450.688H138.404c-7.893,0-14.285-6.393-14.285-14.285V49.367
	c0-7.887,6.392-14.285,14.285-14.285h323.192c7.888,0,14.279,6.397,14.279,14.285v387.036
	C475.875,444.295,469.483,450.688,461.591,450.688z"/>
<g id="calButtons">
	<path fill="#41464C" d="M214.807,201.171h-25.233H164.34c-3.721,0-6.733,3.012-6.733,6.733v34.478c0,3.721,3.012,6.738,6.733,6.738
		h50.466c3.721,0,6.732-3.018,6.732-6.738v-34.478C221.539,204.183,218.527,201.171,214.807,201.171z"/>
	<path fill="#41464C" d="M291.522,201.171h-25.233h-25.233c-3.721,0-6.733,3.012-6.733,6.733v34.478
		c0,3.721,3.012,6.738,6.733,6.738h50.466c3.721,0,6.733-3.018,6.733-6.738v-34.478C298.26,204.183,295.243,201.171,291.522,201.171
		z"/>
	<path fill="#41464C" d="M368.243,201.171H343.01h-25.232c-3.721,0-6.738,3.012-6.738,6.733v34.478c0,3.721,3.018,6.738,6.738,6.738
		h50.466c3.722,0,6.738-3.018,6.738-6.738v-34.478C374.981,204.183,371.965,201.171,368.243,201.171z"/>
	<path fill="#41464C" d="M214.807,258.711h-25.233H164.34c-3.721,0-6.733,3.012-6.733,6.732v34.478c0,3.722,3.012,6.738,6.733,6.738
		h50.466c3.721,0,6.732-3.017,6.732-6.738v-34.478C221.539,261.723,218.527,258.711,214.807,258.711z"/>
	<path fill="#41464C" d="M291.522,258.711h-25.233h-25.233c-3.721,0-6.733,3.012-6.733,6.732v34.478
		c0,3.722,3.012,6.738,6.733,6.738h50.466c3.721,0,6.733-3.017,6.733-6.738v-34.478C298.26,261.723,295.243,258.711,291.522,258.711
		z"/>
	<path fill="#41464C" d="M368.243,258.711H343.01h-25.232c-3.721,0-6.738,3.012-6.738,6.732v34.478c0,3.722,3.018,6.738,6.738,6.738
		h50.466c3.722,0,6.738-3.017,6.738-6.738v-34.478C374.981,261.723,371.965,258.711,368.243,258.711z"/>
	<path fill="#41464C" d="M214.807,316.25h-25.233H164.34c-3.721,0-6.733,3.018-6.733,6.733v34.482c0,3.716,3.012,6.733,6.733,6.733
		h50.466c3.721,0,6.732-3.018,6.732-6.733v-34.482C221.539,319.268,218.527,316.25,214.807,316.25z"/>
	<path fill="#41464C" d="M291.522,316.25h-25.233h-25.233c-3.721,0-6.733,3.018-6.733,6.733v34.482c0,3.716,3.012,6.733,6.733,6.733
		h50.466c3.721,0,6.733-3.018,6.733-6.733v-34.482C298.26,319.268,295.243,316.25,291.522,316.25z"/>
	<path fill="#41464C" d="M368.243,316.25H343.01h-25.232c-3.721,0-6.738,3.018-6.738,6.733v34.482c0,3.716,3.018,6.733,6.738,6.733
		h50.466c3.722,0,6.738-3.018,6.738-6.733v-34.482C374.981,319.268,371.965,316.25,368.243,316.25z"/>
	<path fill="#41464C" d="M214.807,373.79h-25.233H164.34c-3.721,0-6.733,3.018-6.733,6.738v34.478c0,3.721,3.012,6.732,6.733,6.732
		h50.466c3.721,0,6.732-3.012,6.732-6.732v-34.478C221.539,376.808,218.527,373.79,214.807,373.79z"/>
	<path fill="#41464C" d="M368.243,373.79H343.01h-25.232c-3.721,0-6.738,3.018-6.738,6.738v34.478c0,3.721,3.018,6.732,6.738,6.732
		h50.466c3.722,0,6.738-3.012,6.738-6.732v-34.478C374.981,376.808,371.965,373.79,368.243,373.79z"/>
	<path fill="#41464C" d="M291.522,373.79h-25.233h-25.233c-3.721,0-6.733,3.018-6.733,6.738v34.478c0,3.721,3.012,6.732,6.733,6.732
		h50.466c3.721,0,6.733-3.012,6.733-6.732v-34.478C298.26,376.808,295.243,373.79,291.522,373.79z"/>
	<path fill="#41464C" d="M394.57,249.12h50.466c3.721,0,6.738-3.018,6.738-6.738v-34.478c0-3.721-3.018-6.733-6.738-6.733h-25.233
		H394.57c-3.721,0-6.732,3.012-6.732,6.733v34.478C387.838,246.103,390.85,249.12,394.57,249.12z"/>
	<path fill="#41464C" d="M445.036,373.79h-25.233H394.57c-3.721,0-6.732,3.018-6.732,6.738v34.478c0,3.721,3.012,6.732,6.732,6.732
		h50.466c3.721,0,6.738-3.012,6.738-6.732v-34.478C451.769,376.808,448.751,373.79,445.036,373.79z"/>
	<path fill="#41464C" d="M445.036,316.25h-25.233H394.57c-3.721,0-6.732,3.018-6.732,6.733v34.482c0,3.722,3.012,6.733,6.732,6.733
		h50.466c3.721,0,6.738-3.012,6.738-6.733v-34.482C451.769,319.268,448.751,316.25,445.036,316.25z"/>
	<path fill="#41464C" d="M445.036,258.711h-25.233H394.57c-3.721,0-6.732,3.012-6.732,6.732v34.478c0,3.722,3.012,6.738,6.732,6.738
		h50.466c3.721,0,6.738-3.017,6.738-6.738v-34.478C451.769,261.723,448.751,258.711,445.036,258.711z"/>
</g>
<g id="calcDigits">
	<path fill="#A5A8A7" d="M212.174,246.492h-50.466c-3.721,0-6.733-3.017-6.733-6.738v-34.477c0-3.721,3.012-6.738,6.733-6.738
		h25.233h25.233c3.721,0,6.733,3.018,6.733,6.738v34.477C218.907,243.476,215.895,246.492,212.174,246.492z"/>
	<g>
		<path fill="#FFFFFF" d="M177.938,213.862v-4.886h18v3.82c-1.489,1.462-2.996,3.562-4.534,6.298
			c-1.539,2.737-2.71,5.639-3.512,8.717c-0.802,3.077-1.204,5.825-1.187,8.249h-5.073c0.088-3.792,0.869-7.666,2.347-11.613
			c1.484-3.946,3.457-7.475,5.93-10.586H177.938z"/>
	</g>
	<path fill="#A5A8A7" d="M288.89,246.492h-50.466c-3.721,0-6.732-3.017-6.732-6.738v-34.477c0-3.721,3.012-6.738,6.732-6.738h25.233
		h25.233c3.721,0,6.732,3.018,6.732,6.738v34.477C295.628,243.476,292.61,246.492,288.89,246.492z"/>
	<g>
		<path fill="#FFFFFF" d="M259.221,221.238c-1.363-0.572-2.353-1.363-2.968-2.369c-0.621-1.006-0.929-2.105-0.929-3.309
			c0-2.05,0.714-3.738,2.144-5.073s3.462-2.006,6.095-2.006c2.611,0,4.639,0.67,6.079,2.006c1.446,1.335,2.166,3.028,2.166,5.073
			c0,1.275-0.33,2.407-0.995,3.402c-0.66,0.995-1.594,1.753-2.792,2.275c1.522,0.61,2.682,1.506,3.474,2.677
			c0.792,1.17,1.187,2.529,1.187,4.067c0,2.534-0.808,4.595-2.424,6.178c-1.616,1.589-3.771,2.38-6.453,2.38
			c-2.5,0-4.578-0.654-6.238-1.962c-1.962-1.544-2.94-3.671-2.94-6.37c0-1.484,0.368-2.853,1.104-4.095
			C256.473,222.876,257.633,221.914,259.221,221.238z M259.82,227.701c0,1.451,0.374,2.578,1.116,3.392
			c0.742,0.808,1.671,1.22,2.781,1.22c1.088,0,1.984-0.391,2.699-1.17c0.709-0.781,1.066-1.908,1.066-3.381
			c0-1.286-0.363-2.319-1.088-3.1c-0.726-0.781-1.644-1.171-2.753-1.171c-1.286,0-2.243,0.445-2.875,1.33
			C260.133,225.706,259.82,226.668,259.82,227.701z M260.309,215.939c0,1.05,0.297,1.869,0.891,2.451
			c0.594,0.588,1.385,0.879,2.369,0.879c1,0,1.797-0.296,2.402-0.89c0.599-0.594,0.901-1.413,0.901-2.462
			c0-0.989-0.296-1.775-0.89-2.369c-0.594-0.594-1.374-0.891-2.353-0.891c-1.011,0-1.819,0.302-2.413,0.901
			C260.606,214.159,260.309,214.95,260.309,215.939z"/>
	</g>
	<path fill="#A5A8A7" d="M365.611,246.492h-50.467c-3.721,0-6.738-3.017-6.738-6.738v-34.477c0-3.721,3.018-6.738,6.738-6.738
		h25.233h25.233c3.715,0,6.732,3.018,6.732,6.738v34.477C372.344,243.476,369.326,246.492,365.611,246.492z"/>
	<g>
		<path fill="#FFFFFF" d="M331.732,229.707l5.095-0.565c0.121,1.038,0.45,1.803,0.979,2.303c0.522,0.5,1.214,0.753,2.077,0.753
			c1.083,0,2.012-0.5,2.775-1.495c0.759-1,1.248-3.072,1.463-6.222c-1.325,1.539-2.979,2.303-4.963,2.303
			c-2.166,0-4.023-0.83-5.596-2.5c-1.566-1.666-2.353-3.836-2.353-6.507c0-2.787,0.83-5.029,2.484-6.733s3.765-2.556,6.321-2.556
			c2.78,0,5.066,1.077,6.854,3.231c1.78,2.155,2.676,5.7,2.676,10.63c0,5.018-0.934,8.64-2.791,10.861
			c-1.863,2.226-4.282,3.33-7.267,3.33c-2.149,0-3.886-0.571-5.205-1.715C332.958,233.687,332.111,231.978,331.732,229.707z
			 M343.643,218.204c0-1.698-0.385-3.012-1.171-3.952c-0.78-0.934-1.682-1.407-2.704-1.407c-0.973,0-1.781,0.385-2.424,1.154
			s-0.967,2.022-0.967,3.776c0,1.775,0.352,3.078,1.049,3.902c0.699,0.824,1.572,1.248,2.622,1.248c1.017,0,1.868-0.401,2.562-1.198
			C343.302,220.93,343.643,219.754,343.643,218.204z"/>
	</g>
	<path fill="#A5A8A7" d="M212.174,304.027h-50.466c-3.721,0-6.733-3.018-6.733-6.738v-34.479c0-3.721,3.012-6.738,6.733-6.738
		h25.233h25.233c3.721,0,6.733,3.018,6.733,6.738v34.479C218.907,301.015,215.895,304.027,212.174,304.027z"/>
	<g>
		<path fill="#FFFFFF" d="M188.309,293.837v-5.523H177.07v-4.611l11.91-17.439h4.419v17.423h3.408v4.628h-3.408v5.523H188.309
			L188.309,293.837z M188.309,283.686v-9.382l-6.315,9.382H188.309z"/>
	</g>
	<path fill="#A5A8A7" d="M288.89,304.027h-50.466c-3.721,0-6.732-3.018-6.732-6.738v-34.479c0-3.721,3.012-6.738,6.732-6.738h25.233
		h25.233c3.721,0,6.732,3.018,6.732,6.738v34.479C295.628,301.015,292.61,304.027,288.89,304.027z"/>
	<g>
		<path fill="#FFFFFF" d="M254.423,286.302l5.249-0.544c0.148,1.188,0.588,2.127,1.33,2.819c0.742,0.692,1.588,1.033,2.544,1.033
			c1.1,0,2.028-0.445,2.792-1.335c0.764-0.896,1.143-2.237,1.143-4.035c0-1.688-0.379-2.951-1.132-3.792
			c-0.758-0.841-1.737-1.259-2.952-1.259c-1.506,0-2.863,0.665-4.062,2.001l-4.271-0.616l2.699-14.295h13.916v4.924h-9.926
			l-0.825,4.667c1.176-0.583,2.375-0.88,3.595-0.88c2.336,0,4.314,0.847,5.941,2.551c1.621,1.698,2.435,3.902,2.435,6.605
			c0,2.266-0.654,4.277-1.967,6.058c-1.787,2.418-4.265,3.633-7.437,3.633c-2.534,0-4.6-0.682-6.2-2.044
			C255.692,290.43,254.742,288.6,254.423,286.302z"/>
	</g>
	<path fill="#A5A8A7" d="M365.611,304.027h-50.467c-3.721,0-6.738-3.018-6.738-6.738v-34.479c0-3.721,3.018-6.738,6.738-6.738
		h25.233h25.233c3.715,0,6.732,3.018,6.732,6.738v34.479C372.344,301.015,369.326,304.027,365.611,304.027z"/>
	<g>
		<path fill="#FFFFFF" d="M349.039,272.869l-5.094,0.561c-0.121-1.045-0.445-1.819-0.973-2.319c-0.528-0.501-1.21-0.753-2.045-0.753
			c-1.111,0-2.051,0.5-2.82,1.494c-0.77,0.996-1.253,3.084-1.451,6.238c1.309-1.544,2.941-2.318,4.893-2.318
			c2.192,0,4.078,0.83,5.645,2.506s2.352,3.83,2.352,6.485c0,2.809-0.824,5.062-2.473,6.755c-1.648,1.703-3.766,2.551-6.348,2.551
			c-2.771,0-5.052-1.078-6.838-3.232c-1.781-2.154-2.677-5.684-2.677-10.591c0-5.034,0.935-8.662,2.792-10.883
			c1.863-2.22,4.276-3.331,7.25-3.331c2.082,0,3.809,0.583,5.178,1.748C347.792,268.955,348.666,270.648,349.039,272.869z
			 M337.113,284.351c0,1.715,0.391,3.028,1.176,3.963c0.791,0.929,1.693,1.396,2.699,1.396c0.973,0,1.785-0.379,2.435-1.143
			c0.648-0.764,0.973-2.012,0.973-3.748c0-1.787-0.347-3.09-1.044-3.925c-0.704-0.83-1.572-1.247-2.627-1.247
			c-1.012,0-1.869,0.395-2.567,1.191C337.459,281.63,337.113,282.801,337.113,284.351z"/>
	</g>
	<path fill="#A5A8A7" d="M212.174,361.566h-50.466c-3.721,0-6.733-3.018-6.733-6.738v-34.478c0-3.721,3.012-6.738,6.733-6.738
		h25.233h25.233c3.721,0,6.733,3.018,6.733,6.738v34.478C218.907,358.549,215.895,361.566,212.174,361.566z"/>
	<g>
		<path fill="#FFFFFF" d="M191.371,351.377h-5.265v-19.831c-1.924,1.798-4.188,3.128-6.799,3.99v-4.775
			c1.374-0.445,2.863-1.298,4.474-2.556c1.61-1.259,2.715-2.721,3.32-4.392h4.271V351.377z"/>
	</g>
	<path fill="#A5A8A7" d="M288.89,361.566h-50.466c-3.721,0-6.732-3.018-6.732-6.738v-34.478c0-3.721,3.012-6.738,6.732-6.738h25.233
		h25.233c3.721,0,6.732,3.018,6.732,6.738v34.478C295.628,358.549,292.61,361.566,288.89,361.566z"/>
	<g>
		<path fill="#FFFFFF" d="M272.885,346.49v4.887h-18.451c0.198-1.848,0.802-3.595,1.797-5.249c1-1.66,2.974-3.854,5.919-6.585
			c2.375-2.209,3.831-3.71,4.364-4.496c0.726-1.082,1.088-2.159,1.088-3.221c0-1.17-0.313-2.077-0.945-2.704
			c-0.632-0.632-1.5-0.945-2.616-0.945c-1.099,0-1.973,0.33-2.622,0.995c-0.648,0.659-1.022,1.759-1.126,3.298l-5.244-0.527
			c0.313-2.896,1.292-4.975,2.94-6.238c1.649-1.265,3.71-1.891,6.184-1.891c2.709,0,4.836,0.73,6.386,2.188
			c1.55,1.456,2.319,3.281,2.319,5.452c0,1.236-0.22,2.407-0.665,3.528c-0.445,1.115-1.143,2.292-2.11,3.518
			c-0.638,0.808-1.786,1.973-3.446,3.501c-1.66,1.528-2.715,2.534-3.155,3.034c-0.445,0.505-0.802,0.989-1.077,1.467h10.459V346.49z
			"/>
	</g>
	<path fill="#A5A8A7" d="M365.611,361.566h-50.467c-3.721,0-6.738-3.018-6.738-6.738v-34.478c0-3.721,3.018-6.738,6.738-6.738
		h25.233h25.233c3.715,0,6.732,3.018,6.732,6.738v34.478C372.344,358.549,369.326,361.566,365.611,361.566z"/>
	<g>
		<path fill="#FFFFFF" d="M331.26,343.853l5.095-0.616c0.159,1.298,0.599,2.292,1.308,2.979c0.715,0.687,1.578,1.033,2.59,1.033
			c1.088,0,2-0.412,2.742-1.236c0.747-0.825,1.115-1.94,1.115-3.331c0-1.324-0.352-2.38-1.066-3.149s-1.577-1.159-2.605-1.159
			c-0.676,0-1.483,0.126-2.412,0.39l0.577-4.287c1.423,0.039,2.512-0.274,3.259-0.929c0.754-0.654,1.121-1.522,1.121-2.616
			c0-0.923-0.274-1.66-0.818-2.204c-0.55-0.555-1.275-0.824-2.188-0.824c-0.901,0-1.671,0.313-2.309,0.939
			c-0.632,0.621-1.021,1.534-1.16,2.732l-4.853-0.819c0.341-1.665,0.847-2.99,1.528-3.984c0.682-0.995,1.627-1.771,2.847-2.342
			s2.583-0.852,4.095-0.852c2.583,0,4.655,0.824,6.217,2.473c1.285,1.347,1.934,2.869,1.934,4.567c0,2.407-1.318,4.331-3.957,5.771
			c1.572,0.341,2.836,1.094,3.781,2.265c0.939,1.176,1.412,2.594,1.412,4.248c0,2.407-0.879,4.463-2.638,6.161
			c-1.759,1.704-3.952,2.551-6.573,2.551c-2.484,0-4.545-0.715-6.178-2.144C332.469,348.035,331.518,346.166,331.26,343.853z"/>
	</g>
	<path fill="#A5A8A7" d="M212.174,419.105h-50.466c-3.721,0-6.733-3.017-6.733-6.738V377.89c0-3.721,3.012-6.738,6.733-6.738h25.233
		h25.233c3.721,0,6.733,3.018,6.733,6.738v34.478C218.907,416.089,215.895,419.105,212.174,419.105z"/>
	<g>
		<path fill="#FFFFFF" d="M186.803,381.111c2.66,0,4.738,0.95,6.238,2.852c1.786,2.243,2.677,5.975,2.677,11.18
			c0,5.194-0.901,8.926-2.699,11.201c-1.489,1.874-3.556,2.809-6.216,2.809c-2.671,0-4.826-1.027-6.463-3.083
			s-2.451-5.717-2.451-10.987c0-5.166,0.901-8.887,2.699-11.157C182.065,382.051,184.143,381.111,186.803,381.111z M186.803,385.475
			c-0.637,0-1.204,0.203-1.704,0.61c-0.5,0.401-0.885,1.132-1.16,2.177c-0.363,1.362-0.544,3.654-0.544,6.875s0.16,5.431,0.484,6.64
			c0.324,1.204,0.731,2.006,1.226,2.407s1.055,0.6,1.698,0.6c0.638,0,1.204-0.203,1.704-0.604c0.5-0.407,0.885-1.133,1.16-2.183
			c0.363-1.347,0.544-3.633,0.544-6.854s-0.159-5.436-0.483-6.64c-0.325-1.209-0.737-2.012-1.231-2.412
			C188.007,385.678,187.441,385.475,186.803,385.475z"/>
	</g>
	<g>
		<path fill="#A5A8A7" d="M365.611,419.105h-50.467c-3.721,0-6.738-3.017-6.738-6.738V377.89c0-3.721,3.018-6.738,6.738-6.738
			h25.233h25.233c3.715,0,6.732,3.018,6.732,6.738v34.478C372.344,416.089,369.326,419.105,365.611,419.105z"/>
		<g>
			<path fill="#FFFFFF" d="M337.971,404.733v-7.14h-7.195v-4.925h7.195v-7.134h4.793v7.134h7.211v4.925h-7.211v7.14H337.971z"/>
		</g>
	</g>
	<g>
		<path fill="#A5A8A7" d="M288.89,419.105h-50.466c-3.721,0-6.732-3.017-6.732-6.738V377.89c0-3.721,3.012-6.738,6.732-6.738h25.233
			h25.233c3.721,0,6.732,3.018,6.732,6.738v34.478C295.628,416.089,292.61,419.105,288.89,419.105z"/>
		<g>
			<path fill="#FFFFFF" d="M254.06,393.39v-4.837h19.198v4.837H254.06z M254.06,401.705v-4.854h19.198v4.854H254.06z"/>
		</g>
	</g>
	<g>
		<g>
			<path fill="#F16A2E" d="M442.403,246.492h-50.466c-3.721,0-6.738-3.017-6.738-6.738v-34.477c0-3.721,3.018-6.738,6.738-6.738
				h25.232h25.233c3.721,0,6.732,3.018,6.732,6.738v34.477C449.136,243.476,446.124,246.492,442.403,246.492z"/>
			<g>
				<path fill="#FFFFFF" d="M388.305,222.645c0-2.204,0.33-4.056,0.994-5.551c0.49-1.104,1.16-2.088,2.012-2.968
					s1.781-1.522,2.798-1.946c1.347-0.572,2.901-0.857,4.666-0.857c3.188,0,5.738,0.989,7.656,2.968
					c1.919,1.979,2.869,4.727,2.869,8.25c0,3.496-0.95,6.227-2.853,8.2c-1.901,1.974-4.441,2.957-7.617,2.957
					c-3.216,0-5.777-0.979-7.674-2.945C389.256,228.795,388.305,226.091,388.305,222.645z M392.812,222.497
					c0,2.451,0.565,4.309,1.698,5.574c1.132,1.264,2.572,1.896,4.309,1.896c1.742,0,3.172-0.626,4.287-1.88
					c1.115-1.253,1.677-3.138,1.677-5.645c0-2.479-0.544-4.331-1.633-5.551c-1.083-1.22-2.528-1.831-4.331-1.831
					c-1.797,0-3.254,0.616-4.353,1.853C393.355,218.149,392.812,220.007,392.812,222.497z"/>
				<path fill="#FFFFFF" d="M412.734,233.335v-21.644h14.835v3.661h-10.465v5.122h9.041v3.661h-9.041v9.196h-4.37V233.335z"/>
				<path fill="#FFFFFF" d="M431.202,233.335v-21.644h14.829v3.661h-10.46v5.122h9.036v3.661h-9.036v9.196h-4.369V233.335z"/>
			</g>
		</g>
		<g>
			<g>
				<path fill="#A5A8A7" d="M442.403,419.105h-50.466c-3.721,0-6.738-3.017-6.738-6.738V377.89c0-3.721,3.018-6.738,6.738-6.738
					h25.232h25.233c3.721,0,6.738,3.018,6.738,6.738v34.478C449.142,416.089,446.124,419.105,442.403,419.105z"/>
				<path fill="#FFFFFF" d="M407.568,397.556v-4.854h19.198v4.854H407.568z"/>
			</g>
			<g>
				<path fill="#A5A8A7" d="M442.403,361.566h-50.466c-3.721,0-6.738-3.018-6.738-6.738v-34.478c0-3.721,3.018-6.738,6.738-6.738
					h25.232h25.233c3.721,0,6.738,3.018,6.738,6.738v34.478C449.142,358.549,446.124,361.566,442.403,361.566z"/>
				<g>
					<path fill="#FFFFFF" d="M406.799,347.535l7.173-10.245l-6.876-9.646h6.426l3.522,5.469l3.71-5.469h6.184l-6.744,9.421
						l7.359,10.471h-6.464l-4.045-6.162l-4.078,6.162H406.799z"/>
				</g>
			</g>
			<g>
				<path fill="#A5A8A7" d="M442.403,304.027h-50.466c-3.721,0-6.738-3.018-6.738-6.738v-34.479c0-3.721,3.018-6.738,6.738-6.738
					h25.232h25.233c3.721,0,6.738,3.018,6.738,6.738v34.479C449.142,301.015,446.124,304.027,442.403,304.027z"/>
				<path fill="#FFFFFF" d="M407.568,282.482v-4.854h19.198v4.854H407.568z"/>
				<g>
					<circle fill="#FFFFFF" cx="417.17" cy="271.621" r="2.6"/>
					<circle fill="#FFFFFF" cx="417.17" cy="288.484" r="2.6"/>
				</g>
			</g>
		</g>
	</g>
</g>
<g id="calcScreen">
	<path fill="#41464C" d="M461.591,0H138.404c-7.893,0-14.285,6.392-14.285,14.285v35.928v114.673h351.756V14.285
		C475.875,6.392,469.483,0,461.591,0z"/>
	<g>
		<rect x="315.699" y="110.154" fill="#D1C3B8" width="133.476" height="26.695"/>
		<g>
			<path fill="#A2968C" d="M344.176,136.185h-23.578c-2.243,0-4.062-1.819-4.062-4.062v-17.236c0-2.242,1.819-4.062,4.062-4.062
				h9.805h13.773c2.242,0,4.062,1.819,4.062,4.062v17.236C348.237,134.365,346.418,136.185,344.176,136.185z"/>
			<path fill="#A2968C" d="M377.543,136.185h-23.578c-2.243,0-4.062-1.819-4.062-4.062v-17.236c0-2.242,1.819-4.062,4.062-4.062
				h9.805h13.773c2.242,0,4.062,1.819,4.062,4.062v17.236C381.609,134.365,379.791,136.185,377.543,136.185z"/>
			<path fill="#A2968C" d="M410.916,136.185h-23.579c-2.242,0-4.056-1.819-4.056-4.062v-17.236c0-2.242,1.813-4.062,4.056-4.062
				h9.806h13.773c2.242,0,4.062,1.819,4.062,4.062v17.236C414.978,134.365,413.158,136.185,410.916,136.185z"/>
			<path fill="#A2968C" d="M444.283,136.185h-23.578c-2.238,0-4.057-1.819-4.057-4.062v-17.236c0-2.242,1.818-4.062,4.057-4.062
				h9.81h13.769c2.242,0,4.062,1.819,4.062,4.062v17.236C448.345,134.365,446.525,136.185,444.283,136.185z"/>
		</g>
	</g>
	<path fill="#CDCECB" d="M446.597,88.56H153.403c-4.034,0-7.299-3.265-7.299-7.293V29.905c0-4.029,3.265-7.299,7.299-7.299h293.194
		c4.023,0,7.294,3.27,7.294,7.299v51.362C453.891,85.295,450.62,88.56,446.597,88.56z"/>
</g>
<g enable-background="new    ">
	<path d="M150.229,48.661v-13.74h1.717v13.74H150.229z M151.947,33.203h6.87v1.718h-6.87V33.203z M158.817,48.661v1.718h-6.87
		v-1.718H158.817z M160.535,34.921v3.435h-1.718v-3.435H160.535z M158.817,45.226h1.718v3.435h-1.718V45.226z"/>
	<path d="M163.97,48.661v-13.74h1.717v13.74H163.97z M165.687,33.203h6.87v1.718h-6.87V33.203z M172.557,48.661v1.718h-6.87v-1.718
		H172.557z M172.557,34.921h1.718v13.74h-1.718V34.921z"/>
	<path d="M184.581,33.203v1.718h1.717v1.718h1.718v10.305h-1.718v1.717h-1.717v-1.717h1.717V36.639h-1.717v-1.718h-5.153v13.74
		h5.153v1.718h-6.87V33.203H184.581z"/>
	<path d="M193.168,50.379v-1.718h3.435v-13.74h-3.435v-1.718h8.588v1.718h-3.435v13.74h3.435v1.718H193.168z"/>
	<path d="M206.909,33.203v1.718h1.718v3.435h1.717v3.435h1.718v3.435h1.717V33.203h1.718v17.176h-1.718v-1.718h-1.717v-3.435h-1.718
		v-3.435h-1.717v-3.435h-1.718v12.023h-1.717V33.203H206.909z"/>
	<path d="M218.932,48.661v-13.74h1.717v13.74H218.932z M220.649,33.203h6.87v1.718h-6.87V33.203z M225.802,48.661v1.718h-5.153
		v-1.718H225.802z M225.802,48.661v-1.717h1.717v-3.435h-3.435v-1.718h5.153v8.588h-1.718v-1.718H225.802z M229.237,34.921v3.435
		h-1.718v-3.435H229.237z"/>
	<path d="M253.283,43.509v5.152h-1.718v-5.152h-5.152v-1.718h5.152v-5.152h1.718v5.152h5.152v1.718H253.283z"/>
	<path d="M273.894,48.661v-13.74h1.717v13.74H273.894z M275.611,33.203h6.87v1.718h-6.87V33.203z M282.481,48.661v1.718h-6.87
		v-1.718H282.481z M284.199,34.921v3.435h-1.718v-3.435H284.199z M282.481,45.226h1.718v3.435h-1.718V45.226z"/>
	<path d="M287.634,48.661v-13.74h1.717v13.74H287.634z M289.351,33.203h6.87v1.718h-6.87V33.203z M296.221,48.661v1.718h-6.87
		v-1.718H296.221z M296.221,34.921h1.718v13.74h-1.718V34.921z"/>
	<path d="M301.375,50.379V33.203h1.717v15.458h8.588v1.718H301.375z"/>
	<path d="M315.115,50.379V33.203h1.717v15.458h8.588v1.718H315.115z"/>
	<path d="M330.572,38.356v3.435h6.871v-3.435h1.717v12.023h-1.717v-6.87h-6.871v6.87h-1.717V38.356H330.572z M330.572,34.921h1.719
		v3.435h-1.719V34.921z M332.291,33.203h3.435v1.718h-3.435V33.203z M335.726,38.356v-3.435h1.718v3.435H335.726z"/>
	<path d="M351.184,33.203v1.718h1.717v5.153h-1.717v-5.153h-6.871v5.153h6.871v1.717h1.717v6.87h-1.717v-6.87h-6.871v6.87h6.871
		v1.718h-8.588V33.203H351.184z"/>
	<path d="M356.336,48.661v-13.74h1.718v13.74H356.336z M358.054,33.203h6.87v1.718h-6.87V33.203z M364.924,48.661v1.718h-6.87
		v-1.718H364.924z M364.924,34.921h1.718v13.74h-1.718V34.921z"/>
	<path d="M378.664,33.203v1.718h1.718v5.153h-1.718v-5.153h-6.87v5.153h6.87v1.717h-1.717v1.718h1.717v3.435h1.718v3.435h-1.718
		v-3.435h-1.717v-3.435h-1.719v-1.718h-3.435v8.588h-1.718V33.203H378.664z"/>
	<path d="M385.534,38.356v3.435h6.87v-3.435h1.718v12.023h-1.718v-6.87h-6.87v6.87h-1.718V38.356H385.534z M385.534,34.921h1.718
		v3.435h-1.718V34.921z M387.252,33.203h3.436v1.718h-3.436V33.203z M390.688,38.356v-3.435h1.717v3.435H390.688z"/>
	<path d="M404.428,34.921v15.458h-1.718V34.921h-5.152v-1.718h12.022v1.718H404.428z"/>
	<path d="M413.016,50.379v-1.718h3.435v-13.74h-3.435v-1.718h8.587v1.718h-3.435v13.74h3.435v1.718H413.016z"/>
	<path d="M425.038,48.661v-13.74h1.718v13.74H425.038z M426.756,33.203h6.87v1.718h-6.87V33.203z M433.626,48.661v1.718h-6.87
		v-1.718H433.626z M433.626,34.921h1.717v13.74h-1.717V34.921z"/>
	<path d="M440.497,33.203v1.718h1.717v3.435h1.718v3.435h1.718v3.435h1.718V33.203h1.717v17.176h-1.717v-1.718h-1.718v-3.435h-1.718
		v-3.435h-1.718v-3.435h-1.717v12.023h-1.718V33.203H440.497z"/>
</g>
<g enable-background="new    ">
	<path d="M253.28,73.054v-1.718h10.305v1.718H253.28z M253.28,79.924v-1.718h10.305v1.718H253.28z"/>
</g>
<g enable-background="new    ">
	<path fill="#FF0000" d="M284.2,79.924v-1.718h-1.718v-1.717h-1.717v-6.87h1.717v-1.718h3.435v1.718h1.718v-1.718h3.435v1.718h1.717
		v6.87h-1.717v1.717h-1.718v1.718h-1.717v3.435h-1.718v-3.435H284.2z"/>
</g>
<g enable-background="new    ">
	<path fill="#FFFF00" d="M327.139,71.336v1.718h-1.719v3.435h1.719v1.717h1.717v3.435h-3.436v-1.717h-3.435v-1.718h-1.718v-1.717
		h-1.717v1.717h-1.719v1.718h-3.435v1.717h-3.435v-3.435h1.717v-1.717h1.718v-3.435h-1.718v-1.718h-1.717v-1.717h6.869v-3.436h1.719
		v-1.717h1.717v1.717h1.718v3.436h6.87v1.717H327.139z"/>
</g>
<g enable-background="new    ">
	<path fill="#0000FF" d="M347.75,78.207v-8.587h1.718v8.587H347.75z M349.468,67.901h1.718v1.718h-1.718V67.901z M349.468,79.924
		v-1.718h1.718v1.718H349.468z M351.186,66.184h6.869v1.718h-6.869V66.184z M351.186,73.054v-1.718h1.717v1.718H351.186z
		 M351.186,76.489v-1.718h1.717v1.718H351.186z M358.055,79.924v1.717h-6.869v-1.717H358.055z M356.338,76.489v1.717h-3.436v-1.717
		H356.338v-1.718h1.717v1.718H356.338z M356.338,73.054v-1.718h1.717v1.718H356.338z M358.055,69.619v-1.718h1.719v1.718H358.055z
		 M358.055,78.207h1.719v1.718h-1.719V78.207z M359.773,69.619h1.717v8.587h-1.717V69.619z"/>
</g>
</svg>
