<?xml version="1.0" encoding="utf-8"?>
<!-- Generator: Adobe Illustrator 16.0.0, SVG Export Plug-In . SVG Version: 6.00 Build 0)  -->
<!DOCTYPE svg PUBLIC "-//W3C//DTD SVG 1.1//EN" "http://www.w3.org/Graphics/SVG/1.1/DTD/svg11.dtd">
<svg version="1.1" id="Layer_1" xmlns="http://www.w3.org/2000/svg" xmlns:xlink="http://www.w3.org/1999/xlink" x="0px" y="0px"
	 width="40px" height="56.189px" viewBox="-5.062 -4.999 40 56.19" enable-background="new 0 0 40 56.189" xml:space="preserve">
<path fill="#FDFDFD" stroke="#FDFDFD" stroke-miterlimit="10" d="M3.229,8.503c-0.943,1.234-1.101,3.708-0.157,5.564
	c0.628,1.443,1.729,2.266,2.987,2.266c0.256,0,0.518-0.062,0.797-0.15c0.646,5.12,3.934,8.602,7.849,8.602h3.616
	c3.929,0,7.231-3.709,7.861-8.655l1.256-9.067c0-0.618,0-1.03-0.313-1.441c-0.313-0.413-0.629-0.619-1.101-0.619H7.001
	c-0.471,0-0.786,0.206-1.1,0.619C5.587,6.031,5.587,6.649,5.587,7.062L5.646,7.48C4.885,7.287,4.011,7.478,3.229,8.503L3.229,8.503z
	 M8.417,15.922L7.316,7.267h18.393l-1.102,8.655c-0.472,4.12-3.145,7.006-6.288,7.006h-3.616
	C11.561,22.928,8.889,20.042,8.417,15.922z M4.487,9.74c0.591-0.776,1.094-0.5,1.44-0.229l0.627,4.522
	c-1.173,0.213-1.797-0.491-2.067-1.203C4.015,11.799,4.015,10.357,4.487,9.74z"/>
<path fill="#FDFDFD" stroke="#FDFDFD" stroke-miterlimit="10" d="M5.43,28.971c0,0.618,0.315,1.03,0.786,1.03h20.437
	c0.473,0,0.787-0.412,0.787-1.03c0-0.619-0.314-1.03-0.787-1.03H6.216C5.745,27.941,5.43,28.352,5.43,28.971z"/>
</svg>
