<?xml version="1.0" encoding="utf-8"?>
<!-- Generator: Adobe Illustrator 16.0.0, SVG Export Plug-In . SVG Version: 6.00 Build 0)  -->
<!DOCTYPE svg PUBLIC "-//W3C//DTD SVG 1.1//EN" "http://www.w3.org/Graphics/SVG/1.1/DTD/svg11.dtd">
<svg version="1.1" id="Layer_1" xmlns="http://www.w3.org/2000/svg" xmlns:xlink="http://www.w3.org/1999/xlink" x="0px" y="0px"
	 width="40px" height="38px" viewBox="-10 -5 40 38" enable-background="new 0 0 40 38" xml:space="preserve">
<path fill="#fdfdfd" d="M11,14H9v2h2V14z M13,14v2h2c0.553,0,1,0.447,1,1s-0.447,1-1,1H5c-0.552,0-1-0.447-1-1s0.448-1,1-1h2v-2H2
	c-1.104,0-2-0.896-2-2V2c0-1.1,0.9-2,2-2h16c1.104,0,2,0.896,2,2v10c0,1.104-0.896,2-2,2H13z M2,2v10h16V2H2z"/>
</svg>
