<?xml version="1.0" encoding="utf-8"?>
<!-- Generator: Adobe Illustrator 16.0.0, SVG Export Plug-In . SVG Version: 6.00 Build 0)  -->
<!DOCTYPE svg PUBLIC "-//W3C//DTD SVG 1.1//EN" "http://www.w3.org/Graphics/SVG/1.1/DTD/svg11.dtd">
<svg version="1.1" id="Layer_1" xmlns="http://www.w3.org/2000/svg" xmlns:xlink="http://www.w3.org/1999/xlink" x="0px" y="0px"
	 width="16px" height="40px" viewBox="0 -5 16 40" enable-background="new 0 0 16 40" xml:space="preserve">
<path fill="#FDFDFD" d="M2,0h9c0.264,0.004,0.516,0.111,0.7,0.3l4,4C15.889,4.484,15.996,4.736,16,5v13c0,1.104-0.896,2-2,2H2
	c-1.104,0-2-0.896-2-2V2C0,0.9,0.9,0,2,0z M11,2.41V5h2.59L11,2.41z M14,7h-3C9.896,7,9,6.104,9,5V2H2v16h12V7z M12,14
	c0,0.553-0.447,1-1,1H5c-0.552,0-1-0.447-1-1s0.448-1,1-1h6C11.553,13,12,13.447,12,14z M12,10c0,0.553-0.447,1-1,1H5
	c-0.552,0-1-0.447-1-1c0-0.552,0.448-1,1-1h6C11.553,9,12,9.448,12,10z M7,6c0,0.552-0.448,1-1,1H5C4.448,7,4,6.552,4,6s0.448-1,1-1
	h1C6.552,5,7,5.448,7,6z"/>
</svg>
