<svg version="1.1" id="Capa_1" xmlns="http://www.w3.org/2000/svg" xmlns:xlink="http://www.w3.org/1999/xlink" x="0px" y="0px" viewBox="1110.047 0 809.953 1080" enable-background="new 1110.047 0 809.953 1080"
	 xml:space="preserve">
<path fill="red" d="M1121.408,411.071c13.838,16.335,27.676,32.939,41.514,49.545c22.477,27,60.952,34.425,92.205,18.226
	c13.298-6.886,26.527-13.771,38.475-21.735c21.398-13.567,45.766-16.335,69.863-10.8c41.58,10.867,77.761,0,111.443-25.785
	c6.817-5.535,13.433-10.801,20.25-16.336l-109.553,141.751c-11.948,15.458-25.785,29.633-40.973,42.053
	c0,0-31.523,27.54-61.224,56.971c-29.7,29.43-24.907,69.593-24.907,69.593v95.445h594.071V683.436c0-1.351,0-2.768,0-5.535
	c-1.418-47.453,0-93.758-2.768-141.481c-2.431-62.37-9.315-123.728-24.098-185.019c-13.433-57.172-30.646-114.278-65.746-163.418
	c-32.265-46.306-69.795-79.043-130.343-76.275c-40.5,1.35-72.562-13.635-92.813-54.405c-14.782-28.553-40.298-46.306-71.213-55.756
	c-13.433-4.117-20.25,0-18.899,12.218c7.897,49.141-11.003,87.143-49.883,117.046c-89.641,70.673-178.269,141.278-268.247,211.951
	C1107.031,359.636,1103.791,390.214,1121.408,411.071z"/>
<path d="M1182.496,1064.002c6.21,9.923,17.078,15.998,28.756,15.998h675.004c11.678,0,22.545-6.143,28.688-16.065
	c6.143-9.922,6.75-22.343,1.484-32.805l-67.5-135.001c-5.737-11.407-17.415-18.63-30.173-18.63h-540.003
	c-12.758,0-24.436,7.223-30.173,18.63l-67.5,135.068C1175.813,1041.66,1176.354,1054.08,1182.496,1064.002z"/>
</svg>
