<?xml version="1.0" encoding="utf-8"?>
<!-- Generator: Adobe Illustrator 16.0.0, SVG Export Plug-In . SVG Version: 6.00 Build 0)  -->
<!DOCTYPE svg PUBLIC "-//W3C//DTD SVG 1.1//EN" "http://www.w3.org/Graphics/SVG/1.1/DTD/svg11.dtd">
<svg version="1.1" id="Layer_1" xmlns="http://www.w3.org/2000/svg" xmlns:xlink="http://www.w3.org/1999/xlink" x="0px" y="0px"
	 width="100px" height="100px" viewBox="0 0 100 100" enable-background="new 0 0 100 100" xml:space="preserve">
<g>
	<path fill="#FDFDFD" d="M100,56c0,14.667,0,29.333,0,44c-33.333,0-66.667,0-100,0C0,69.333,0,38.667,0,8c5.333,0,10.667,0,16,0
		c0,2.619,0,5.464,0,8h8.191c0,2.561,0,5.453,0,8.054c2.64,0,5.091,0,7.877,0c0,5.398,0,10.637,0,16.029c2.792,0,5.242,0,8.029,0
		c0,5.399,0,10.638,0,16.028c2.794,0,5.245,0,8.029,0c0,5.399,0,10.64,0,15.738c5.456,0,10.567,0,16.022,0c0-2.722,0-5.299,0-8.016
		c5.461,0,10.576,0,15.688,0c0.531-2.693-0.324-5.354,0.497-7.836C87.025,56,93.513,56,100,56z"/>
	<path fill="#CCCCCC" d="M16,8c5.148,0,10.297,0,15.797,0c0,2.533,0,5.094,0,7.824c5.446,0,10.549,0,15.776,0
		c0.963,2.646,0.014,5.307,0.61,8.001c2.398,0,4.847,0,7.469,0c0.771,2.668,0.021,5.312,0.49,8.011c5.127,0,10.231,0,15.685,0
		c0,2.71,0,5.277,0,8.006c2.782,0,5.231,0,8.024,0c0,2.715,0,5.289,0,8.158c6.94,0,13.545,0,20.146,0c0,2.667,0,5.333,0,8
		c-6.487,0-12.977,0-19.664,0c-0.821,2.484,0.034,5.143-0.497,7.836c-5.114,0-10.229,0-15.688,0c0,2.717,0,5.294,0,8.014
		c-5.455,0-10.567,0-16.022,0c0-5.099,0-10.337,0-15.736c-2.784,0-5.235,0-8.029,0c0-5.393,0-10.629,0-16.028
		c-2.787,0-5.237,0-8.029,0c0-5.393,0-10.631,0-16.029c-2.786,0-5.237,0-7.877,0c0-2.601,0-5.493,0-8.054H16
		C16,13.464,16,10.619,16,8z"/>
	<path fill="#CCCCCC" d="M16,0c0,2.667,0,5.333,0,8C10.667,8,5.333,8,0,8c0-2.667,0-5.333,0-8C5.333,0,10.667,0,16,0z"/>
</g>
</svg>
