<?xml version="1.0" encoding="utf-8"?>
<!-- Generator: Adobe Illustrator 16.0.0, SVG Export Plug-In . SVG Version: 6.00 Build 0)  -->
<!DOCTYPE svg PUBLIC "-//W3C//DTD SVG 1.1//EN" "http://www.w3.org/Graphics/SVG/1.1/DTD/svg11.dtd">
<svg version="1.1" id="Layer_1" xmlns="http://www.w3.org/2000/svg" xmlns:xlink="http://www.w3.org/1999/xlink" x="0px" y="0px"
	 width="100px" height="100.014px" viewBox="0 0 100 100.014" enable-background="new 0 0 100 100.014" xml:space="preserve">
<path fill="#41484D" d="M53.111,68.707C41.463,58.418,32.265,1.482,1.899,0.04C1.29,0.021,0.664,0.01,0,0.014V100h100V56.771
	C92.365,52.87,62.5,70.04,53.111,68.707z"/>
<linearGradient id="SVGID_1_" gradientUnits="userSpaceOnUse" x1="-2204.3438" y1="83.6917" x2="-2224.7188" y2="53.0392" gradientTransform="matrix(1 0 0 -1 2257 109.5298)">
	<stop  offset="0" style="stop-color:#E3E3E3"/>
	<stop  offset="0.1417" style="stop-color:#919191"/>
	<stop  offset="0.1441" style="stop-color:#949494"/>
	<stop  offset="0.1779" style="stop-color:#B5B5B5"/>
	<stop  offset="0.2142" style="stop-color:#D0D0D0"/>
	<stop  offset="0.2536" style="stop-color:#E5E5E5"/>
	<stop  offset="0.2976" style="stop-color:#F4F4F4"/>
	<stop  offset="0.3496" style="stop-color:#FCFCFC"/>
	<stop  offset="0.4301" style="stop-color:#FFFFFF"/>
	<stop  offset="0.9728" style="stop-color:#949494"/>
</linearGradient>
<path fill="url(#SVGID_1_)" d="M1.899,0.04C32.265,1.48,41.462,58.418,53.111,68.707C62.5,70.04,92.365,52.87,100,56.771
	c-1.878-1.315-8.799-2.432-84.337-52.34C11.289,1.542,7.754,0.228,1.899,0.04z"/>
<path id="corner-color-filter" opacity="0.5" fill="#41484D" enable-background="new    " d="M1.899,0
	C32.265,1.44,41.462,58.378,53.111,68.667C62.5,70,92.365,52.83,100,56.731c-1.878-1.315-8.799-2.432-84.337-52.34
	C11.289,1.502,7.754,0.188,1.899,0z"/>
</svg>
