<?xml version="1.0" encoding="utf-8"?>
<!-- Generator: Adobe Illustrator 16.0.0, SVG Export Plug-In . SVG Version: 6.00 Build 0)  -->
<!DOCTYPE svg PUBLIC "-//W3C//DTD SVG 1.1//EN" "http://www.w3.org/Graphics/SVG/1.1/DTD/svg11.dtd">
<svg version="1.1" id="Layer_1" xmlns="http://www.w3.org/2000/svg" xmlns:xlink="http://www.w3.org/1999/xlink" x="0px" y="0px"
	 width="100px" height="100px" viewBox="0 0 100 100" enable-background="new 0 0 100 100" xml:space="preserve">
<g>
	<path fill="#F7DF97" d="M100,56c0,14.667,0,29.333,0,44c-33.333,0-66.667,0-100,0C0,69.333,0,38.667,0,8c5.333,0,10.667,0,16,0
		c0,2.619,0,5.464,0,8h8.191c0,2.561,0,5.453,0,8.054c2.64,0,5.091,0,7.877,0c0,5.398,0,10.637,0,16.029c2.792,0,5.242,0,8.029,0
		c0,5.399,0,10.638,0,16.028c2.794,0,5.245,0,8.029,0c0,5.401,0,10.64,0,15.738c5.456,0,10.568,0,16.023,0c0-2.72,0-5.297,0-8.014
		c5.461,0,10.575,0,15.689,0c0.531-2.694-0.324-5.352,0.497-7.836C87.025,56,93.513,56,100,56z"/>
	<path fill-rule="evenodd" clip-rule="evenodd" fill="#F9E9B9" d="M16,8c5.148,0,10.297,0,15.797,0c0,2.533,0,5.094,0,7.824
		c5.446,0,10.549,0,15.776,0c0.963,2.647,0.014,5.307,0.61,8.001c2.398,0,4.847,0,7.469,0c0.773,2.668,0.022,5.313,0.491,8.011
		c5.127,0,10.232,0,15.684,0c0,2.71,0,5.277,0,8.006c2.782,0,5.231,0,8.025,0c0,2.715,0,5.289,0,8.158c6.941,0,13.544,0,20.147,0
		c0,2.667,0,5.333,0,8c-6.487,0-12.975,0-19.664,0c-0.821,2.484,0.034,5.142-0.497,7.836c-5.115,0-10.228,0-15.689,0
		c0,2.717,0,5.294,0,8.014c-5.455,0-10.568,0-16.023,0c0-5.099,0-10.337,0-15.738c-2.784,0-5.235,0-8.029,0
		c0-5.391,0-10.629,0-16.028c-2.787,0-5.237,0-8.029,0c0-5.393,0-10.631,0-16.029c-2.786,0-5.237,0-7.877,0c0-2.601,0-5.493,0-8.054
		H16C16,13.464,16,10.619,16,8z"/>
	<path fill-rule="evenodd" clip-rule="evenodd" fill="#F9E9B9" d="M16,0c0,2.667,0,5.333,0,8C10.667,8,5.333,8,0,8
		c0-2.667,0-5.333,0-8C5.333,0,10.667,0,16,0z"/>
</g>
</svg>
