<?xml version="1.0" encoding="utf-8"?>
<!-- Generator: Adobe Illustrator 16.0.0, SVG Export Plug-In . SVG Version: 6.00 Build 0)  -->
<!DOCTYPE svg PUBLIC "-//W3C//DTD SVG 1.1//EN" "http://www.w3.org/Graphics/SVG/1.1/DTD/svg11.dtd">
<svg version="1.1" id="rippedPaperBottom" xmlns="http://www.w3.org/2000/svg" xmlns:xlink="http://www.w3.org/1999/xlink" x="0px"
	 y="0px" width="20px" height="800px" viewBox="0 0 20 800" enable-background="new 0 0 20 800" xml:space="preserve">
<path fill="#F8E098" d="M0,800C0,533.36,0,266.646,0,0c10.504,0-10.503,0,0,0c-0.203,1.979,2.213,4.939,2.625,7.25
	C2.995,9.322,6.079,14.023,5,17.625c-0.409,1.363,4.37,10.07,4,12.125c5.188,4.894-0.765,5.537-2.333,14.25
	c-0.959,5.32-1.534,9.632-2.5,13.833c-0.49,2.146-1.174,10.104-0.5,12.333c0.596,2.853,0.048,2.12,0.167,6.167
	c-4.167,1.334-2.696,6.438-2.802,6.792C0.265,85.709,1.201,86.468,0,88.406c0,0.75,1.788,4.638,1.125,5.156
	c1.613,3.342,3.506,3.428,2.125,9.562c-0.513,2.279-0.945,3.152-0.125,6.625c0.404,0.5-1.903,9.875-1.5,10.375
	c0,3.666-1.625,11.646-1.625,15.312c0.558,2.354-0.476,6.521,0,8.625c-0.27,2.5,0.27,2.125,0,4.625
	c1.083,4.039,1.405-2.027,1.5,5.188c-2.431,2.197,0.869-0.428,0,4c-0.047,0.238-0.442,1.732-0.375,2.25
	c0.167,1.271,0.988,1.158,0.5,3.625c-0.486,2.455,0.957,4.521,0.5,6.5c-0.566,2.459,4.226,5.453,2.875,8
	c-0.681,1.283,0.276,4.803-0.25,6.25c-0.135,1.666,5.123,0.334,4.988,2c-0.539,0.666-1.077,1.334-1.616,2
	c-0.463,2.107,0.928,2.428,1.212,3.5c0,2.5,0,5,0,7.5c0.301,1.217,1.566,2.324,1.212,4.5c-0.402,2.479-2.271,3.354-2.828,5
	c0.136,2.5,0.269,5,0.404,7.5c-0.13,0.652-1.128,2.549-1.212,3c-0.458,2.496,1.175,6.476,1.615,8c0,2.334,0,4.67,0,7
	c0.81,3.387,0.877,8.08,1.617,11.5c0.135,3,0.269,6,0.404,9c0.656,2.076,2.367,5.334,2.828,7.5c0.979,4.59-3.653,14.062-3.232,17.5
	c1.051,8.556,4.6,15.195,5.656,23c0.622,4.572-2.188,8.705-0.808,14c0.729,2.799,1.953,3.689,2.02,8
	c-0.087,0.082-7.229,14.328-7.272,14.5c-0.62,2.576,0.917,9.65,0.404,13.5c-0.231,1.744-1.64,1.166-1.212,3.5
	c0.404,0.5,0.808,1,1.212,1.5c0,4,0,8,0,12c0.54,0.5,1.077,1,1.616,1.5c1.311,2.646,0.61,6.873,0,9.5c0,2.666,0,5.338,0,8
	c-0.727,2.853-3.808,13.675-0.808,16c1.233,1.179,2.762,0.923,3.636,1.5c0.324,0.594,0.312,0.845,0.404,2
	c-1.715,2.2,1.443,7.898,0.808,10c-0.446,1.475-1.528,1.551-1.616,4.5c0.27,0,0.539,0,0.809,0c0.433-0.376,0.384-0.301,1.212-0.5
	c0.288,1.024,0.401,2.341,0.403,4c-0.588,0.573-0.889,1.005-1.615,1.5c2.338,3.663,5.961,16.4,4.04,24
	c-0.41,1.621-2.146,1.688-1.616,4.5c0.27,0.337,0.539,0.671,0.809,1c-0.136,4.166-0.27,8.334-0.404,12.5
	c0.492,1.509,2.811,5.567,2.02,9c-0.404,0.5-0.808,1-1.212,1.5c-0.135,2.5-0.269,5-0.403,7.5c-0.404,0.5-0.809,1-1.213,1.5
	c-0.845,2.688-0.013,5.186-0.808,7.5c-0.562,1.646-2.003,2.621-2.425,4.5c-0.135,4.166-0.269,8.334-0.403,12.5
	c-0.228,0.951-1.399,1.863-1.616,2.5c0,2.833,0,5.667,0,8.5c1.587,1.544,4.225,6.576,4.848,9c-0.135,5-0.269,10-0.403,15
	c0.403,0.333,0.808,0.667,1.212,1c2.143,5.854-2.662,14.461-4.04,18c-0.99,2.541,1.249,3.66,0.808,6
	c-0.629,3.339-2.964,7.41-3.231,11.5c4.103,3.645,0.198,8.567-0.404,13.5c-0.599,4.896,3.854,8.296,2.021,14
	c-0.848,2.632-3.562,6.404-2.424,11.5c0.706,3.154,3.326,6.271,4.042,9.5c0.645,2.915-0.819,5.877-1.213,8
	c-1.045,5.646,2.139,8.438,1.213,13c-0.416,2.042-1.871,3.28-2.426,5c-0.824,2.586-0.584,4.607-1.616,7
	c-0.538,0.667-1.078,1.333-1.615,2c0,4,0,8,0,12c-0.217,0.788-1.4,1.711-1.616,2.5c-0.621,2.288-5.116,13.292-4.536,15
	c0.437,1.283-0.387,4.475,0,6.25c0.569,2.605,0.379,3.018,0.25,5.5c1.281,0.985-0.308,4.652,0.75,5.875
	c0.044,5.542-0.816,6.581-1.125,10.875c1.388,1.059,0.299,2.689,0.375,5.5c-0.857,1.018,0.018,2.1-0.125,4.125
	c1.151,0.986-0.119,2.381-0.125,4.875c-1.59,1.993,0.176,2.271-0.625,5.625c-0.441,1.854-2.554,6.586-1.75,9.374
	c0.188,0.654-0.112,5.606,0,6.585c0.29,2.529-0.015,4.321,1.25,7.5c1.548,3.893,3.217,3.38,3.5,8.666
	C1.625,790.25,1.125,794.875,0,800C-10.369,800,10.37,800,0,800z"/>
</svg>
