<?xml version="1.0" encoding="utf-8"?>
<!-- Generator: Adobe Illustrator 16.0.0, SVG Export Plug-In . SVG Version: 6.00 Build 0)  -->
<!DOCTYPE svg PUBLIC "-//W3C//DTD SVG 1.1//EN" "http://www.w3.org/Graphics/SVG/1.1/DTD/svg11.dtd">
<svg version="1.1" id="Layer_1" xmlns="http://www.w3.org/2000/svg" xmlns:xlink="http://www.w3.org/1999/xlink" x="0px" y="0px"
	 width="345.869px" height="782.153px" viewBox="0 0 345.869 782.153" enable-background="new 0 0 345.869 782.153"
	 xml:space="preserve">
<g>
	
		<linearGradient id="SVGID_1_" gradientUnits="userSpaceOnUse" x1="178.7017" y1="528.3271" x2="188.3612" y2="11.5291" gradientTransform="matrix(0.9998 -0.0218 0.0218 0.9998 -16.0957 21.5073)">
		<stop  offset="0" style="stop-color:#C5944A"/>
		<stop  offset="0.1134" style="stop-color:#CFA35F"/>
		<stop  offset="0.2812" style="stop-color:#DDB87A"/>
		<stop  offset="0.4208" style="stop-color:#E6C68B"/>
		<stop  offset="0.514" style="stop-color:#EACB91"/>
		<stop  offset="0.6391" style="stop-color:#E8C98F"/>
		<stop  offset="0.732" style="stop-color:#E3C286"/>
		<stop  offset="0.8144" style="stop-color:#DCB779"/>
		<stop  offset="0.8908" style="stop-color:#D2A866"/>
		<stop  offset="0.9624" style="stop-color:#C7974F"/>
		<stop  offset="1" style="stop-color:#C08D41"/>
	</linearGradient>
	<path fill="url(#SVGID_1_)" d="M345.75,28.976c0.076,5.183-1.299,10.547-4.457,14.531c-0.835,1.062-1.82,2.054-2.921,2.898
		c-4.733,3.572-11.062,4.12-16.983,4.511c-8.38,0.593-16.796,1.187-25.175,1.78c11.746,3.286,21.453,8.893,33.162,12.182
		c3.04,0.865,6.27,1.84,8.662,3.839c0.682,0.47,1.293,1.128,1.831,1.862c2.193,3.085,2.208,7.188,2.18,10.992
		c-0.232,13.283-0.466,26.566-0.66,39.85c-3.995-0.174-8.27,0.516-12.335,0.492c-0.634,0.051-1.193,0.026-1.791,0.002
		c0.535,0.585,0.997,1.209,1.421,1.871c2.236,3.346,3.365,7.2,6.156,10.347c-2.794,0.136-5.552,0.271-8.346,0.405
		c-8.831,0.417-17.66,0.87-26.454,1.286c7.789,3.112,14.529,7.776,22.355,10.889c0.519-0.161,1.074-0.322,1.593-0.521
		c1.889-0.601,3.74-1.199,5.667-1.802c0.852,4.83,1.703,9.698,2.555,14.528c2.522,1.063,5.082,2.127,7.643,3.228
		c-0.623,0.536-1.245,1.071-1.829,1.644c-0.868,9.828-0.438,17.614-1.305,27.442c-0.115,1.532-0.267,3.176-1.133,4.463
		c-1.659,2.61-5.27,2.95-8.364,3.018c-5.479,0.156-10.959,0.276-16.476,0.434c-2.759,0.06-5.517,0.157-8.275,0.218
		c2.624,0.614,5.174,1.23,7.724,1.846c8.999,2.191,17.664,4.463,26.887,6.612c-0.979,9.868-2.325,19.931-2.221,29.887
		c0.134,14.692,0.269,29.423,0.403,44.152c-3.783,2.693-8.39,5.218-12.209,7.949c4.645,0.906,9.251,1.775,13.858,2.682
		c-3.54,10.409-3.16,20.993-1.097,31.802c-12.668,2.328-27.649,2.916-40.406,1.143c13.562,6.194,26.785,10.493,41.328,13.794
		c1.396,9.257,0.82,18.78-1.744,27.751c-7.886-0.724-17.194,0.002-25.043-0.723c5.521,1.707,10.123,4.106,15.605,5.814
		c0.428,0.773,0.854,1.548,1.244,2.285c-1.209,1.033-2.455,2.067-3.663,3.063c4.99-0.333,10.075,1.981,13.109,5.98
		s3.899,9.501,2.25,14.236c-3.471,1.604-9.542,3.714-13.013,5.318c4.934,2.168,10.951,4.498,15.923,6.702
		c0.164,7.531-1.604,17.043-1.439,24.611c-4.544-3.108-11.826-0.115-14.519,4.718c-11.832-0.376-24.713-0.99-36.545-1.366
		c8.183,2.357,13.892,7.604,22.111,9.924c10.32,2.945,20.867,5.96,29.656,12.184c2.979,10.08,2.29,21.21-2.655,30.493
		c-7.615-2.034-16.89-3.138-24.468-5.173c7.61,3.489,14.117,9.39,21.728,12.879c-3.106,1.261-5.079,4.848-4.522,8.154
		c0.595,3.307,3.675,6,7.033,6.113c0.558,10.133,0.402,20.132,0.959,30.266c-5.101,2.125-10.95,2.438-16.051,4.563
		c5.953,1.027,11.906,2.091,17.859,3.117c0.343,8.869-1.602,18.907-1.26,27.74c-15.142-3.362-31.51-4.796-47.021-4.569
		c-97.17,1.298-194.34,2.596-291.51,3.932c4.513-3.418,6.068-9.084,5.721-14.745c10.104-0.221,19.963-3.046,30.065-3.267
		c-10.468-2.83-20.936-5.66-31.44-8.49c0.976-8.264,1.797-18.502,2.736-26.765c1.5,0.415,3,0.792,4.464,1.208
		c1.233-4.987,6.651-8.015,11.794-8.201c2.571-0.094,5.08,0.336,7.558,1.065c-7.636-2.967-15.169-6.346-22.836-8.976
		c2.157-0.309,3.105-2.978,2.909-5.137c-0.196-2.158-1.063-4.303-0.7-6.474c0.296-1.834,2.272-3.519,3.923-3.069
		c-5.125-2.462-7.532-10.205-6.76-15.854c0.512-3.854,2.223-7.545,4.845-10.438c4.81-5.215,12.78-7.402,19.472-5.012
		c-3.84-3.348-8.654-3.467-13.637-4.515c-5.021-1.01-10.579-4.469-10.205-9.587c0.316-4.259,5.066-7.123,9.357-6.992
		c4.293,0.131,8.185,2.433,11.888,4.627c-1.288-9.446-13.565-16.6-22.165-12.459c3.916-27.351,2.736-55.783-1.551-83.066
		c6.547,2.617,12.368,2.752,18.916,5.406c-2.4-2.298-4.837-4.594-7.236-6.892c0.375-1.575,0.789-3.15,1.202-4.726
		c-1.694,2.685-6.308,1.555-7.749-1.286s-0.658-6.252,0.357-9.258c1.054-3.007,2.29-6.167,1.662-9.286
		c-0.461-2.34-1.963-4.545-1.568-6.94c0.66-3.931,5.746-5.049,9.77-5.248c7.451-0.387,14.939-0.773,22.392-1.122
		c-11.226-1.658-22.212-4.328-33.399-5.948c0.002-1.642,0.041-3.246,0.08-4.851c2.146-0.83,4.328-1.661,6.511-2.492
		c-1.599-3.21,0.505-7.657,3.993-8.479c-4.275-6.211-2.263-16.512,4.491-19.792c-5.555,0.122-11.22-6.506-13.567-11.527
		c-2.347-5.021-5.969-12.066-2.52-16.356c2.505-3.15,6.913-4.552,10.846-3.779c-5.124-2.388-10.383-5.816-15.343-7.461
		c7.452-32.873,7.192-66.995,1.248-100.135c8.136,0.232,15.872-2.473,23.923-2.723c-3.972-0.846-7.932-6.279-6.105-9.788
		c-5.45-0.18-11.785-1.646-17.235-1.862c-1.142-4.451-2.284-8.939-3.425-13.39c6.674-8.649,5.447-25.556-1.414-34.022
		c7.97,2.848,15.48,0.073,22.967-3.82c-6.577-0.603-15.203-2.764-21.78-3.367c2.822-3.978,2.055-10.115,0.61-14.783
		c5.1-0.446,10.296-1.604,15.396-2.051l-9.853-5.38c1.479-0.555,2.313-1.692,3.793-2.246c-3.862-2.639-7.761-5.239-11.659-7.877
		c9.494-0.767,18.104-2.745,27.598-3.548c-9.507-1.509-19.123-2.94-28.631-4.449C0.24,14.392,0.231,7.193,0,0
		c0,0,238.352,14.458,344.478,8.229C346.626,14.41,345.608,22.414,345.75,28.976z"/>
	<g opacity="0.45">
		<path opacity="0.27" fill="#A09F9F" d="M335.264,281.861c-3.783,2.693-8.39,5.218-12.209,7.949
			c4.645,0.906,9.251,1.775,13.858,2.682c-3.54,10.409-3.16,20.993-1.097,31.802c-12.668,2.328-27.649,2.916-40.406,1.143
			c13.562,6.194,26.785,10.493,41.328,13.794c1.396,9.257,0.82,18.78-1.744,27.751c-7.886-0.724-17.194,0.002-25.043-0.723
			c5.521,1.707,10.123,4.106,15.605,5.814c0.428,0.773,0.854,1.548,1.244,2.285c-1.209,1.033-2.455,2.067-3.663,3.063
			c4.99-0.333,10.075,1.981,13.109,5.98s3.899,9.501,2.25,14.236c-3.471,1.604-9.542,3.714-13.013,5.318
			c4.934,2.168,10.951,4.498,15.923,6.702c0.164,7.531-1.604,17.043-1.439,24.611c-4.544-3.108-11.826-0.115-14.519,4.718
			c-11.832-0.376-24.713-0.99-36.545-1.366c8.183,2.357,13.892,7.604,22.111,9.924c10.32,2.945,20.867,5.96,29.656,12.184
			c2.979,10.08,2.29,21.21-2.655,30.493c-7.615-2.034-16.89-3.138-24.468-5.173c7.61,3.489,14.117,9.39,21.728,12.879
			c-3.106,1.261-5.079,4.848-4.522,8.154c0.595,3.307,3.675,6,7.033,6.113c0.558,10.133,0.402,20.132,0.959,30.266
			c-5.101,2.125-10.95,2.438-16.051,4.563c5.953,1.027,11.906,2.091,17.859,3.117c0.343,8.869-1.602,18.907-1.26,27.74
			c-15.142-3.362-31.51-4.796-47.021-4.569c-97.17,1.298-194.34,2.596-291.51,3.932c183.259-55.84,269.304-233.801,309.431-376.035
			c8.999,2.191,17.664,4.463,26.887,6.612c-0.979,9.868-2.325,19.931-2.221,29.887C334.995,252.401,335.129,267.132,335.264,281.861
			z"/>
		<path opacity="0.09" fill="#3A2815" d="M334.84,134.133c-2.794,0.136-5.552,0.271-8.346,0.405
			c0.778-3.635,1.483-7.23,2.189-10.752C330.92,127.132,332.049,130.986,334.84,134.133z"/>
		<path opacity="0.09" fill="#3A2815" d="M332.21,158.919c2.522,1.063,5.082,2.127,7.643,3.228
			c-0.623,0.536-1.245,1.071-1.829,1.644c-0.868,9.828-0.438,17.614-1.305,27.442c-0.115,1.532-0.267,3.176-1.133,4.463
			c-1.659,2.61-5.27,2.95-8.364,3.018c-5.479,0.156-10.959,0.276-16.476,0.434c5.156-18.389,9.544-36.126,13.242-52.954
			c1.889-0.601,3.74-1.199,5.667-1.802C330.507,149.221,331.359,154.089,332.21,158.919z"/>
		<path opacity="0.09" fill="#3A2815" d="M339.87,70.579c2.193,3.085,2.208,7.188,2.18,10.992
			c-0.232,13.283-0.466,26.566-0.66,39.85c-3.995-0.174-8.27,0.516-12.335,0.492c3.858-19.74,6.787-37.67,8.984-53.196
			C338.72,69.187,339.332,69.845,339.87,70.579z"/>
		<path opacity="0.09" fill="#3A2815" d="M345.75,28.976c0.076,5.183-1.299,10.547-4.457,14.531
			c2.537-22.21,3.185-35.278,3.185-35.278C346.626,14.41,345.608,22.414,345.75,28.976z"/>
	</g>
	
		<linearGradient id="SVGID_2_" gradientUnits="userSpaceOnUse" x1="265.4146" y1="766.5859" x2="270.5627" y2="530.4976" gradientTransform="matrix(0.9998 -0.0218 0.0218 0.9998 -16.0957 21.5073)">
		<stop  offset="0" style="stop-color:#B3442C"/>
		<stop  offset="0.0781" style="stop-color:#AC422B"/>
		<stop  offset="0.4644" style="stop-color:#903925"/>
		<stop  offset="0.7856" style="stop-color:#803321"/>
		<stop  offset="1" style="stop-color:#7A311F"/>
	</linearGradient>
	<path fill="url(#SVGID_2_)" d="M244.282,782.153c-4.05-8.604-6.753-17.551-8.669-26.724c-4.154-19.887,2.162-40.478,10.582-58.968
		c10.573-23.22,24.555-44.854,33.809-68.631c9.253-23.777,13.448-50.973,3.819-74.6c1.261-3.861,4.715-5.219,8.243-7.231
		c3.792,10.974,5.689,22.599,5.583,34.208c-0.067,7.418-0.946,14.816-2.35,22.102c-6.043,31.371-21.577,59.98-36.899,88.016
		c-5.33,9.753-9.276,17.164-13.265,30.891c-7.422,25.55,2.819,51.682,5.589,56.699L244.282,782.153z"/>
	
		<linearGradient id="SVGID_3_" gradientUnits="userSpaceOnUse" x1="215.7861" y1="694.9668" x2="219.3114" y2="533.3002" gradientTransform="matrix(0.9998 -0.0218 0.0218 0.9998 -16.0957 21.5073)">
		<stop  offset="0" style="stop-color:#B3442C"/>
		<stop  offset="0.0781" style="stop-color:#AC422B"/>
		<stop  offset="0.4644" style="stop-color:#903925"/>
		<stop  offset="0.7856" style="stop-color:#803321"/>
		<stop  offset="1" style="stop-color:#7A311F"/>
	</linearGradient>
	<path fill="url(#SVGID_3_)" d="M149.327,711.632c5.432-17.35,18.377-29.491,33.937-38.896
		c15.559-9.404,32.539-16.298,47.938-25.963c29.08-18.251,45.786-39.409,55.156-73.3c2.126-7.691,3.938-15.833,1.917-23.554
		c-1.88,3.176-5.339,4.991-8.564,6.785c-2.603,16.45-7.449,32.688-16.593,46.609c-9.829,14.964-32.65,32.87-49.904,41.475
		c-28.56,14.243-64.959,30.167-72.77,61.11L149.327,711.632z"/>
	<g>
		<path fill-rule="evenodd" clip-rule="evenodd" fill="#722718" d="M258.511,518.124c10.374-8.032,0.558-15.84,9.035-23.983
			c7.14-6.805,21.976-6.247,24.765,3.458c2.9,10.374,24.317,1.227,24.317,17.067c0,12.939-9.37,16.844-5.354,30.564
			c0.781,2.454,0,8.366-3.458,11.824c-2.9,2.789-6.023,4.239-14.167,4.016c-9.035-0.111-21.194,10.374-29.226-5.354
			c-1.115-2.23-3.569-2.008-5.466-3.123c-2.343-1.45-4.128-4.127-2.454-7.474c3.681-7.697,6.581-7.474-1.45-16.063
			C251.483,525.263,254.161,521.471,258.511,518.124L258.511,518.124z"/>
		<path fill-rule="evenodd" clip-rule="evenodd" fill="#AD3F29" d="M265.874,540.434c-1.115,1.562,1.004,10.598,3.012,11.378
			c2.343,0.781,3.793,1.004,5.801,2.678c5.801,4.908,11.713-0.67,17.067,1.115c2.565,0.781,7.92,1.674,10.15-0.669
			c3.235-3.458,6.47-3.793,4.908-10.263c-1.673-7.697,0.67-6.135-8.589-1.115c-2.678,1.449-20.86,2.23-24.207-0.111
			c-2.677-1.785-3.123-2.455-6.692-2.789C266.989,540.657,265.985,540.211,265.874,540.434L265.874,540.434z"/>
		<path fill-rule="evenodd" clip-rule="evenodd" fill="#E86E57" d="M298.223,556.386c1.45-0.111,2.788-0.559,3.681-1.45
			c2.789-3.012,5.466-3.569,5.354-7.809c-0.78,0.446-1.785,2.343-1.896,2.677c-0.78,1.674-3.234,3.57-4.685,4.128
			C300.231,554.154,299.003,555.382,298.223,556.386L298.223,556.386z"/>
		<path fill-rule="evenodd" clip-rule="evenodd" fill="#E86E57" d="M267.1,549.246c0.558,1.339,1.228,2.343,1.785,2.565
			c2.343,0.781,3.793,1.004,5.801,2.678c2.677,2.23,5.354,2.343,8.031,1.896c-0.558-0.223-1.227-0.335-2.119-0.893
			c-1.785-1.004-5.689-1.674-6.247-2.454c-0.893-1.004-2.343-2.008-3.681-2.343c-2.789-0.558-1.785-1.004-2.678-1.45
			C267.993,549.246,267.546,549.135,267.1,549.246L267.1,549.246z"/>
		<linearGradient id="SVGID_4_" gradientUnits="userSpaceOnUse" x1="269.6147" y1="513.8823" x2="302.1935" y2="546.461">
			<stop  offset="0" style="stop-color:#AD3F29"/>
			<stop  offset="0.0857" style="stop-color:#A23B26"/>
			<stop  offset="0.3452" style="stop-color:#87301F"/>
			<stop  offset="0.561" style="stop-color:#782A1A"/>
			<stop  offset="0.7051" style="stop-color:#722718"/>
			<stop  offset="0.7461" style="stop-color:#782719"/>
			<stop  offset="0.9034" style="stop-color:#8B231C"/>
			<stop  offset="1" style="stop-color:#93211D"/>
		</linearGradient>
		<path fill="url(#SVGID_4_)" d="M285.953,553.262c12.604,0,22.979-10.374,22.979-23.091s-10.375-23.09-22.979-23.09
			c-12.717,0-23.091,10.373-23.091,23.09S273.236,553.262,285.953,553.262L285.953,553.262z"/>
		<path fill-rule="evenodd" clip-rule="evenodd" fill="#5B1311" d="M311.386,545.788c0.558,2.678-0.335,8.031-3.57,11.267
			c-2.9,2.789-6.023,4.239-14.167,4.016c-9.035-0.111-21.194,10.374-29.226-5.354c-1.115-2.23-3.569-2.008-5.466-3.123
			c-2.343-1.45-4.128-4.127-2.454-7.474c1.339-2.789,2.565-4.573,3.234-6.136c0.112,3.682-4.908,6.805,1.228,11.49
			c3.458,2.453,2.677,1.45,5.354,5.354c1.784,2.455,5.354,5.913,8.255,6.359c5.131,0.893,6.357,0.111,14.501-1.228
			c4.462-0.78,8.031-0.669,12.605-2.119c2.677-0.893,5.801-3.013,7.362-5.689C310.159,551.143,310.828,548.354,311.386,545.788
			L311.386,545.788z"/>
		<path fill-rule="evenodd" clip-rule="evenodd" fill="#AD3F29" d="M296.884,502.284c4.127,1.562,10.151,1.449,14.39,3.346
			c1.785,1.674,3.012,3.793,3.682,6.358c0.558,2.343,1.115,5.912-0.446,7.92c-0.558,0.67-1.45,1.674-2.008,0.446
			c-1.896-4.908-6.693-8.478-10.709-11.601C300.565,507.861,298.223,504.626,296.884,502.284L296.884,502.284z"/>
		<path fill-rule="evenodd" clip-rule="evenodd" fill="#AD3F29" d="M258.623,521.693c4.462-2.23,6.916-7.474,7.585-11.824
			c1.228-6.916,1.228-13.721,9.147-16.732c6.582-2.454,13.052,0.335,15.952,7.474c2.342,5.354-7.14-5.131-16.287,4.016
			c-4.016,3.904-10.039,14.837-14.278,16.956C259.292,522.362,257.396,522.251,258.623,521.693L258.623,521.693z"/>
		<path fill-rule="evenodd" clip-rule="evenodd" fill="#E86E57" d="M267.212,503.622c1.004-4.462,2.677-8.366,8.143-10.485
			c5.577-2.119,11.155-0.335,14.502,4.573h-0.112c-4.685-3.346-9.928-2.789-12.716-2.23
			C271.116,496.706,270.112,502.618,267.212,503.622L267.212,503.622z"/>
		<g>
			<linearGradient id="SVGID_5_" gradientUnits="userSpaceOnUse" x1="270.5264" y1="514.8008" x2="301.2814" y2="545.5558">
				<stop  offset="0" style="stop-color:#722718"/>
				<stop  offset="0.0067" style="stop-color:#732718"/>
				<stop  offset="0.442" style="stop-color:#913522"/>
				<stop  offset="0.7882" style="stop-color:#A53C27"/>
				<stop  offset="1" style="stop-color:#AD3F29"/>
			</linearGradient>
			<path fill="url(#SVGID_5_)" d="M285.952,508.423c11.953,0,21.692,9.74,21.692,21.804c0,11.953-9.739,21.692-21.692,21.692
				c-12.063,0-21.803-9.739-21.803-21.692C264.149,518.163,273.888,508.423,285.952,508.423L285.952,508.423z M285.952,509.42
				c-11.51,0-20.807,9.296-20.807,20.807c0,11.399,9.297,20.808,20.807,20.808c11.4,0,20.808-9.408,20.808-20.808
				C306.759,518.716,297.352,509.42,285.952,509.42L285.952,509.42z"/>
		</g>
	</g>
	<g>
		<defs>
			<path id="SVGID_6_" d="M345.75,28.976c0.076,5.183-1.299,10.547-4.457,14.531c-0.835,1.062-1.82,2.054-2.921,2.898
				c-4.733,3.572-11.062,4.12-16.983,4.511c-8.38,0.593-16.796,1.187-25.175,1.78c11.746,3.286,21.453,8.893,33.162,12.182
				c3.04,0.865,6.27,1.84,8.662,3.839c0.682,0.47,1.293,1.128,1.831,1.862c2.193,3.085,2.208,7.188,2.18,10.992
				c-0.232,13.283-0.466,26.566-0.66,39.85c-3.995-0.174-8.27,0.516-12.335,0.492c-0.634,0.051-1.193,0.026-1.791,0.002
				c0.535,0.585,0.997,1.209,1.421,1.871c2.236,3.346,3.365,7.2,6.156,10.347c-2.794,0.136-5.552,0.271-8.346,0.405
				c-8.831,0.417-17.66,0.87-26.454,1.286c7.789,3.112,14.529,7.776,22.355,10.889c0.519-0.161,1.074-0.322,1.593-0.521
				c1.889-0.601,3.74-1.199,5.667-1.802c0.852,4.83,1.703,9.698,2.555,14.528c2.522,1.063,5.082,2.127,7.643,3.228
				c-0.623,0.536-1.245,1.071-1.829,1.644c-0.868,9.828-0.438,17.614-1.305,27.442c-0.115,1.532-0.267,3.176-1.133,4.463
				c-1.659,2.61-5.27,2.95-8.364,3.018c-5.479,0.156-10.959,0.276-16.476,0.434c-2.759,0.06-5.517,0.157-8.275,0.218
				c2.624,0.614,5.174,1.23,7.724,1.846c8.999,2.191,17.664,4.463,26.887,6.612c-0.979,9.868-2.325,19.931-2.221,29.887
				c0.134,14.692,0.269,29.423,0.403,44.152c-3.783,2.693-8.39,5.218-12.209,7.949c4.645,0.906,9.251,1.775,13.858,2.682
				c-3.54,10.409-3.16,20.993-1.097,31.802c-12.668,2.328-27.649,2.916-40.406,1.143c13.562,6.194,26.785,10.493,41.328,13.794
				c1.396,9.257,0.82,18.78-1.744,27.751c-7.886-0.724-17.194,0.002-25.043-0.723c5.521,1.707,10.123,4.106,15.605,5.814
				c0.428,0.773,0.854,1.548,1.244,2.285c-1.209,1.033-2.455,2.067-3.663,3.063c4.99-0.333,10.075,1.981,13.109,5.98
				s3.899,9.501,2.25,14.236c-3.471,1.604-9.542,3.714-13.013,5.318c4.934,2.168,10.951,4.498,15.923,6.702
				c0.164,7.531-1.604,17.043-1.439,24.611c-4.544-3.108-11.826-0.115-14.519,4.718c-11.832-0.376-24.713-0.99-36.545-1.366
				c8.183,2.357,13.892,7.604,22.111,9.924c10.32,2.945,20.867,5.96,29.656,12.184c2.979,10.08,2.29,21.21-2.655,30.493
				c-7.615-2.034-16.89-3.138-24.468-5.173c7.61,3.489,14.117,9.39,21.728,12.879c-3.106,1.261-5.079,4.848-4.522,8.154
				c0.595,3.307,3.675,6,7.033,6.113c0.558,10.133,0.402,20.132,0.959,30.266c-5.101,2.125-10.95,2.438-16.051,4.563
				c5.953,1.027,11.906,2.091,17.859,3.117c0.343,8.869-1.602,18.907-1.26,27.74c-15.142-3.362-31.51-4.796-47.021-4.569
				c-97.17,1.298-194.34,2.596-291.51,3.932c4.513-3.418,6.068-9.084,5.721-14.745c10.104-0.221,19.963-3.046,30.065-3.267
				c-10.468-2.83-20.936-5.66-31.44-8.49c0.976-8.264,1.797-18.502,2.736-26.765c1.5,0.415,3,0.792,4.464,1.208
				c1.233-4.987,6.651-8.015,11.794-8.201c2.571-0.094,5.08,0.336,7.558,1.065c-7.636-2.967-15.169-6.346-22.836-8.976
				c2.157-0.309,3.105-2.978,2.909-5.137c-0.196-2.158-1.063-4.303-0.7-6.474c0.296-1.834,2.272-3.519,3.923-3.069
				c-5.125-2.462-7.532-10.205-6.76-15.854c0.512-3.854,2.223-7.545,4.845-10.438c4.81-5.215,12.78-7.402,19.472-5.012
				c-3.84-3.348-8.654-3.467-13.637-4.515c-5.021-1.01-10.579-4.469-10.205-9.587c0.316-4.259,5.066-7.123,9.357-6.992
				c4.293,0.131,8.185,2.433,11.888,4.627c-1.288-9.446-13.565-16.6-22.165-12.459c3.916-27.351,2.736-55.783-1.551-83.066
				c6.547,2.617,12.368,2.752,18.916,5.406c-2.4-2.298-4.837-4.594-7.236-6.892c0.375-1.575,0.789-3.15,1.202-4.726
				c-1.694,2.685-6.308,1.555-7.749-1.286s-0.658-6.252,0.357-9.258c1.054-3.007,2.29-6.167,1.662-9.286
				c-0.461-2.34-1.963-4.545-1.568-6.94c0.66-3.931,5.746-5.049,9.77-5.248c7.451-0.387,14.939-0.773,22.392-1.122
				c-11.226-1.658-22.212-4.328-33.399-5.948c0.002-1.642,0.041-3.246,0.08-4.851c2.146-0.83,4.328-1.661,6.511-2.492
				c-1.599-3.21,0.505-7.657,3.993-8.479c-4.275-6.211-2.263-16.512,4.491-19.792c-5.555,0.122-11.22-6.506-13.567-11.527
				c-2.347-5.021-5.969-12.066-2.52-16.356c2.505-3.15,6.913-4.552,10.846-3.779c-5.124-2.388-10.383-5.816-15.343-7.461
				c7.452-32.873,7.192-66.995,1.248-100.135c8.136,0.232,15.872-2.473,23.923-2.723c-3.972-0.846-7.932-6.279-6.105-9.788
				c-5.45-0.18-11.785-1.646-17.235-1.862c-1.142-4.451-2.284-8.939-3.425-13.39c6.674-8.649,5.447-25.556-1.414-34.022
				c7.97,2.848,15.48,0.073,22.967-3.82c-6.577-0.603-15.203-2.764-21.78-3.367c2.822-3.978,2.055-10.115,0.61-14.783
				c5.1-0.446,10.296-1.604,15.396-2.051l-9.853-5.38c1.479-0.555,2.313-1.692,3.793-2.246c-3.862-2.639-7.761-5.239-11.659-7.877
				c9.494-0.767,18.104-2.745,27.598-3.548c-9.507-1.509-19.123-2.94-28.631-4.449C0.24,14.392,0.231,7.193,0,0
				c0,0,238.352,14.458,344.478,8.229C346.626,14.41,345.608,22.414,345.75,28.976z"/>
		</defs>
		<clipPath id="SVGID_7_">
			<use xlink:href="#SVGID_6_"  overflow="visible"/>
		</clipPath>
		<g opacity="0.3" clip-path="url(#SVGID_7_)">
			<path fill="#A09F9F" d="M-2.13,333.798c-0.258,3.029,2.625,1.615,4.076,2.994c0.131,0.628,0.341,1.633,0.576,2.762
				c0.936,0.936,1.976,1.976,3.045,3.045c1.434,0,2.897,0,4.393,0c0.756-0.684,1.542-1.396,2.328-2.109
				c0.525,0.525,1.046,1.046,1.922,1.922c0.626-0.49,1.232-1.216,2.004-1.502c0.902-0.335,1.948-0.287,2.846-0.395
				c1.02,2.045,1.259,4.191,3.025,5.641c-3.854,2.028-7.964-0.075-12.896,1.783c-0.564,0.537-2.138,2.033-3.697,3.517
				c-3.18,0.392-4.148-2.542-6.621-4.38c-1.941,0-4.409,0-6.486,0c-0.909-0.909-1.43-1.43-2.096-2.097
				c-0.735,0.612-1.484,1.236-2.297,1.913c-2.371,0.118-4.846,0.242-7.353,0.367c-0.106,2.857,1.805,1.659,3.429,2.227
				c0.168,0.918,0.397,2.167,0.669,3.658c-1.497,0.31-2.503,0.518-3.819,0.79c-0.369,1.047-0.82,2.326-1.271,3.606
				c-2.073,1.59-3.271,0.025-4.579-1.293c-2.219,0.487-2.814,2.943-5.77,3.97c-1.067,0-3.254,0-5.595,0
				c-0.678-0.63-1.473-1.368-2.815-2.615c-1.175,1.688-2.384,3.422-3.902,5.601c-0.82-2.189-1.296-3.461-1.845-4.927
				c-0.923,0-1.919,0-2.743,0c-1.632,1.746-0.457,3.693-0.953,5.39c-1.039,1.04-2.079,2.081-3.36,3.361
				c-0.873-1.125-1.746-2.25-2.785-3.59c0.34-0.413,0.953-1.157,1.585-1.925c-0.107-0.2-0.232-0.679-0.389-0.688
				c-3.934-0.26-7.872-0.471-11.396-0.668c-2.029,1.917-0.859,3.873-1.257,5.611c-2.062,2.364-4.799,0.684-7.372,1.182
				c-0.725-0.599-1.541-1.271-2.366-1.953c-2.667,2.471-2.667,2.471-3.862,5.618c-1.946,1.379-4.186,0.522-6.294,0.683
				c-1.825,0.139-3.67,0.029-5.482,0.029c-0.543,0.543-1.063,1.062-1.583,1.584c-0.649,0.209-1.298,0.593-1.949,0.596
				c-7.703,0.043-15.407,0.027-22.958,0.027c-0.672-0.672-1.192-1.191-2.018-2.018c-2.154-0.105-4.628-0.226-7.389-0.36
				c-0.235-1.048-0.459-2.048-0.767-3.42c-0.773-0.724-1.845-1.726-3.119-2.917c-4.837,0-9.957,0-15.078,0
				c-0.859-0.762-1.663-1.475-2.506-2.223c-0.738,0.675-1.516,1.387-2.287,2.092c-1.463,0-2.93,0-3.629,0
				c-2.465-1.269-4.316-2.221-6.174-3.175c0-1.412,0-2.861,0-4.483c0.612-0.664,1.346-1.461,2.084-2.263
				c-2.188-2.426-3.717-0.727-5.356,0.993c-0.756-0.654-1.516-1.313-2.304-1.997c-1.519,1.438-3.076,2.911-4.466,4.227
				c-2.413,0-4.595,0-6.685,0c-1.132-1.132-2.172-2.173-3.214-3.213c-0.002-0.734-0.002-1.47-0.002-2.258
				c-1.502-0.757-3.032-1.506-4.537-2.304c-0.311-0.164-0.528-0.506-0.887-0.865c-2.08,0-4.259,0-6.66,0
				c-0.629,0.568-1.43,1.29-2.24,2.022c-1.533-1.448-3.096-2.926-4.645-4.39c-4.234,1.668-6.13-3.272-9.736-2.44
				c0-1.558,0-2.292,0-3.267c-0.881-0.328-1.836-0.685-3.02-1.125c-2.294-2.411-4.803-5.046-7.554-7.936
				c0.657-2.137-3.464-3.135-2.791-6.021c0.046-0.197-1.764-0.688-2.561-1.252c-1.388-0.98-2.66-2.125-4.002-3.22
				c0.746-0.745,1.266-1.266,1.788-1.786c0.51-2.061,1.302-4.149-0.683-6.067c-0.707,1.511-1.394,2.981-2.187,4.678
				c-2.249-3.515-0.024-7.39-1.881-11.237c-1.131,0-2.586,0.243-3.907-0.072c-1.19-0.284-2.233-1.182-3.331-1.803
				c-0.554,0.555-1.075,1.074-1.735,1.734c-3.496,0-7.137,0-11.155,0c-0.606-1.201-1.343-2.663-2.081-4.125
				c-0.769-1.521-1.537-3.043-2.299-4.552c-0.795,0.724-1.567,1.425-2.349,2.135c-0.998-1.531-3.108-2.134-3.248-4.439
				c0.382-2.608,3.299-3.491,4.435-5.708c0.002-1.462,0.081-2.738-2.005-3.125c-1.616-0.299-3.032-1.807-4.633-2.007
				c-1.798-0.226-2.627-1.455-3.351-2.51c-1.375-2.004-4.069-1.427-5.367-3.098c-1.689-2.175-4.205-0.31-6.229-1.666
				c-0.605-4.308-4.82-7.339-4.886-12.088c-0.01-0.687,0.21-1.377,0.378-2.397c0.892-0.181,1.898-0.386,3.151-0.641
				c2.017-1.952,0.436-4.667,1.025-7.929c1.172-0.886,2.915-2.204,3.819-2.889c-1.263-1.887-2.254-3.369-3.452-5.159
				c-1.601,1.12-2.721,1.904-4.135,2.895c-1.796,0-3.99,0-6.245,0c-3.203-2.631-5.515-6.553-9.999-7.658c0-0.73,0-1.463,0-3.283
				c-1.856-1.675-4.278-3.862-6.688-6.038c0.068-1.486,0.134-2.909,0.189-4.111c1.498-1.294,2.933,0.372,5.017,5.457
				c1.637,0,3.368,0,5.012,0c0.348-0.349,0.608-0.608,0.869-0.868c-2.627-1.548-2.208-4.928-4.151-6.889
				c0.522-0.521,1.042-1.042,1.614-1.612c-0.274-0.491-0.485-1.062-0.853-1.499c-2.122-2.526-5.442-2.846-8.042-4.347
				c-3.201-0.042-0.724,3.366-2.93,4.228c-0.652-1.341-1.316-2.707-1.973-4.058c-1.78-0.146-3.521-0.289-5.992-0.491
				c0.956-1.254,1.496-1.962,2.09-2.74c-0.008-0.148,0.077-0.564-0.052-0.646c-4.104-2.627-3.944-8.543-8.404-10.289
				c0-2.431,0-4.27,0-6.109c-0.054-0.345,0.017-0.812-0.183-1.018c-2.049-2.11-4.142-4.179-6.324-6.361
				c0.652-0.752,1.311-1.513,2.112-2.438c-1.305-1.146-2.659-2.338-4.113-3.614c-0.729-3.979,0.02-7.983-0.488-11.786
				c-0.678-0.824-1.292-1.569-1.89-2.297c0.683-0.683,1.203-1.203,2.331-2.331c-1.934-0.954-3.87-1.91-4.657-2.299
				c0-2.501,0-3.228,0-3.918c-0.747-0.825-1.461-1.614-2.347-2.592c1.379-0.48,2.66-0.927,3.991-1.391
				c1.159-1.635,0.192-3.446,0.517-4.992c-0.706-0.705-1.225-1.226-2.135-2.135c0-2.812,0-6.016,0-8.829
				c-0.91-0.91-1.429-1.43-2.034-2.035c0-3.121,0-6.324,0-9.374c1.847-1.519,3.707-0.35,5.247-0.832
				c1.48,1.479,2.78,2.78,4.679,4.679c0.805-1.393,1.612-2.789,2.426-4.196c-0.073-0.073-0.593-0.593-1.363-1.362
				c0.536-0.686,1.097-1.403,1.749-2.236c0.079-0.549,0.039-1.302,0.3-1.929c1.228-2.946-2.993-4.064-2.231-6.819
				c-1.467-1.471-2.439-3.257-4.993-3.673c-3.224-0.525-3.203-4.257-4.884-6.451c-1.424,0-2.883,0-4.313,0
				c-1.324-1.653-3.225-2.533-3.699-5.123c-0.318-1.735-1.684-3.673-2.68-5.448c-1.175-2.093-4.272-2.998-3.83-6.147
				c-2.134-1.065-4.178-2.419-6.426-3.114c-2.291-0.708-3.486-2.218-4.514-4.096c-0.127-3.201,3.489-3.561,4.237-6.76
				c-1.141-0.893-2.861-2.241-4.439-3.477c0.906-4.008,2.893-6.154,8.451-5.539c-2.571-2.586-3.752-3.774-4.886-4.914
				c-1.538,0.603-2.482,0.974-3.353,1.314c0,0.974,0,1.707,0,2.693c-1.214,0.42-2.686,0.605-3.727,1.375
				c-1.176,0.868-2.072,2.032-3.774,1.621c-1.589-2.475-1.559-2.449,0.889-6.07c-0.138-0.678-0.277-1.355-0.467-2.278
				c-1.952-0.294-3.987-0.601-6.427-0.968c1.037-1.205,1.689-1.964,2.45-2.848c-1.476-0.691-2.958-1.386-4.405-2.063
				c0-0.862,0-1.593,0-2.305c-1.319-1.319-2.62-2.62-4.038-4.038c0.47-4.546-4.129-8.206-2.39-13.115
				c-0.755-0.901-1.437-1.715-2.562-3.057c0-2.633,0-5.839,0-8.647c-0.91-0.909-1.43-1.429-1.99-1.989c0-3.627,0-7.294,0-10.923
				c-0.774-0.839-1.511-1.637-2.271-2.46c0-7.324,0-14.675,0-22.001c-0.543-0.544-1.064-1.063-1.975-1.975
				c-0.114-2.062-0.25-4.537-0.387-7.011c-1.632-1.545-3.392-3.066-0.955-5.316c0.795,0.74,1.587,1.477,2.282,2.123
				c1.581,0,3.035,0,4.421,0c1.843-1.485,0.705-3.471,1.073-5.261c-0.685-0.761-1.406-1.562-2.194-2.437c0-2.095,0-4.292,0-6.982
				c1.746-1.165,3.743-2.497,6.384-4.26c0.081-0.888,0.238-2.626,0.386-4.256c0.67-0.819,1.277-1.562,1.64-2.006
				c-0.861-1.491-1.542-2.669-1.96-3.394c0.62-2.617,2.335-1.985,3.562-2.448c0.861-0.324,1.501-1.233,2.249-1.889
				c1.349,1.499,2.568,2.891,4.72,1.637c1.287-2.305,0.303-4.902,0.723-7.354c0.52-0.52,1.04-1.04,1.912-1.912
				c0.12-2.104,0.261-4.577,0.397-6.959c1.083-1.114,2.107-2.168,3.094-3.182c0.798,0,1.532,0,2.525,0
				c0.417,1.213,0.858,2.496,1.309,3.807c1.431,1.033,1.495-0.874,3.875-1.434c0.177-0.021,1.916-0.228,3.688-0.438
				c1.765-2.505,0.137-5.642,1.155-8.854c1.273,1.025,2.007,1.615,2.79,2.245c2.388-0.882,0.784-2.99,1.539-5.399
				c0.429-1.277,2.64-2.244,3.788-4.031c0.903-1.403,1.348-3.103,2.117-4.96c-0.346-0.386-1.037-1.153-1.719-1.911
				c2.593-1.108,3.749-0.73,9.855,3.268c1.4,0,2.861,0,4.282,0c0.839,0.773,1.637,1.51,2.463,2.272c2.907,0,5.843,0,8.048,0
				c2.916,1.556,5.252,2.802,7.537,4.021c0.85-0.674,1.673-1.327,2.846-2.258c1.172,0.758,2.32,1.499,3.912,2.527
				c1.611,0,3.79,0,5.974,0c0.848,0.768,1.648,1.49,2.517,2.274c6.516,0,13.128,0,19.707,0c1.608,1.527,3.184,3.022,5.079,4.821
				c1.162-0.601,2.371-1.225,3.994-2.062c0.616,0.38,1.673,1.031,2.992,1.844c1.371-0.753,2.86-1.57,4.815-2.644
				c0.946,0.688,2.056,1.495,3.388,2.463c6.292,0,12.906,0,19.494,0c0.825,0.762,1.623,1.498,2.406,2.222
				c2.198,0.88,2.984-1.414,4.526-1.988c0.525,0.525,1.045,1.046,1.565,1.567c0.676,0.145,1.351,0.408,2.028,0.413
				c5.518,0.033,11.041-0.131,16.55,0.076c3.16,0.119,6.677-1.262,9.42,1.12c2.254,1.959,5.83-0.157,7.733,2.974
				c0.425,0.698,2.744,0.245,4.099,0.316c1.59-0.868,2.417-3.079,5.282-2.045c0.177,0.929,0.415,2.174,0.636,3.34
				c-1.753,0.633-3.027,1.092-4.435,1.6c0.565,0.6,1.097,1.477,1.365,1.402c4.898-1.363,8.683,2.707,13.301,2.7
				c0.52,0,1.04,0.971,1.559,1.489c1.872-1.047,3.743-2.092,6.243-3.488c-1.67-0.358-2.673-0.574-4.302-0.925
				c-0.158-0.865-0.385-2.114-0.566-3.109c2.064-1.636,3.909-0.78,5.607-0.909c1.215,2.109,2.42,4.2,3.565,6.188
				c3.675-0.764,3.502-4.125,5.106-6.223c0.775,0.704,1.545,1.403,2.348,2.132c1.413,0,2.883,0,4.314,0
				c0.816,0.762,1.61,1.503,2.814,2.626c1.303-0.747,2.71-1.555,4.044-2.32c0.84,0.688,1.658,1.356,2.823,2.31
				c1.164-0.717,2.326-1.431,3.762-2.315c0.755,0.698,1.75,1.617,2.739,2.533c0.32,1.855-1.957,1.799-1.966,3.054
				c-2.687,1.32-5.209,0.638-7.685,0.601c-0.526-0.526-1.046-1.046-1.817-1.817c-3.342,0-6.958,0-10.993,0
				c-1.627,0.888-3.681,2.011-5.75,3.141c7.394,1.398,14.847,1.517,30.274,0.485c0.451-1.279,0.901-2.559,1.515-4.3
				c0.905,1.932,1.597,3.409,2.237,4.776c2.436,0.876,3.283-1.291,4.624-2.07c1.586,0,3.037,0,4.443,0
				c1.373,2.43,3.638,2.156,6.95,2.117c0.722-1.152,1.887-3.013,2.752-4.396c2.905,0.673,2.052,2.424,2.56,3.534
				c0.257,0.262,0.515,0.744,0.778,0.748c3.665,0.049,7.331,0.033,11.126,0.033c0.678-0.632,1.366-1.578,2.296-2.054
				c0.864-0.442,1.985-0.381,3.021-0.546c-0.507-2.108-3.718-3.209-1.375-5.66c2.062-0.488,4.157-1.307,5.961,0.591
				c-0.703,0.774-1.403,1.545-2.28,2.511c1.428,0.504,2.707,0.955,4.243,1.497c-0.533,1.027-1.05,2.022-1.565,3.017
				c0.283,0.255,0.549,0.705,0.819,0.707c5.142,0.042,10.284,0.031,15.297,0.031c0.863-0.761,1.628-1.436,2.331-2.055
				c0.909,0.771,1.721,1.461,2.875,2.441c1.151-0.664,2.331-1.346,3.826-2.209c0.443,0.363,1.185,0.97,2.109,1.725
				c5.636,0,11.495,0,17.356,0c0.848,0.766,1.647,1.488,2.517,2.273c3.572,0,7.242,0,10.952,0c0.491-0.463,1.021-0.961,1.549-1.461
				c0.268-0.238,0.537-0.684,0.806-0.685c11.762-0.035,23.524-0.03,36.056-0.03c0.999-1.348,2.302-3.104,3.141-4.233
				c4.446-0.883,3.181,2.679,4.646,4.011c3.085-1.213-0.26-4.829,2.581-6.404c0.329,0.903,0.758,1.726,0.912,2.598
				c0.185,1.044,0.137,2.129,0.187,3.146c0.732,0.327,1.35,0.839,1.974,0.846c5.517,0.064,11.034,0.037,16.552,0.037
				c0.787,0.713,1.574,1.425,2.36,2.138c0.524-0.524,1.045-1.045,1.921-1.921c2.1-0.119,4.573-0.261,7.023-0.401
				c0.543-0.542,1.062-1.062,1.619-1.618c2.172,0.506,3.037,2.629,4.734,3.902c0.749-0.666,1.515-1.346,2.283-2.029
				c0.744,0.666,1.521,1.362,2.261,2.025c0.821-0.73,1.623-1.445,2.764-2.459c1.136,0.601,2.338,1.238,4.456,2.36
				c2.554,0,6.172,0,10.128,0c0.835-0.526,1.985-1.293,3.183-1.974c0.277-0.158,0.723-0.023,1.395-0.023
				c0.67,1.342,1.402,2.806,2.126,4.257c0.743,0.055,1.458,0.106,2.25,0.165c0.758-0.698,1.554-1.432,2.39-2.202
				c3.613,0,7.288,0,11.046,0c0.453,0.487,0.952,1.022,1.388,1.491c0.742,0.258,1.382,0.661,2.029,0.674
				c3.295,0.065,6.592,0.03,9.694,0.03c0.964-0.853,1.768-1.564,2.89-2.556c1.358,0.708,2.775,1.447,4.192,2.186
				c0.52-0.521,1.04-1.041,1.56-1.562c2.346,1.286,4.691,2.572,7.115,3.901c0.561-1.196,1.248-2.666,1.967-4.201
				c0.668,0.668,1.188,1.188,2.032,2.032c0.644-0.487,1.337-1.013,2.167-1.642c2.155,0.087,1.029,1.941,1.447,3.047
				c0.223,0.224,0.457,0.675,0.748,0.715c3.209,0.438,6.416,0.402,9.275,0.092c0.848-0.847,1.369-1.367,1.951-1.95
				c1.392,0,2.845,0,4.717,0c0.358,1.075,0.776,2.327,1.194,3.58c2.748,0.695,2.748,0.695,5.281-1.259
				c0.762,0.641,1.514,1.272,2.404,2.021c0.572-1.492,1.059-2.761,1.554-4.055c2.257,0.129,1.16,1.97,1.612,3.147
				c1.336,1.734,3.333,0.584,5.131,0.954c0.767-0.677,1.57-1.387,2.424-2.14c0.734,0.67,1.509,1.379,2.315,2.115
				c1.423,0,2.891,0,4.341,0c3.358,2.262,6.149,3.527,9.113,4.114c2.854-2.574-0.43-3.657-1.41-5.552
				c1.011-0.328,1.981-0.644,3.141-1.021c0.797,1.622,1.525,3.104,2.268,4.612c0.822-0.734,1.6-1.43,2.838-2.537
				c1.296,1.716,2.613,3.459,3.535,4.68c4.384,0.599,4.805-3.904,7.812-4.309c4.075,0.329,4.055,4.304,5.87,6.593
				c0.752,0,1.479,0,2.446,0c0.43-1.235,0.875-2.516,1.38-3.967c3.486,1.966,7.622,2.034,10.873,4.163
				c1.363-0.961,2.488-1.755,3.798-2.679c2.773,1.534,5.464,3.022,8.463,4.683c2.511,0,5.443,0,8.337,0
				c0.559-0.559,1.078-1.078,1.598-1.6c0.657-0.191,1.311-0.528,1.972-0.545c2.545-0.064,5.092-0.025,7.279-0.025
				c1.059,0.86,1.799,1.462,2.519,2.048c0.701-0.701,1.221-1.222,1.741-1.741c1.102,0.668,2.203,1.336,3.723,2.257
				c1.05-0.768,2.156-1.578,3.292-2.408c0.396,0.375,0.917,0.869,1.436,1.363c0.272,0.229,0.544,0.657,0.818,0.659
				c5.137,0.04,10.274,0.029,15.321,0.029c0.609,0.61,1.13,1.13,1.649,1.65c0.291,0.186,0.58,0.529,0.873,0.533
				c2.912,0.04,5.825,0.023,8.515,0.023c0.741-0.742,1.262-1.262,2.026-2.025c0.69,0.541,1.415,1.108,2.708,2.123
				c3.33,0,7.271,0,11.041,0c1.046,2.021-0.315,2.066-1.199,2.078c-4.781,0.067-9.563,0.021-14.345,0.059
				c-0.284,0.002-0.565,0.385-0.931,0.65c0.218,0.487,0.431,1.429,0.671,1.436c3.672,0.104,7.347,0.069,11.02,0.127
				c0.269,0.004,0.529,0.467,0.938,0.852c0,0.86,0,1.855,0,3.105c-1.171,0.18-2.173,0.333-3.058,0.468
				c-0.662-0.662-1.182-1.183-1.976-1.976c-8.81,0-17.899,0-27.036,0c-0.476,0.475-0.996,0.996-1.755,1.754
				c-0.693-0.545-1.418-1.115-2.319-1.824c-0.662,0.554-1.412,1.18-2.309,1.929c-2.001,0-4.187,0-6.505,0
				c-1.342-0.786-2.192-2.947-5.046-1.921c-0.17,0.945-0.395,2.196-0.661,3.674c2.532,0.385,4.557,0.691,6.702,1.018
				c-0.306,0.665-0.405,1.141-0.548,1.154c-4.217,0.386-8.438,0.727-12.981,1.101c0.596,0.749,0.764,1.061,1.021,1.255
				c0.264,0.199,0.613,0.399,0.926,0.4c6.571,0.022,13.144,0.018,19.334,0.018c0.894,0.894,1.414,1.413,2.07,2.07
				c8.652,0,17.442,0,26.239,0c0.872,0.757,1.68,1.456,2.621,2.271c2.016,0,4.203,0,7.604,0c1.466,1.879,3.433,4.398,5.396,6.914
				c0.993-0.993,1.513-1.514,2.044-2.045c3.016-0.132,0.261,3.321,2.551,3.821c0.648-0.548,1.401-1.186,2.22-1.877
				c0.722,0.657,1.493,1.361,2.294,2.091c4.363,0,8.776,0,13.189,0.001c5.84,4.05,6.52,4.285,13.623,4.688
				c1.38,1.894-1.301,1.975-1.489,3.146c-0.16,1.002-0.351,1.998-0.542,3.077c-2.485,0-4.656,0-6.851,0
				c-2.327-1.327-4.721-2.692-7.507-4.282c-0.943,0-2.412,0-4.835,0c-0.803,1.184-1.987,2.929-3.171,4.676
				c-1.076-1.077-1.597-1.598-2.144-2.144c-2.179,0.255-1.697,2.096-1.237,3.021c0.62,1.249,1.976,2.133,3.063,3.221
				c2.146,0,4.341,0,7.089,0c0.255,1.156,0.526,2.386,0.736,3.334c-0.678,0.632-0.938,1.09-1.208,1.095
				c-2.938,0.052-5.875,0.032-9.632,0.032c-1.143-1.143-2.677-2.677-4.298-4.299c-2.512,0.937-2.519,0.929-4.67,3.308
				c1.041,1.04,2.081,2.081,3.122,3.119c1.693,0.514,3.64-0.662,5.28,0.851c-0.895,3.483-3.929-0.344-4.249,0.483
				c-2.047,2.048-3.087,3.088-4.136,4.137c1.416,2.855,4.981-0.257,6.493,2.345c-1.039,1.029-2.083,2.062-3.218,3.185
				c-0.743-0.653-1.507-1.323-2.347-2.06c-6.505,0-13.117,0-19.764,0c-0.755,0.684-1.543,1.397-2.333,2.11
				c-0.521-0.521-1.041-1.042-1.561-1.563c-0.655-0.193-1.309-0.534-1.969-0.551c-2.546-0.065-5.094-0.026-7.393-0.026
				c-1.274,1.248-2.321,2.274-3.109,3.047c1.006,1.945,1.949,3.771,2.897,5.606c2.466,0.137,4.948,0.273,7.585,0.419
				c0.084,1.339,0.146,2.336,0.202,3.231c-1.888,1.251-4.338,1.094-5.558,3.189c-3.644,0-7.311,0-10.937,0
				c-2.382,2.383-4.723,4.723-7.063,7.064c-0.207,0.281-0.538,0.54-0.597,0.851c-0.132,0.698-0.13,1.423-0.183,2.138
				c-0.604,0.314-1.392,1.048-1.787,0.877c-2.79-1.212-5.5-2.609-8.082-3.873c-1.681,0.865-3.508,1.806-5.406,2.783
				c1.817,0.945,3.593,1.871,6.193,3.225c3.397,0,7.774,0,12.018,0c1.907,1.709,4.695,2.684,3.551,5.998
				c-3.224,2.168-7.187-0.643-10.401,1.527c0.032,0.259-0.011,0.704,0.107,0.752c3.863,1.557,7.886-0.013,12.166,1.137
				c0.413-2.514,0.746-4.543,1.117-6.8c1.812,0,3.544,0,5.298,0c0.498,0.498,1.019,1.019,1.539,1.539
				c1.829-0.214,2.996-3.152,5.636-1.05c-0.513,0.916-1.06,1.892-1.793,3.203c2.176,0.312,4.211,0.604,6.348,0.91
				c-1.195,3.436-3.889,0.818-5.503,1.883c-1.301,1.3-2.602,2.601-4.286,4.285c-2.137,0-4.659,0.02-7.181-0.006
				c-2.174-0.021-3.981,0.209-5.949,1.788c-1.676,1.345-5.068-0.297-6.624,2.572c-5.125,0-10.259,0-15.756,0
				c-0.404,1.2-0.825,2.453-1.27,3.776c-1.495,1.637-3.499,0.031-5.316,1.05c-0.536-1.562-0.976-2.845-1.519-4.431
				c-2.21,0.403-2.999,2.599-5.323,4.23c-0.812-1.825-1.692-3.807-2.363-5.316c-4.116,2.23-1.836,4.909-3.259,6.666
				c-2.762,1.008-5.478,2.431-8.173,3.887c-0.187,0.101-0.126,0.659-0.192,1.077c-0.191,2.177,2.02,2.763,3.08,4.396
				c2.041,0,4.195,0,6.107,0c1.389,0.962,2.522,1.746,3.756,2.6c1.576-0.875,3.061-1.7,4.943-2.745
				c1.021,0.777,2.104,1.601,3.164,2.406c0.712-0.632,1.478-1.31,2.237-1.984c0.6,0.599,1.119,1.119,1.92,1.919
				c0.673-0.52,1.388-1.07,2.126-1.641c1.049,0.594,2.164,1.227,3.737,2.118c0.959-0.685,2.074-1.482,3.121-2.23
				c2.218,1.264,4.547,2.59,7.72,4.397c1.312-1.312,2.835-2.836,4.619-4.62c1.004,0.552,2.493,1.37,4.447,2.444
				c0.944-0.685,2.055-1.49,3.392-2.46c1.138,0,2.602,0,4.328,0c0.339,0.813,0.725,1.743,0.921,2.216
				c-4.392,4.392-8.519,8.519-13.194,13.193c-1.121,0-3.323,0-5.043,0c-2.751-1.569-5.144-2.936-8.027-4.581
				c-2.961,1.519-6.28,3.219-9.961,5.106c-0.54-1.223-0.908-2.1-1.312-2.959c-0.29-0.617-0.629-1.211-1.012-1.939
				c-1.045,0.993-2.06,1.959-3.715,3.533c1.307,0.611,2.569,1.204,3.831,1.796c-0.25,0.375-0.5,0.751-0.751,1.126
				c7.626,0,15.252,0,22.187,0c1.645,1.47,2.724,2.434,4.304,3.846c-5.396,1.607-10.554,0.004-15.532,1.009
				c-0.257,1.183-0.477,2.187-0.707,3.245c-0.216,0.216-0.475,0.701-0.735,0.703c-8.073,0.04-16.146,0.032-24.164,0.032
				c-1.671,1.59-3.244,3.087-4.782,4.552c-1.904,0-3.744,0-5.651,0c-2.067-1.062-4.465-1.827-6.24-3.329
				c-2.059-1.743-3.984-0.976-6.035-0.72c-1.474,1.574-0.298,3.521-0.833,5.352c-3.164,2.098-7.03-0.072-10.347,1.426
				c-0.52,0.52-1.04,1.04-1.612,1.612c-0.768-0.7-1.539-1.401-2.311-2.104c-0.499,0.497-1.019,1.019-2.015,2.015
				c-1.236,0.079-2.978,0.19-4.627,0.296c-0.862,0.75-1.67,1.452-2.599,2.261c-0.973-0.342-1.935-0.678-2.99-1.048
				c0.861-0.97,1.555-1.749,2.256-2.538c-1.41-1.831-3.407-0.681-5.205-1.051c-0.767,0.678-1.571,1.387-2.628,2.32
				c-0.443-1.3-0.859-2.518-1.277-3.743c-1.998-1.138-3.99-1.201-6.307,0.261c1.559,0.761,2.929,1.43,4.279,2.09
				c0.059,0.758,0.114,1.47,0.165,2.117c-0.661,1.789-2.373,1.2-3.943,1.818c-0.18,0.811-0.401,1.812-0.685,3.09
				c-1.951,2.069-3.562,0.811-5.019-1.182c-1.497,0-2.937,0-4.446,0c-1.581-1.51-3.143-3-4.897-4.676
				c-0.481,1.393-0.926,2.674-1.369,3.957c-2.036,1.727-3.262,0.175-4.782-1.365c-1.899,0-4.035,0-5.708,0
				c-2.541-1.402-4.611-2.547-6.666-3.682c-0.039-0.748-0.076-1.468-0.113-2.186c-0.605-0.333-1.203-0.945-1.805-0.949
				c-8.459-0.062-16.92-0.043-25.5-0.043c-0.734,0.658-1.537,1.376-2.346,2.101c-0.746-0.663-1.525-1.355-2.049-1.821
				c-2.23,1.189-4.354,2.324-7.318,3.906c-2.646,0-6.268,0-9.549,0c-1.512,0.958-2.676,1.697-4.111,2.607
				c-1.352-0.747-2.838-1.569-4.793-2.652c-0.938,0.674-2.049,1.473-3.41,2.45c-6.266,0-12.878,0-19.457,0
				c-0.832,0.768-1.63,1.504-2.393,2.207c-0.763,0-1.49,0-2.185,0c-0.552-0.552-1.072-1.072-1.593-1.592
				c-0.26-0.129-0.746-0.373-0.748-0.368c-1.125,2.184-3.935,1.476-5.328,3.127c-0.18,0.214-0.023,0.709-0.023,1.073
				c-1.84,0-3.68,0-5.52-0.001c-0.52,0.521-1.039,1.041-1.559,1.562c-2.015,1.231-4.238,0.397-6.354,0.645
				c-0.611,0.303-1.402,0.457-1.799,0.939c-1.82,2.216-5.857,1.174-6.476,4.964c1.884,1.825,4.581,0.299,7.12,0.744
				c0.75-0.66,1.556-1.368,2.6-2.285c0.837,1.064,1.719,2.185,2.793,3.551c-0.219,1.599-2.102,0.484-3.072,1.108
				c-1.162,0.748-1.814,2.346-4.043,1.92c-0.496-0.385-1.323-1.025-2.454-1.903c-2.841,0-6.044,0-9.038,0
				c-0.728,0.728-1.248,1.248-2.157,2.157c-2.825,0-6.042,0-8.831,0c-0.909,0.909-1.429,1.43-2.338,2.34c-3.557,0-7.505,0-11.186,0
				c-1.545,2.494-0.101,3.699,1.415,5.079c-1.942,1.079-3.816,2.122-5.691,3.165c-0.747-2.752-0.747-2.752,1.46-5.537
				c-1.062-0.341-2.034-0.653-2.994-0.961c-0.926,0.828-1.729,1.546-2.534,2.265c-0.746-0.661-1.527-1.352-2.307-2.043
				c-0.52,0.52-1.041,1.04-1.932,1.931c-1.342,0.113-3.083,0.26-4.824,0.408c-0.52,0.521-1.04,1.041-1.836,1.838
				c-0.675-0.521-1.391-1.074-2.323-1.795c-1.476,0-3.208,0-5.139,0c-0.245,1.18-0.454,2.186-0.69,3.324
				c-0.927,0.928-1.968,1.968-3.042,3.042c-1.429,0-2.891,0-4.318,0c-0.833,0.769-1.632,1.504-2.465,2.272c-1.428,0-2.891,0-4.32,0
				c-1.073,1.074-2.113,2.114-3.16,3.16c1.421,2.849,4.994-0.28,6.474,2.303c-0.704,0.776-1.401,1.546-2.096,2.312
				c1.1,1.1,2.14,2.141,3.205,3.205c1.44,0,2.904,0,4.396,0c0.771-0.712,1.569-1.448,2.319-2.142c2.246,0,4.442,0,6.511,0
				c0.854,0.739,1.614,1.398,2.365,2.05c1.777-1.578,0.616-3.546,1-5.277c1.396-2.024,2.886-1.146,4.688-0.504
				c-1.026,1.145-1.715,1.912-2.398,2.674c1.512,1.808,3.491,0.658,5.19,1.018c2.986-1.4-0.142-5.033,2.664-6.746
				c0.45,1.33,0.877,2.595,1.305,3.86c0.642,0.226,1.281,0.637,1.927,0.647c4.032,0.06,8.065,0.029,11.902,0.029
				c0.919-0.789,1.677-1.441,2.417-2.077c1.013,1.951,1.958,3.774,3.18,6.13c0,0.781,0,2.247,0,3.703
				c-0.607,0.366-1.189,1.011-1.787,1.027c-3.615,0.096-7.234,0.047-11.896,0.047c1.152,1.492,1.855,2.094,2.143,2.854
				c0.344,0.907,0.333,1.949,0.471,2.903c-2.175,1.548-2.167-1.315-2.697-1.298c-1.443-0.075-2.164-0.112-3.116-0.162
				c-0.424-1.203-0.876-2.482-1.49-4.225c-0.808,0.61-1.499,1.131-2.37,1.788c-5.383,1.503-11.533-1.528-16.739,1.635
				c-2.469,1.501-6.133-0.538-7.59,3.06c-2.212,0-4.4,0-6.589,0c-0.829,0.771-1.623,1.51-2.442,2.273c-1.426,0-2.896,0-4.328,0
				c-0.816,0.762-1.61,1.502-2.368,2.209c-5.585,0-11.103-0.001-16.62,0.006c-0.351,0-0.702,0.078-1.052,0.119
				c-0.52,0.521-1.04,1.04-1.821,1.822c-1.874,0-4.009,0-6.153,0c-0.95,0.727-1.78,1.361-2.9,2.218
				c-3.236,1.285-7.708-1.511-10.817,2.2c-3.803-0.693-6.38,2.439-10.243,3.221c0.213,1.237,0.429,2.489,0.694,4.027
				c1.213-1.101,1.983-1.799,2.75-2.494c0.58,0.58,1.1,1.1,1.782,1.782c1.559,0.186,3.297,0.392,5.352,0.637
				c0.21,0.911,0.439,1.91,0.693,3.013c-1.61,0.755-3.097,1.451-4.637,2.174c1.163,1.162,2.203,2.203,3.297,3.297
				c5.816,0,11.687,0,17.657,0c0.71-0.658,1.501-1.392,2.269-2.104c0.792,0.73,1.588,1.466,2.627,2.424
				c2.097-0.94,4.265-1.912,6.752-3.027c1.815-1.815,3.896-3.896,5.977-5.98c2.476,0.091,5.026-0.731,7.845,0.791
				c-1.804,2.475-4.384,4.222-5.274,7.421c-0.575,2.063-3.098,3.586-5.747,4.398c2.029,0.333,4.059,0.665,6.346,1.039
				c-1.077,2.173-2.063,4.164-3.052,6.158c-0.837,0-1.565,0-2.263,0c-1.33,1.33-2.63,2.63-4.158,4.158c-2.24,0-4.707,0-7.139,0
				c-0.297-0.723-0.556-1.351-0.815-1.895c1.55-0.731,2.965-1.698,4.526-2.247c2.145-0.754,3.454-2.182,4.31-4.11
				c0.102-1.834-0.729-2.665-3.355-2.521c-1.501,1.543-3.544,3.481-5.481,5.538c0,1.085,0,2.17,0,3.34
				c-0.368-0.085-0.887-0.243-1.079-0.06c-1.858,1.777-3.662,3.615-5.245,5.199c0.961,1.907,1.876,3.725,2.865,5.686
				c2.062,0,4.23,0,6.409,0c0.866,0.758,1.671,1.463,2.595,2.271c2.034,0,4.222,0,6.549,0c0.688-0.643,1.48-1.383,2.254-2.105
				c0.775,0.723,1.568,1.464,2.254,2.104c1.593,0,3.046,0,4.433,0c1.104-1.104,2.145-2.145,3.313-3.313
				c-3.278-2.176-7.073-0.217-10.843-1.59c0.75-2.92,4.006-3.722,5.017-6.256c1.018,0.949,1.812,1.689,2.935,2.736
				c1.119-0.541,2.343-1.132,4.174-2.017c0.211,0.161,0.916,0.695,1.951,1.481c5.451,0,11.282,0,17.126,0
				c0.904,0.739,1.721,1.408,2.694,2.203c0.666-0.562,1.417-1.198,2.186-1.848c1.024,0.761,2.094,1.556,3.423,2.543
				c1.303-1.018,2.383-1.861,3.546-2.77c2.108,0,4.295,0,6.419,0c0.584-0.584,1.104-1.104,1.883-1.884c1.874,0,4.008,0,5.99,0
				c1.366-0.924,2.507-1.696,4.079-2.76c0.981,0.601,2.144,1.312,3.65,2.234c2.439-4.075,8.174-4.224,11.176-9.246
				c0.442,1.873,0.678,2.87,0.887,3.758c-0.848,0.935-1.562,1.722-2.275,2.51c2.149,2.356,4.959,0.026,7.082,1.353
				c1.084-0.947,1.889-1.652,2.754-2.41c0.727,0.662,1.497,1.366,2.295,2.094c2.893,0,5.833,0,8.773,0
				c0.521-0.52,1.04-1.04,2.059-2.059c1.213-0.072,2.953-0.174,4.596-0.271c0.814-0.688,1.566-1.324,2.309-1.952
				c0.648,0.647,1.168,1.167,1.902,1.902c0.705-0.561,1.436-1.143,2.722-2.167c2.606,0,5.81,0,8.735,0
				c1.031-2.193,1.865-3.966,2.701-5.742c-2.417-1.911-5.684,0.413-8.574-1.868c0.991-0.433,1.749-0.748,2.494-1.091
				c0.619-0.285,1.235-0.576,1.828-0.909c0.885-0.497,1.747-1.032,2.496-1.479c1.374,0.815,2.463,1.462,3.864,2.294
				c0.212-1.246,0.384-2.248,0.532-3.123c-1.521-2.002-3.518-0.872-5.246-1.216c-0.527-0.41-1.135-0.792-1.627-1.288
				c-0.674-0.68-1.26-1.445-1.876-2.166c1.71-1.717,3.655-0.543,5.378-0.947c1.288-1.291,2.586-2.592,3.948-3.957
				c1.934,0.092,2.978,2.462,5.464,1.937c1.318-0.279,2.969,1.687,4.576,1.931c2.136,0.322,4.408-0.137,5.771,2.25
				c0.791-0.722,1.562-1.425,2.359-2.153c1.422,0,2.891,0,4.32,0c0.815-0.762,1.609-1.502,2.434-2.272c1.454,0,2.906,0,4.204,0
				c0.926-0.809,1.731-1.514,2.45-2.143c1.99,0,3.828,0,5.666,0c2.41-1.304,4.822-2.607,7.383-3.991
				c1.109,0.636,2.502,1.437,3.833,2.2c1.202-1.123,1.995-1.863,2.81-2.623c2.167,0,4.373,0,6.579,0.001
				c1.3-1.299,2.597-2.601,4.077-4.085c2.242,1.155,4.551,2.344,7.142,3.678c0.422-0.371,1.067-1.314,1.93-1.597
				c0.884-0.29,1.979,0.067,3.188,0.157c-0.644,1.34-1.13,2.354-1.62,3.374c2.13,0.915,4.142,1.284,6.163-0.309
				c-0.678-0.771-1.35-1.534-2.027-2.303c0.191-0.224,0.4-0.697,0.638-0.712c3.617-0.229,7.239-0.396,11.083-0.591
				c1.856-1.022,4.408-1.763,5.934-3.438c1.864-2.048,5.115,0.985,6.312-2.114c-0.363-0.369-0.618-0.855-0.879-0.859
				c-3.676-0.05-7.352-0.033-11.038-0.033c-0.512,0.516-1.027,1.038-2.077,2.1c-2.641,0.254-5.859,0.105-9.042,0.02
				c-0.555-0.554-1.075-1.074-1.922-1.92c-0.648,0.49-1.35,1.021-2.326,1.76c-0.607-0.483-1.338-1.062-2.624-2.084
				c-3.343,0-7.292,0-11.294,0c0.691-3.644,3.304-1.324,4.982-2.174c0.656-0.61,1.451-1.349,2.225-2.068
				c0.751,0.684,1.521,1.387,2.283,2.08c2.119-1.945,3.668-4.602,6.941-4.722c1.447-3.096,4.7-0.979,6.934-2.457
				c0.186-0.851,0.406-1.854,0.646-2.944c2.2-1.803,4.854-0.453,7.345-0.848c1.526,1.441,3.074,2.903,4.622,4.363
				c1.359-1.359,2.659-2.66,3.97-3.971c3.013-0.129,0.26,3.32,2.55,3.821c0.647-0.547,1.4-1.184,2.171-1.835
				c1.569,1.023,2.857,3.456,5.585,1.276c-0.739-0.902-1.349-1.646-1.954-2.385c2.254-1.526,2.256-1.537,5.126,0.754
				c2.229,0,4.695,0,7.088,0c0.549-1.467,1.024-2.738,1.583-4.234c0.917,0.776,1.671,1.414,2.344,1.983
				c1.432-0.809,2.878-1.624,6.007-3.39c0.402-0.402,2.222-2.222,4.153-4.153c-1.079-0.962-2.158-1.925-3.375-3.011
				c-0.608,0.518-1.363,1.16-2.168,1.845c-1.653-0.104-3.489,0.723-5.124-0.543c-0.233-1.485,0.709-1.591,1.798-1.549
				c1.077,0.041,2.05-0.056,1.745-1.563c-1.651-1.212-3.471-0.453-5.126-0.504c-0.857,0.745-1.663,1.446-2.219,1.93
				c-2.503,0.759-3.273-1.566-5.397-2.329c-0.932,0.577-2.091,1.295-4.211,2.608c-2.113,0-5.316,0-8.127,0
				c-0.907,0.907-1.427,1.427-1.941,1.942c-2.541-1.465-3.581-4.024-4.73-6.497c-0.726,0.047-1.442,0.093-2.157,0.14
				c-1.354,2-1.666,4.666-4.174,6.283c-0.719,0-1.715,0-2.641,0c-0.307-0.838-0.916-1.653-0.713-2.086
				c1.477-3.124,2.482-6.573,5.65-8.721c1.926,0.349,2.713,0.726,4.346,2.109c3.738,0,7.395,0,10.982,0
				c0.589-0.589,1.108-1.109,1.884-1.885c5.146,0,10.555,0,15.966,0.002c0.521,0.521,1.041,1.041,1.326,1.325
				c2.348-0.693,4.543-1.341,6.608-1.951c1.142,0.999,1.946,1.702,2.871,2.512c3.504,0,7.162,0,10.962,0
				c0.686-0.639,1.48-1.378,2.251-2.098c0.751,0.686,1.521,1.388,2.289,2.087c1.353-1.352,2.652-2.652,3.952-3.952
				c2.491-0.521,5.016-1.188,6.833,1.69c3.557,0,7.196,0,10.66,0c1.292,0.938,2.404,1.746,3.87,2.812
				c1.2-0.903,2.297-1.729,3.923-2.954c1.094,0.617,2.539,1.434,3.989,2.252c1.625-2.583,4.17-2.104,7.008-1.676
				c0.211,0.878,0.45,1.874,0.737,3.068c-3.115,1.925-6.454,0.645-9.598,1.073c-2.37,1.322-4.771,2.66-7.74,4.316
				c-3.951,0.379-8.675-0.299-13.541,0.333c0,2.834,0,5.301,0,7.777c1.316,0.532,2.575,1.042,4.784,1.936
				c-1.633,1.248-2.95,2.254-4.666,3.565c-1.009-0.543-2.206-1.188-3.662-1.972c-0.141,0.076-0.64,0.364-1.157,0.617
				c-2.229,1.084-1.47,4.413-3.197,5.135c-1.647,0.689-3.5,0.964-4.415,2.56c-1.245,2.172-3.78,1.741-5.478,3.149
				c0,2.852,0,5.764,0,8.68c-0.763,0.851-1.48,1.651-2.271,2.534c0,1.349,0,2.808,0,4.221c-2.159,2.562-3.72,0.944-5.282-0.663
				c-2.979,2.216-7.125,2.707-9.102,6.668c-1.581-4.02-5.438-1.554-7.718-3.479c-1.785-1.508-4.151-2.326-6.475-3.565
				c-2.215,1.153-4.565,2.378-7.159,3.729c0.571,1.16,0.994,2.084,1.477,2.976c0.326,0.605,0.815,1.132,1.087,1.757
				c0.374,0.857,0.612,1.774,0.964,2.834c0.798-0.798,1.317-1.318,2.167-2.168c0.641,0.484,1.331,1.007,2.319,1.753
				c0.601-0.499,1.235-1.409,2.048-1.615c1.368-0.347,2.914-0.024,4.262-0.413c0.948-0.273,1.692-1.258,2.607-1.988
				c1.448,1.354,2.971,2.776,4.49,4.197c0.572-0.572,1.093-1.092,1.873-1.872c2.2,0,4.661,0,7.144,0
				c0.797,0.797,0.797,0.797-3.572,5.533c0.063,0.708,0.128,1.417,0.196,2.167c2.249,1.831,4.901,0.487,7.397,0.882
				c0.769-0.716,1.562-1.456,2.38-2.218c0.691,0,1.426,0,2.401,0c0.332,0.869,0.695,1.819,0.991,2.596
				c-1.951,4.59-7.92,3.889-9.551,8.31c-2.411,0-4.578,0-6.757,0c-0.868,0.757-1.674,1.46-2.603,2.271c-1.293,0-2.745,0-4.615,0
				c-0.387,1.196-0.792,2.451-1.207,3.735c-2.314,1.543-4.923,0.444-7.354,0.743c-0.807-0.754-1.6-1.494-2.37-2.214
				c-0.771,0.044-1.49,0.083-2.2,0.123c-2.583,2.423-0.325,3.792,1.145,5.335c-1.676,2.217-3.821,0.995-5.827,0.795
				c-0.52-0.521-1.04-1.041-2.082-2.083c-1.207,1.733-2.414,3.468-3.59,5.158c-1.622-0.577-2.646-0.81-3.541-1.284
				c-2.408-1.275-4.831-2.521-7.336-3.594c-0.25-0.106-0.653,0.145-1.313,0.313c-0.203,0.843-0.442,1.839-0.656,2.726
				c0.852,0.937,1.566,1.726,2.282,2.516c-1.827,0.94-3.653,1.879-6.319,3.25c-2.664,0-6.322,0.014-9.979-0.027
				c-0.282-0.004-0.559-0.4-0.837-0.614c-1.42-2.102,0.133-3.281,1.522-4.654c0-2.356,0-4.823,0-7.159
				c-2.593-1.592-5.175-0.203-7.263-0.906c-1.076,0.917-1.832,1.561-2.578,2.195c-0.638-0.639-1.158-1.158-1.781-1.783
				c-1.055,0.625-2.072,1.483-3.245,1.854c-1.321,0.418-3.016,0.007-4.12,0.67c-1.224,0.734-2.104,1.967-3.927,1.52
				c-0.672-0.624-1.467-1.361-2.192-2.036c-2.284-0.825-3.131,1.582-4.68,1.966c-1.466,0.363-2.658,0.672-3.702,1.804
				c-1.237,1.343-2.644,2.53-3.509,3.344c-0.383,1.636-0.616,2.634-0.856,3.657c-2.654-0.869-3.333-3.995-6.075-4.243
				c0.037-2.651,3.004-3.019,4.416-7.528c0,1.129-0.225-0.321,0.076-1.653c0.212-0.94,1.221-1.673,1.723-2.582
				c0.76-1.373,0.645-2.658-1.305-3.999c-1.229,1.66-2.527,3.416-4.045,5.467c-1.943-1.188-3.389-2.07-5.281-3.227
				c-0.952,0.619-2.098,1.364-3.288,2.139c-0.267-0.27-0.87-0.629-1.087-1.149c-0.387-0.927-0.541-1.95-0.934-3.481
				c-1.857,1.993-3.471,3.489-4.783,5.215c-0.896,1.178-1.371,2.676-2.062,4.088c-0.557-0.525-1.009-0.748-1.053-1.034
				c-0.11-0.718-0.037-1.462-0.037-2.173c-1.368-1.896-3.386-0.731-5.602-1.413c-1.205,1.612-2.514,3.36-3.501,4.682
				c-3.708,0-6.642,0-8.722,0c-4.559,2.34-8.431,4.327-12.279,6.304c-0.271-0.261-0.72-0.486-0.764-0.773
				c-0.11-0.718-0.037-1.463-0.037-2.249c-2.08-2.167-2.453,1.535-4.165,1.248c-1.313-0.22-2.894-0.613-4.144,0.483
				c-0.266,1.016-0.525,2.012-0.791,3.022c-1.5,1.605-3.457,0.438-5.161,0.825c-0.798-0.738-1.596-1.475-2.355-2.177
				c-1.499,0-2.96,0-4.323,0c-0.871,0.786-1.67,1.508-2.518,2.272c-1.445,0-2.889,0-4.732,0c-0.942,3.182-0.314,6.452-0.528,9.695
				c0.725,0.777,1.465,1.571,2.2,2.359c-0.978,1.472-2.564,0.84-3.91,1.146c-1.304,0.297-2.504,1.044-3.96,1.686
				c-1.952-1.104-4.3-2.434-6.893-3.9c-2.098,0.306-4.725-0.904-7.065,0.77c1.174,3.32,4.917-0.345,6.254,2.482
				c-1.664,0.87-3.39,1.771-6.044,3.159c-4.829,0-10.666,0-17.452,0c-0.817-1.122-2.104-2.89-3.066-4.212c-3,0-5.194,0-7.436,0
				c-0.753,0.695-1.55,1.432-2.373,2.192c-1.438,0-2.902,0-3.649,0c-2.902,1.556-5.238,2.81-7.604,4.079
				c-0.517-0.518-1.037-1.037-1.736-1.736c-0.718,0.584-1.457,1.185-2.391,1.945c-1.944,0-4.122,0-6.373,0
				c-1.06,1.004-2.106,1.996-3.384,3.209c0.576,0.728,1.151,1.455,1.741,2.201c-1.019,1.808-2.074,3.68-3.546,6.289
				c-0.411-2.859-0.705-4.897-1.062-7.38c-1.158,0.942-1.896,1.544-2.829,2.304c-3.416,0-7.063,0-10.717,0
				c-0.849,0.761-1.65,1.479-2.461,2.205c-1.405-0.913-1.414-2.174-0.772-3.587c2.263-0.937,4.812-1.429,6.143-3.962
				c-2.25-2.564-5.432-0.277-7.926-1.483c-0.52-0.52-1.04-1.04-1.555-1.556c-2.348,1.235-4.694,2.469-7.666,4.03
				c-1.417,0-3.612,0-5.997,0c-0.888,1.024-1.847,2.129-3.06,3.528c1.027,1.028,2.397,2.119,3.392,3.484
				c0.778,1.066,1.09,2.472,1.617,3.742c2.167-0.211,1.139-2.021,1.58-3.134c1.011-1.011,2.051-2.05,3.09-3.09
				c2.474,0.116,5.033-0.775,7.42,0.62c-0.922,2.478-2.84,3.227-5.247,4.098c-2.219,0.803-3.838,3.267-5.681,4.962
				c0.371,1.382,0.636,2.369,0.975,3.632c1.045-0.912,1.807-1.576,2.653-2.314c1.345,0,2.804,0,4.306,0
				c0.749,0.682,1.539,1.398,2.519,2.29c0.479-1.38,0.924-2.66,1.361-3.921c1.578-0.662,3.145-1.318,6.174-2.589
				c4.187,0,10.008,0,16.436,0c0.337,0.266,1.162,0.912,2.09,1.641c4.707,0.202,4.707,0.202,11.136-3.995
				c0.78,0.691,1.559,1.384,3.005,2.666c2.251-2.274,4.541-4.586,7.222-7.294c0.722,0.463,1.871,1.2,3.193,2.048
				c0.552-0.48,1.313-1.144,2.16-1.882c2.077,0,4.271,0,6.428,0c0.831-0.755,1.621-1.475,2.145-1.951
				c1.94,0.997,3.767,1.936,5.593,2.876c0.047,0.717,0.094,1.432,0.154,2.354c-1.439,0.682-2.947,1.397-4.649,2.205
				c1.657,0.774,3.128,1.462,4.812,2.249c-1.668,0.813-3.066,1.494-4.541,2.212c1.671,1.971,3.692,0.44,5.24,1.243
				c1.731-2.794,5.177-2.368,7.228-4.487c0.699-0.723,2.772-0.115,3.898-0.115c1.024,0.844,1.769,1.457,2.497,2.057
				c1.461-1.461,2.76-2.76,4.162-4.162c2.075,0,4.251,0,6.661,0c0.621,0.559,1.422,1.277,2.302,2.067c3.558,0,7.222,0,11.114,0
				c1.959-3.387,5.855-4.302,9.023-6.279c2.205,1.466,2.711,4.007,4.051,6.367c0.758-1.575,1.44-2.997,2.127-4.426
				c0.79,0,1.514,0,2.283,0c0.746,0.679,1.537,1.398,2.797,2.545c1.293-1.724,2.603-3.472,3.581-4.777
				c3.624-0.099,5.343,3.92,9.218,1.901c0.346-0.291,1.158-0.975,2.276-1.915c4.767,0,9.886-0.009,15.004,0.024
				c0.29,0.002,0.579,0.352,0.868,0.54c0.448,1.279,0.896,2.56,1.383,3.955c0.973-0.886,1.754-1.599,2.562-2.334
				c1.436,0,2.9,0,4.612,0c0.424-1.226,0.867-2.507,1.311-3.787c1.968-1.595,5.315,0.797,6.751-2.337
				c2.465-0.184,4.93-0.367,6.857-0.511c1.221,0.956,1.943,1.521,2.631,2.06c0.769-0.768,1.288-1.287,1.917-1.916
				c3.536,0,7.181,0,10.685,0c1.249-0.928,2.352-1.746,3.84-2.852c1.971,1.678,3.796,3.229,5.62,4.781
				c2.08-2.079,4.159-4.158,6.347-6.346c2.802,0,5.713,0,8.628,0c0.854-0.761,1.655-1.477,2.546-2.271c0.604,0,1.326,0,2.113,0
				c0.738,0.686,1.534,1.424,2.35,2.181c1.445,0,2.91,0,4.304,0c0.845,0.774,1.642,1.504,2.261,2.072
				c2.406,0.742,3.299-1.328,4.847-2.23c2.919,1.01,5.517,3.055,9.064,2.601c0.173,1.132,0.325,2.133,0.46,3.017
				c-0.402,0.402-0.66,0.886-0.922,0.889c-4.38,0.047-8.76,0.033-13.562,0.033c-1.266,1.603-2.619,3.316-3.651,4.624
				c-2.181,0-3.646,0-5.368,0c-0.42-1.218-0.861-2.499-1.393-4.041c-2.227,0.376-3.002,2.59-5.145,4.085c-1.91,0-4.376,0-6.436,0
				c-3.051,2.913,0.383,3.957,0.947,5.906c-1.267,0.452-2.543,0.908-3.821,1.365c-1.517,2.518,1.138,5.833-1.616,8.187
				c-0.729-1.529-1.446-3.032-2.131-4.467c-0.924,0.067-1.639,0.119-2.352,0.171c-1.041,1.039-2.08,2.079-3.138,3.138
				c0,0.712,0,1.441,0,2.194c-1.806,0.932-3.605,1.86-5.726,2.955c-0.438-0.377-1.195-1.027-1.849-1.588
				c-1.444,0.811-2.893,1.622-5.941,3.331c-0.493,0.493-2.312,2.313-4.147,4.148c0,1.45,0,2.916,0,4.359
				c-2.77,3.438-6.822,4.648-10.659,6.284c-0.229,1.768,1.952,1.77,2.05,3.442c4.885,0.659,9.609-0.054,14.305,0.438
				c1.195,1.152,1.305,2.407,0.156,4.008c-5.994,0-12.137,0-18.254,0c-0.549-0.549-1.07-1.068-1.33-1.328
				c-2.375,0.695-4.582,1.342-6.939,2.032c-0.907-1.829-1.638-3.305-2.406-4.858c-1.603,1.514-3.152,2.978-4.822,4.555
				c-3.014-0.526-5.396-3.435-8.713-2.536c-0.623-0.622-1.143-1.142-1.662-1.662c-1.812,0.279-2.966,3.265-5.467,1.181
				c-0.31-1.885-0.643-3.905-1.236-7.512c-2.781,3.604-4.764,6.172-6.479,8.395c-4.988-1.34-7.679,3.715-12.219,1.503
				c-0.689,4.026-0.125,7.294-0.436,10.514c-2.183,2.101-4.875,0.582-7.479,1.037c-0.684,0.602-1.488,1.31-2.403,2.114
				c-2.046,0-4.234,0-6.548,0c-0.696-0.648-1.488-1.387-2.623-2.445c-0.422,2.248-0.8,4.265-1.176,6.274
				c-0.669,0.22-1.398,0.729-1.945,0.579c-0.97-0.27-1.828-0.939-3.235-1.719c-0.351,0.267-1.047,0.796-2.025,1.54
				c-1.429,0.154-3.167,0.343-4.858,0.525c-1.397,2.466-0.404,5.063-0.815,7.541c-2.17,2.116-4.867,0.584-7.479,1.044
				c-0.678,0.594-1.483,1.299-2.407,2.107c-2.77,0-5.693,0-7.852,0c-1.957,1.355-3.425,2.372-4.079,2.826
				c-0.56,3.48,1.604,4.142,2.857,5.922c0.716-0.542,1.41-1.068,2.464-1.868c2.51,0,5.396,0,7.61,0
				c2.443-1.226,4.269-2.141,6.237-3.128c0.377-1.066,0.829-2.342,1.58-4.463c0.663,1.996,0.93,3.273,1.525,4.373
				C-3.702,333.446-2.759,333.537-2.13,333.798z M-134.555,200.233c-2.297-1.81-4.542-1.947-6.753,0.116
				c-1.861,1.736-3.908,1.079-5.938,0.496c-0.459-1.311-0.905-2.585-1.092-3.118c-2.143-1.125-3.645-1.914-5.498-2.888
				c-1.205,0.259-3.125-0.857-4.771,0.718c-0.176,1.642-0.362,3.374-0.537,5.014c-1.148,1.091-2.189,2.081-3.029,2.879
				c-2.556,0.916-3.217-1.61-3.938-1.827c-4.546,0-8.167-0.017-11.788,0.032c-0.262,0.004-0.518,0.484-0.988,0.955
				c0.263,0.832,0.304,2.053,0.933,2.709c1.091,1.138,1.79,2.217,1.303,3.941c-1.328,0.626-2.77,1.307-6.622,3.123
				c9.3,0.004,16.139,0.001,23.112,0.002c0.725-0.643,1.525-1.351,2.428-2.151c1.312,0,2.761,0,4.229,0
				c1.582-1.512,3.146-3.007,4.731-4.521c1.459,0,2.91,0,3.523,0C-141.238,203.658-137.909,201.952-134.555,200.233z
				 M-189.767,183.038c-1.937,0.358-4.077,0.43-5.941,1.182c-2.212,0.895-4.188,2.375-6.311,3.629
				c-0.882-0.672-1.954-1.49-4.083-3.111c-0.5,3.179-5.34,3.09-2.876,7.336c3.607,2.272,6.308-2.252,9.875-1.695
				c0.366,2.387,0.677,4.41,0.976,6.354c2.192,0.089,3.98,0.699,6.13-0.695c-0.141-1.02-0.315-2.275-0.445-3.211
				c-1.609-0.33-2.613-0.535-4.102-0.841c0.314-1.52,0.57-2.755,0.81-3.914c2.744,0,4.94,0,7.026,0
				c0.841-0.737,1.604-1.404,2.301-2.015c0.918,0.775,1.73,1.461,2.23,1.884c1.821,0,3.246,0,4.341,0
				c1.003-0.776,1.719-1.33,2.397-1.855c0.792,0.792,1.312,1.312,2.125,2.124c2.902-0.584,6.156,0.507,9.15-0.435
				c1.157-1.274,2.111-2.326,2.953-3.253c-0.083-1.715-0.151-3.132-0.254-5.261c-6.335,0.055-12.483-0.044-18.538,0.05
				c-0.833,0.73-1.596,1.4-2.356,2.068c-1.63-1.736-3.167-3.439-5.409-0.999C-189.767,181.114-189.767,181.85-189.767,183.038z
				 M-95.378,290.243c2.574,1.505,4.428,2.59,6.5,3.801c1.868,0,4.039,0,6.148,0c0.826-0.768,1.61-1.497,2.393-2.226
				c2.203,0,4.369,0,6.532,0c1.078-3.46,4.675-6.229,2.356-11.169c-2.506,2.957-6.742,2.998-8.622,6.602
				c-1.258-0.73-2.336-1.836-3.482-1.911c-1.742-0.112-2.301-1.597-3.509-2.136c-0.796-0.356-1.95,0.088-2.89,0.169
				c-0.412,2.297-0.771,4.292-1.078,6.005C-92.495,289.67-93.49,289.868-95.378,290.243z M-341.539,77.557
				c-0.291,1.437-0.493,2.433-0.682,3.372c1.154,1.127,2.194,2.143,3.337,3.259c1.595,0.949,4.181-1.223,5.438,1.373
				c-0.642,0.767-1.265,1.51-1.902,2.271c2.106,1.441,4.088,1.244,5.461,0.567c3.015-2.796-0.939-3.662-0.704-5.872
				c0.94-0.143,1.934-0.293,2.947-0.446c0.771,1.609,1.481,3.089,2.306,4.811c1.108-0.477,2.063-0.819,2.949-1.291
				c0.606-0.323,1.06-0.964,1.682-1.216c0.922-0.374,1.933-0.529,3.877-1.025c-2.178-0.736-3.407-1.152-5.945-2.01
				c-2.619-2.81-6.076-6.533-9.574-10.219c-0.172-0.182-0.703-0.023-2.033-0.023c-0.904,0.742-1.746,1.891-0.584,3.828
				c1.304,0.455,2.571,0.896,3.952,1.378c-0.144,1.174-0.265,2.165-0.414,3.375c-2.658,0-5.113,0-7.497,0
				C-339.688,79.065-340.422,78.468-341.539,77.557z M-162.216,249.913c-3.622,0-7.266,0-10.91,0
				c-4.124,4.218-4.409,5.079-1.518,6.858c1.149-1.63,2.396-3.401,3.155-4.48c2.423,0,3.833,0,5.243,0
				c3.272,0.927,2.276,4.396,3.875,6.207c0.059,0.065,0.49-0.196,0.88-0.361c0.308-1.932,0.628-3.938,0.933-5.846
				c1.16-0.077,1.87-0.124,2.663-0.177c0.739,0.697,1.488,1.472,2.321,2.143c0.217,0.175,0.695,0.026,1.139,0.026
				c2.838-1.707,6.407-2.404,9.326-6.187c-3.551,0.34-5.316-1.735-7.179-3.708c-0.352-0.373-0.982-0.483-1.452-0.7
				c-1.36,1.359-2.648,2.647-3.978,3.977c-0.677,0-1.395,0-2.116,0C-160.636,248.422-161.42,249.162-162.216,249.913z
				 M-306.764,192.965c0,1.391,0,2.124,0,2.871c1.811,1.803,3.628,3.613,5.495,5.472c1.398,0,2.854,0,4.29,0
				c0.822,0.768,1.614,1.508,2.421,2.26c1.447,0,2.91,0,4.303,0c0.811,0.731,1.577,1.422,2.051,1.85
				c2.022-1.036,3.844-1.971,5.873-3.011c-0.721-1.587,0.693-3.52-1.052-5.321c-0.726,0.576-1.455,1.153-2.281,1.81
				c-2.321,0-4.783,0-6.998,0c-1.801-1.801-3.356-3.356-4.912-4.911c-0.42-1.229-0.84-2.455-1.396-4.08
				c-0.902,1.881-1.582,3.301-2.234,4.664c-1.025-0.773-1.8-1.572-2.744-1.986C-304.485,192.345-305.298,192.734-306.764,192.965z
				 M136.26,220.005c4.654-2.014,9.086-0.221,11.692-0.94c4.675-2.399,7.622-4.962,11.813-4.532
				c0.386,0.039,0.859-0.784,1.293-1.207c-1.05-1.051-2.079-2.079-3.108-3.111c-1.71,0.283-3.583-0.715-5.148,0.648
				c-0.426,1.281-0.847,2.55-1.237,3.73c-3.21,0-6.121,0-8.908,0c-1.146,0.9-2.216,1.74-3.568,2.803
				c-2.07-1.796-3.842-3.334-5.604-4.863c-0.367,0.365-0.842,0.617-0.848,0.881c-0.076,3.263-0.118,6.527-0.083,9.79
				c0.007,0.646,0.376,1.288,0.58,1.935c2.038,0.551,4.089,1.249,5.81-0.408C138.112,223.265,137.293,221.823,136.26,220.005z
				 M241.738-34.849c-2.406,0.285-4.993-0.763-8.149,1.25c1.526,1.113,2.861,2.087,4.356,3.177c1.827,0.113,3.974-0.554,5.721,1.628
				c0.621,0.777,2.834,0.879,4.033,0.462c2.215-0.771,4.146-2.325,6.329-3.229c2.074-0.859,4.319-1.307,6.79-2.022
				c-2.645-2.265-5.278-1.04-7.713-1.228c-2.468-0.188-4.963-0.041-6.893-0.041c-1.066-1.066-1.584-1.583-2.143-2.143
				C243.302-36.288,242.533-35.581,241.738-34.849z M11.348,275.737c1.184,0.419,2.701,0.579,3.669,1.394
				c1.185,0.997,2.198,1.844,4.879,1.164c0.655-0.911,1.888-2.626,2.688-3.741c2.775,0.717,3.227,3.339,5.583,3.627
				c0.927-1.009,1.832-1.993,2.771-3.014c-2.527-1.786-3.686-4.855-6.789-5.524c-1.212,0.721-2.314,1.375-3.415,2.03
				c-0.519-0.518-1.036-1.035-1.554-1.552c-1.113,0.622-2.162,1.455-3.355,1.814c-1.573,0.475-3.668-0.788-4.713,1.451
				C11.184,274.104,11.254,274.808,11.348,275.737z M226.496,95.024c-1.516-0.879-2.692-1.562-4.25-2.467
				c-1.448,1.392-2.652,2.549-3.856,3.706c0.75,0.75,1.008,1.233,1.27,1.236c4.401,0.046,8.803,0.033,12.866,0.033
				c1.432-0.801,2.57-1.85,3.848-2.06c2.122-0.348,2.794-2.196,4.154-3.297c0.808-0.653-0.176-2.893-1.255-3.093
				c-1.3,1.299-2.599,2.599-4.077,4.077c-0.718-1.501-1.401-2.929-2.099-4.384C230.763,90.985,228.491,93.136,226.496,95.024z
				 M129.26,203.554c1.673-0.385,3.596,0.759,5.777-1.379c-1.242-0.99-2.471-1.971-3.637-2.899c-0.95,0.806-1.755,1.487-2.494,2.113
				c-1.832-0.342-3.813,0.745-5.121-1.021c-0.385-1.162,0.717-2.983-1.865-3.086c-0.287,2.009-0.574,4.019-0.86,6.018
				c-4.365-0.476-7.147,2.266-11.151,3.996c3.812,1.095,7.055,0.489,10.297,0.698c0.762-0.693,1.553-1.414,2.412-2.196
				c1.355,0,2.804,0,4.265,0C127.677,205.048,128.461,204.307,129.26,203.554z M159.502,9.553c0.432,0.213,1.827,0.9,3.199,1.577
				c0.564-0.564,1.075-1.075,1.586-1.586c1.678-1.269,4.32,1.154,5.455-1.098c-1.024-2.023-1.936-3.821-2.891-5.705
				c-0.773,0.694-1.527,1.372-2.349,2.109c-1.343,0-2.778,0-4.69,0c-1.156-1.364-2.547-3.004-4.031-4.755
				c-1.802,1.04-3.781-0.563-4.969,0.768C153.286,3.335,155.733,5.783,159.502,9.553z M-61.468,23.314
				c-1.13-1.755-2.282-3.543-3.565-5.533c-0.896,1.882-1.553,3.259-2.258,4.736c-1.725-1.846-3.248-3.466-5.568-0.986
				c1.549,1.488,3.074,3.009,4.673,4.447c0.357,0.321,0.974,0.354,1.413,0.501c0.609-0.609,1.12-1.121,1.67-1.67
				c0.758,0.705,1.517,1.412,2.298,2.139c2.391-0.253,4.927,0.645,7.253-0.607c0.427-2.083,1.25-4.152-0.63-5.976
				c-0.684,0-1.397,0-2.19,0C-59.091,21.05-59.867,21.789-61.468,23.314z M-200.805,181.088c-0.916-1.886-2.184-3.333-4.384-4.081
				c-2.219-0.754-4.282-1.97-6.397-3.018c-0.309-0.153-0.543-0.483-0.776-0.762c-0.528-0.633-1.035-0.512-1.619,0.51
				c0,1.318,0,2.757,0,4.256c1.473,1.274,2.139,3.83,4.887,3.488c1.031-0.662,2.062-1.322,3.147-2.018
				c0.554,1.561,1.004,2.828,1.412,3.977C-202.294,183.988-200.673,183.89-200.805,181.088z M294.242-2.104
				c1.429,0.812,3.25,0.365,4.948,0.311s3.552,0.719,5.311-0.74c0-0.87,0-1.846,0-2.605c-1.134-1.199-2.118-2.238-3.051-3.223
				c-1.541,0-2.977,0-4.42,0C295.744-6.538,292.46-5.701,294.242-2.104z M180.324,3.404c-3.156-0.988-5.302-1.66-7.565-2.369
				c-0.781,0.832-1.712,1.823-2.912,3.102c1.296,0.366,2.266,0.64,4.105,1.158c0.81,0.976,2.182,2.626,3.521,4.237
				c1.07-0.98,1.829-1.678,2.545-2.333c0.807,0.697,1.554,1.343,2.586,2.234c0.339-1.26,0.599-2.23,0.92-3.427
				C182.385,5.081,181.271,4.175,180.324,3.404z M-282.481,174.207c0-1.183,0-1.913,0-2.628c-1.814-1.815-3.622-3.622-5.596-5.597
				c-1.66,1.854-3.334,3.726-5.236,5.851C-289.901,172.208-287.506,176.302-282.481,174.207z M-189.646,257.519
				c1.492,1.358,2.203,3.836,6.002,3.271c0.559-0.568,1.731-1.761,3.261-3.316c-1.999-0.709-3.267-1.16-4.544-1.613
				c-0.377-2.005-0.755-4.014-1.205-6.404c-1.988,1.121-3.983-0.47-5.866,1.57c1.504,0.696,2.856,1.323,4.189,1.94
				C-186.73,255.188-188.379,256.274-189.646,257.519z M-152.049,318.346c2.403,0,3.839,0,5.274,0
				c0.767-0.724,1.532-1.447,2.276-2.149c0.756,0.695,1.51,1.39,2.276,2.095c0.363-0.642,0.885-1.197,0.967-1.812
				c0.082-0.617-0.274-1.292-0.508-2.218c-0.906-0.103-1.906-0.277-2.912-0.317c-1.434-0.057-2.873-0.066-4.306,0.004
				c-0.991,0.048-1.975,0.264-3.067,0.42C-152.049,315.668-152.049,316.646-152.049,318.346z M-90.967,209.251
				c-0.831-1.211-1.809-2.635-2.283-3.326c-2.461,0-3.846,0-4.856,0c-1.322,1.205-2.364,2.156-3.463,3.158
				C-96.047,210.433-96.047,210.44-90.967,209.251z M108.282,209.112c-0.631-0.63-0.883-1.104-1.143-1.108
				c-3.252-0.051-6.504-0.066-9.756-0.005c-0.641,0.012-1.273,0.389-2.395,0.755c0.166,1.155,0.344,2.394,0.58,4.04
				c1.25-1.172,2.014-1.889,2.788-2.615c2.87,0,5.762,0.018,8.651-0.029C107.281,210.145,107.545,209.729,108.282,209.112z"/>
			<path fill="#A09F9F" d="M28.78,247.705c0.014,2.181-2.186,2.725-3.338,4.582c-2.967,0-6.162,0-8.976,0
				c-0.893,0.893-1.41,1.411-1.929,1.93c-0.406-0.489-0.997-0.923-1.168-1.485c-0.203-0.67,0.092-1.482-0.073-2.176
				c-0.521-2.184,1.923-2.857,2.229-4.586c0.288-1.624-0.791-3.592,1.156-4.769c0.824,0.733,1.625,1.444,2.729,2.425
				c2.845-1.451,5.75-2.934,8.615-4.396c0.625,0.624,1.143,1.143,1.648,1.649c1.842-0.51,1.039-2.236,1.572-3.385
				c1.475-1.608,3.428-0.447,5.143-0.834c0.785,0.734,1.576,1.473,2.366,2.211c2.194-0.002,4.391-0.002,6.61-0.002
				c1.926-1.712-0.522-2.112-0.958-3.241c-0.079-1.614-0.659-3.392,0.507-5.253c1.98,0.977,3.978,1.962,5.947,2.934
				c0,0.823,0,1.552,0,2.282c1.832,0.937,3.653,1.867,5.742,2.935c0.699-0.658,1.705-1.604,2.803-2.638
				c0.176-1.657,0.361-3.391,0.52-4.883c0.646-1.171,1.031-1.039,1.704-0.153c2.86,3.763,7.504,4.719,11.259,6.518
				c0,1.232,0,1.955,0,2.654c-1.417,1.864-3.406,0.736-5.329,1.119c-0.643,0.559-1.446,1.258-2.384,2.072c-1.274,0-2.719,0-4.172,0
				c-0.826,0.76-1.619,1.488-2.414,2.22c-0.764-0.7-1.551-1.424-2.299-2.11c-1.497,0-2.953,0-4.373,0
				c-2.884,2.883-5.732,5.731-8.688,8.688c-1.327,0-2.762,0-4.843,0c-1.026-1.281-2.388-2.979-3.452-4.309
				C32.436,247.705,30.606,247.705,28.78,247.705c-0.241-0.606-0.479-1.213-0.719-1.818c-6.958-0.444-6.958-0.444-8.25,0.849
				c0.264,0.957,0.588,2.138,0.822,2.986c2.771,0.875,3.599-1.109,4.97-2.017C26.661,247.705,27.717,247.705,28.78,247.705z"/>
			<path fill="#A09F9F" d="M83.961,230.046c2.769,0.39,3.578,3.381,5.861,4.414c3.227,0.417,3.979-2.76,6.023-4.143
				c2.242-0.637,5.164,0.564,6.712-2.385c2.149,0,4.319,0,7.019,0c1.113-1.512,2.412-3.271,3.865-5.246
				c4.525,2.238,8.469,4.189,12.462,6.164c-11.341,3.895-11.341,3.895-14.307,9.997c-1.444,0-2.901,0-4.329,0
				c-0.815,0.746-1.602,1.466-2.354,2.153c-0.767-0.68-1.528-1.355-2.483-2.203c-0.521,1.461-0.975,2.733-1.452,4.069
				c-1.935-0.208-3.026-2.297-5.476-1.98c-1.741,0.226-3.718-1.375-5.619-2.173c-0.901,0.787-1.704,1.489-2.574,2.249
				c-0.719-0.653-1.486-1.349-2.244-2.037c-0.762,0.711-1.549,1.446-2.682,2.506c-2.288-1.111-4.701-2.283-7.398-3.593
				c0.273-0.993,0.398-2.033,0.843-2.912c0.458-0.906,1.865-1.28,1.512-2.674c0.241-0.61,0.482-1.222,0.788-1.997
				c1.062,0.678,2.023,1.655,3.15,1.917C82.703,232.505,84.114,232.071,83.961,230.046z"/>
			<path fill="#A09F9F" d="M15.743,331.48c0-1.646,0-2.637,0-3.558c2.583-1.408,5.152-0.574,7.626-0.721
				c2.181-0.13,4.377-0.027,6.448-0.027c0.888-0.809,1.683-1.532,2.293-2.088c2.409-0.738,3.293,1.33,4.604,2.088
				c2.035,0,3.866,0,6.033,0c0.614,0.475,1.438,1.111,2.377,1.836c4.52,0.23,4.52,0.23,11.088-3.887
				c2.486-0.328,4.938-0.043,7.555-0.202c0.107,1.623,0.173,2.615,0.272,4.124c-3.312,0.635-6.554,0.201-9.765,0.352
				c-2.49,1.529-3.519,4.136-4.963,7.109c-1.455-0.84-2.859-1.648-4.242-2.447c-1.294,1.294-2.588,2.588-4.017,4.017
				c-0.737-0.619-1.485-1.249-2.31-1.941c-0.713,0.643-1.479,1.334-2.256,2.036c-1.891-1.289-0.795-3.282-1.133-5.133
				c0.604-0.731,1.277-1.543,1.99-2.404c-0.545-1.786-1.957-1.251-3.242-1.061c-1.044,1.045-2.08,2.08-3.094,3.095
				c0.705,0.769,1.408,1.537,2.177,2.376c-2.522,1.223-4.96,2.406-7.102,3.445c-2.975-1.695-0.854-4.361-2.247-6.284
				C21.702,330.816,19.107,331.885,15.743,331.48z"/>
			<path fill="#A09F9F" d="M201.625,114.878c1.207,1.136,1.993,1.876,2.741,2.581c3.982,0.037,7.908-0.061,13.677,0.13
				c-2.631,2.318-3.874,3.414-5.412,4.769c-1.329-0.732-2.512-1.385-4.821-2.658c-0.476,0.04-2.922-0.469-3.744,0.46
				c-1.82,2.057-3.854,1.61-6.139,1.729c-0.701-0.591-1.507-1.271-2.331-1.965c-3.533,2.216,0.296,3.731,0.625,5.635
				c-1.505,1.682-3.505,0.056-4.968,0.905c-0.973-0.915-1.759-1.654-2.486-2.34c-0.793,0-1.513,0-2.194,0
				c-0.554,0.554-1.07,1.07-1.809,1.809c-1.889-0.921-3.878-1.892-5.995-2.924c0.183-1.014,0.362-2.012,0.63-3.502
				c1.117,0.891,1.841,1.468,2.595,2.07c2.264-1.242,4.593-2.519,7.456-4.088c2.23,0,5.143,0,7.636,0
				C198.862,116.467,200.314,115.632,201.625,114.878z"/>
			<path fill="#A09F9F" d="M-2.13,333.798c0-2.537,0-5.073,0-7.492c1.416-3.41,5.504-2.996,7.481-5.509
				c3.345,0.694,5.757-1.95,8.677-2.584c1.443,2.094,1.281,3.303-0.828,6.233c0,1.246,0,2.662,0,3.952
				c-1.588,1.758-3.523,0.612-5.796,1.12c-1.05,1.256-2.433,2.909-3.577,4.279C1.493,333.798-0.319,333.798-2.13,333.798z"/>
			<path fill="#A09F9F" d="M61.887,307.308c1.086,0,2.174,0,3.584,0c0.381-1.167,0.792-2.427,1.214-3.719
				c2.306-1.43,4.866-0.417,7.375-0.705c0.455,0.496,0.942,1.027,1.21,1.32c2.721,2.008,5.912-0.236,8.088,1.454
				c-2.459,2.362-4.962,4.767-8.413,8.083c-1.176,0-4.021,0-7.116,0c-1.802-0.961-3.873-2.064-5.943-3.171
				C61.887,309.481,61.887,308.396,61.887,307.308z"/>
			<path fill="#A09F9F" d="M391.132-2.025c-2.495,0-4.217,0-5.435,0c-1.228,1.07-1.983,1.729-2.732,2.382
				c-1.385-1.384-2.675-2.675-3.961-3.96c-2.332,1.221-4.663,2.44-7.165,3.75c-0.492-0.451-1.258-1.153-2.058-1.887
				c-2.862,0-5.781,0.019-8.699-0.031c-0.27-0.005-0.532-0.446-0.799-0.686c-0.13-0.676-0.259-1.353-0.388-2.031
				c0.883-2.809,4.602-1.427,5.7-3.813c1.471,0,2.914,0,4.202,0c0.871,0.745,1.622,1.388,2.364,2.022
				c0.629-0.63,1.146-1.146,1.904-1.903c0.685,0.537,1.403,1.1,2.314,1.814c0.646-0.533,1.387-1.144,2.231-1.84
				c0.694,0.61,1.452,1.274,2.294,2.014c2.063,0,4.242,0,6.688,0C388.427-5.213,389.365-4.108,391.132-2.025z"/>
			<path fill="#A09F9F" d="M83.961,230.046c0.152,2.025-1.259,2.459-2.684,2.127c-1.127-0.262-2.088-1.239-3.15-1.917
				c-0.306,0.775-0.547,1.387-0.788,1.997c-1.331,0.25-1.827-0.596-2.215-1.645c-0.454-1.229-0.962-2.439-1.62-4.092
				c1.712-0.913,3.85-2.054,6.502-3.469c0.952,0.834,1.951,1.709,2.947,2.583c1.076,0,2.146,0,3.215,0
				c-0.493,0.861-1.017,1.708-1.47,2.59C84.401,228.802,84.204,229.436,83.961,230.046z"/>
			<path fill="#A09F9F" d="M6.229,139.539c0.807,0,2.246,0,4.221,0c0.246,1.101,0.518,2.316,0.727,3.249
				c-0.637,0.637-0.889,1.11-1.146,1.112c-5.329,0.043-10.66,0.032-16.12,0.032c-0.207-2.682,1.577-1.799,2.529-2.24
				c0.922-0.427,1.641-1.295,2.516-2.025c0.693,0.632,1.446,1.318,2.64,2.406C2.845,141.39,4.293,140.597,6.229,139.539z"/>
			<path fill="#A09F9F" d="M61.897,307.308c-2.562,0-5.115,0-7.669,0c-0.788,0.736-1.577,1.473-2.337,2.182
				c-0.753,0-1.475,0-2.434,0c-0.32-0.902-0.658-1.855-1.029-2.901c1.052-1.132,2.02-2.173,3.198-3.44c2.269,0,4.72,0,7.196,0
				C59.719,304.593,61.91,305.136,61.897,307.308z"/>
			<path fill="#A09F9F" d="M131.389,241.687c-1.243-1.639-2.24-2.953-3.271-4.311c0.062-0.62,0.13-1.32,0.204-2.062
				c2.234-1.797,4.86-0.478,7.393-0.875c0.718-0.656,1.508-1.38,2.393-2.191c1.705,1.808,3.438,3.646,5.217,5.531
				c-0.674,1.483-2.055,1.381-3.323,0.805c-3.624-1.648-3.599-1.703-6.716-1.569C132.78,238.263,132.273,239.51,131.389,241.687z"/>
			<path fill="#A09F9F" d="M114.534,155.168c4.275,0,7.448,0,10.299,0c0.533,0.476,0.991,0.687,1.033,0.962
				c0.111,0.709,0.038,1.446,0.038,2.455c-3.299,1.758-6.858,0.226-10.492,1.055C115.113,158.116,114.917,157.122,114.534,155.168z"
				/>
			<path fill="#A09F9F" d="M-44.059,213.507c0.733-0.774,1.667-1.442,2.134-2.35c0.431-0.837,0.36-1.932,0.525-3.014
				c2.009,0,3.704,0,5.688,0c0.22,1.089,0.418,2.066,0.619,3.061c-1.131,1.047-2.177,2.014-3.334,3.085
				C-40.237,214.45-42.359,215.502-44.059,213.507z"/>
			<path fill="#A09F9F" d="M42.11,121.879c2.758,0,5.607,0,8.457,0c0.187,0.458,0.373,0.916,0.559,1.374
				c-1.264,0.577-2.526,1.153-3.79,1.73c0.252,0.345,0.504,0.689,0.755,1.035c-2.459,0-4.92,0-7.887,0
				C40.874,124.563,41.483,123.238,42.11,121.879z"/>
			<path fill="#A09F9F" d="M-114.549-71.082c-3.605,0.341-5.616,3.175-8.442,5.837c-0.325-1.873-0.494-2.849-0.647-3.727
				c1.122-1.122,2.124-2.124,3.125-3.127C-118.527-72.198-116.398-73.305-114.549-71.082z"/>
			<path fill="#A09F9F" d="M334.511,13.712c-1.005-1.005-2.01-2.01-3.053-3.054c1.085-3.017,3.622-0.509,5.26-1.361
				c1.005,1.005,2.01,2.01,3.054,3.054C338.687,15.367,336.149,12.86,334.511,13.712z"/>
			<path fill="#A09F9F" d="M6.827,197.911c1.043-1.044,2.082-2.083,2.887-2.888c1.908,0.96,3.725,1.874,6.034,3.037
				c-1.11,0.444-1.933,0.708-2.694,1.094c-0.924,0.47-1.797,1.041-2.957,1.725C8.647,200.636,7.889,199.088,6.827,197.911z"/>
		</g>
	</g>
</g>
</svg>
