<?xml version="1.0" encoding="utf-8"?>
<!-- Generator: Adobe Illustrator 16.0.0, SVG Export Plug-In . SVG Version: 6.00 Build 0)  -->
<!DOCTYPE svg PUBLIC "-//W3C//DTD SVG 1.1//EN" "http://www.w3.org/Graphics/SVG/1.1/DTD/svg11.dtd">
<svg version="1.1" id="Layer_1" xmlns="http://www.w3.org/2000/svg" xmlns:xlink="http://www.w3.org/1999/xlink" x="0px" y="0px"
	 width="800px" height="20px" viewBox="0 0 800 20" enable-background="new 0 0 800 20" xml:space="preserve">
<g>
	<path fill="#41484D" d="M592,20c-61.333,0-122.667,0-184,0c0-1.333,0-2.667,0-4c10.562,0,21.126,0,32,0c0-2.783,0-5.393,0-8
		c5.333,0,10.667,0,16,0c0,2.617,0,5.234,0,8c2.973,0,5.612,0.038,8.249-0.011c2.59-0.048,5.204,0.209,7.751-0.144
		c0-2.859,0-5.354,0-7.847c5.333,0,10.667,0,16,0c0,2.62,0,5.24,0,7.831c14.22,0.572,35.86,0.379,40-0.343c0-2.496,0-4.992,0-7.488
		c10.667,0,21.333,0,32,0c0,2.608,0,5.217,0,8c10.874,0,21.438,0,32,0C592,17.333,592,18.667,592,20z"/>
	<path fill="#41484D" d="M184,20c-37.333,0-74.667,0-112,0c0-1.333,0-2.667,0-4c8.233,0,16.465,0,25,0c0-2.79,0-5.395,0-8
		c2.667,0,5.333,0,8,0c0,2.619,0,5.238,0,8c10.302,0,20.263,0.001,30.223-0.007c0.145,0,0.302-0.077,0.431-0.155
		c0.139-0.085,0.251-0.214,0.347-0.3c0-2.547,0-5.043,0-7.538c10.667,0,21.333,0,32,0c0,2.6,0,5.196,0,8c5.521,0,10.761,0,16,0
		C184,17.333,184,18.667,184,20z"/>
	<path fill="#41484D" d="M800,8c0,4,0,8,0,12c-29.333,0-58.667,0-88,0c0-1.333,0-2.667,0-4c15.75,0,31.501,0,47.251-0.007
		c0.142-0.001,0.3-0.088,0.42-0.177c0.128-0.092,0.221-0.234,0.329-0.355c0-2.486,0-4.974,0-7.461c2.667,0,5.333,0,8,0
		c0,2.617,0,5.234,0,8c2.973,0,5.612,0.038,8.249-0.011c2.59-0.048,5.204,0.209,7.751-0.144c0-2.859,0-5.354,0-7.847
		C789.333,8,794.667,8,800,8z"/>
	<path fill="#41484D" d="M64,20c-21.333,0-42.667,0-64,0c0-4,0-8,0-12c5.333,0,10.667,0,16,0c0,2.615,0,5.23,0,8.029
		c2.898-0.105,5.471,0.121,8-0.157c0-2.892,0-5.381,0-7.872c2.667,0,5.333,0,8,0c0,2.607,0,5.217,0,8c10.874,0,21.437,0,32,0
		C64,17.333,64,18.667,64,20z"/>
	<path fill="#41484D" d="M336,20c-16,0-32,0-48,0c0-1.333,0-2.667,0-4c7.9,0,15.8,0,24,0c0-2.791,0-5.396,0-8c5.333,0,10.667,0,16,0
		c0,2.586,0,5.172,0,8c2.828,0,5.414,0,8,0C336,17.333,336,18.667,336,20z"/>
	<path fill="#41484D" d="M664,20c-13.333,0-26.667,0-40,0c0-1.333,0-2.667,0-4c2.586,0,5.172,0,8,0c0-2.828,0-5.414,0-8
		c2.667,0,5.333,0,8,0c0,2.615,0,5.23,0,8.029c2.898-0.105,5.471,0.121,8-0.157c0-2.892,0-5.381,0-7.872c2.667,0,5.333,0,8,0
		c0,2.586,0,5.172,0,8c2.828,0,5.414,0,8,0C664,17.333,664,18.667,664,20z"/>
	<path fill="#6C6F71" d="M72,16c0-5.333,0-10.667,0-16c2.667,0,5.333,0,8,0c0,2.6,0,5.198,0,8c5.856,0,11.428,0,17,0
		c0,2.605,0,5.21,0,8C88.465,16,80.233,16,72,16z"/>
	<path fill="#6C6F71" d="M528,8c0-2.667,0-5.333,0-8c10.667,0,21.333,0,32,0c0,2.667,0,5.333,0,8C549.333,8,538.667,8,528,8z"/>
	<path fill="#6C6F71" d="M168,8c-10.667,0-21.333,0-32,0c0-2.667,0-5.333,0-8c10.667,0,21.333,0,32,0C168,2.667,168,5.333,168,8z"/>
	<path fill="#6C6F71" d="M664,20c0-1.333,0-2.667,0-4c16,0,32,0,48,0c0,1.333,0,2.667,0,4C696,20,680,20,664,20z"/>
	<path fill="#6C6F71" d="M208,16c16,0,32,0,48,0c0,1.333,0,2.667,0,4c-16,0-32,0-48,0C208,18.667,208,17.333,208,16z"/>
	<path fill="#6C6F71" d="M328,8c-5.333,0-10.667,0-16,0c0-2.667,0-5.333,0-8c5.333,0,10.667,0,16,0C328,2.667,328,5.333,328,8z"/>
	<path fill="#6C6F71" d="M456,8c-5.333,0-10.667,0-16,0c0-2.667,0-5.333,0-8c5.333,0,10.667,0,16,0C456,2.667,456,5.333,456,8z"/>
	<path fill="#6C6F71" d="M472,8c0-2.667,0-5.333,0-8c5.333,0,10.667,0,16,0c0,2.667,0,5.333,0,8C482.667,8,477.333,8,472,8z"/>
	<path fill="#6C6F71" d="M336,20c0-1.333,0-2.667,0-4c10.667,0,21.333,0,32,0c0,1.333,0,2.667,0,4C357.333,20,346.667,20,336,20z"/>
	<path fill="#6C6F71" d="M784,8c0-2.667,0-5.333,0-8c5.333,0,10.667,0,16,0c0,2.667,0,5.333,0,8C794.667,8,789.333,8,784,8z"/>
	<path fill="#6C6F71" d="M16,8C10.667,8,5.333,8,0,8c0-2.667,0-5.333,0-8c5.333,0,10.667,0,16,0C16,2.667,16,5.333,16,8z"/>
	<path fill="#41484D" d="M368,20c0-1.333,0-2.667,0-4c8,0,16,0,24,0c0,1.333,0,2.667,0,4C384,20,376,20,368,20z"/>
	<path fill="#6C6F71" d="M288,16c0,1.333,0,2.667,0,4c-5.333,0-10.667,0-16,0c0-1.333,0-2.667,0-4C277.333,16,282.667,16,288,16z"/>
	<path fill="#41484D" d="M272,16c0,1.333,0,2.667,0,4c-5.333,0-10.667,0-16,0c0-1.333,0-2.667,0-4C261.333,16,266.667,16,272,16z"/>
	<path fill="#6C6F71" d="M392,20c0-1.333,0-2.667,0-4c5.333,0,10.667,0,16,0c0,1.333,0,2.667,0,4C402.667,20,397.333,20,392,20z"/>
	<path fill="#6C6F71" d="M592,16c5.333,0,10.667,0,16,0c0,1.333,0,2.667,0,4c-5.333,0-10.667,0-16,0C592,18.667,592,17.333,592,16z"
		/>
	<path fill="#6C6F71" d="M184,20c0-1.333,0-2.667,0-4c5.333,0,10.667,0,16,0c0,1.333,0,2.667,0,4C194.667,20,189.333,20,184,20z"/>
	<path fill="#6C6F71" d="M24,8c0-2.667,0-5.333,0-8c2.667,0,5.333,0,8,0c0,2.667,0,5.333,0,8C29.333,8,26.667,8,24,8z"/>
	<path fill="#6C6F71" d="M97,8c0-2.667,0-5.333,0-8c2.667,0,5.333,0,8,0c0,2.667,0,5.333,0,8C102.333,8,99.667,8,97,8z"/>
	<path fill="#6C6F71" d="M640,8c-2.667,0-5.333,0-8,0c0-2.667,0-5.333,0-8c2.667,0,5.333,0,8,0C640,2.667,640,5.333,640,8z"/>
	<path fill="#6C6F71" d="M648,8c0-2.667,0-5.333,0-8c2.667,0,5.333,0,8,0c0,2.667,0,5.333,0,8C653.333,8,650.667,8,648,8z"/>
	<path fill="#6C6F71" d="M768,0c0,2.667,0,5.333,0,8c-2.667,0-5.333,0-8,0c0-2.667,0-5.333,0-8C762.667,0,765.333,0,768,0z"/>
	<path fill="#6C6F71" d="M64,16c2.667,0,5.333,0,8,0c0,1.333,0,2.667,0,4c-2.667,0-5.333,0-8,0C64,18.667,64,17.333,64,16z"/>
	<path fill="#41484D" d="M200,20c0-1.333,0-2.667,0-4c2.667,0,5.333,0,8,0c0,1.333,0,2.667,0,4C205.333,20,202.667,20,200,20z"/>
	<path fill="#41484D" d="M608,20c0-1.333,0-2.667,0-4c2.667,0,5.333,0,8,0c0,1.333,0,2.667,0,4C613.333,20,610.667,20,608,20z"/>
	<path fill="#6C6F71" d="M616,20c0-1.333,0-2.667,0-4c2.667,0,5.333,0,8,0c0,1.333,0,2.667,0,4C621.333,20,618.667,20,616,20z"/>
	<path fill="#6C6F71" d="M312,8c0,2.604,0,5.209,0,8c-8.2,0-16.1,0-24,0c0-2.604,0-5.209,0-8C296.2,8,304.1,8,312,8z"/>
	<path fill="#6C6F71" d="M272,16c-5.333,0-10.667,0-16,0c0-2.493,0-4.986,0-7.847c2.547-0.352,5.161-0.095,7.751-0.143
		C266.388,7.962,269.027,8,272,8C272,10.766,272,13.383,272,16z"/>
	<path fill="#6C6F71" d="M184,16c-5.239,0-10.479,0-16,0c0-2.804,0-5.4,0-8c5.239,0,10.479,0,16,0C184,10.804,184,13.4,184,16z"/>
	<path fill="#6C6F71" d="M208,16c-2.667,0-5.333,0-8,0c0-2.491,0-4.98,0-7.872c2.529-0.279,5.102-0.052,8-0.157
		C208,10.77,208,13.385,208,16z"/>
	<path fill="#6C6F71" d="M440,8c0,2.607,0,5.217,0,8c-10.874,0-21.438,0-32,0c0-2.607,0-5.217,0-8C418.874,8,429.438,8,440,8z"/>
	<path fill="#6C6F71" d="M392,16c-8,0-16,0-24,0c0-2.494,0-4.989,0-7.483c0.114-0.119,0.212-0.261,0.346-0.352
		c0.124-0.083,0.284-0.158,0.429-0.158C376.403,7.999,384.031,8,392,8C392,10.763,392,13.381,392,16z"/>
	<path fill="#6C6F71" d="M336,16c-2.586,0-5.172,0-8,0c0-2.828,0-5.414,0-8c2.586,0,5.172,0,8,0C336,10.828,336,13.414,336,16z"/>
	<path fill="#6C6F71" d="M488,8c13.333,0,26.667,0,40,0c0,2.496,0,4.992,0,7.488c-4.14,0.722-25.78,0.916-40,0.343
		C488,13.24,488,10.62,488,8z"/>
	<path fill="#6C6F71" d="M560,8c10.562,0,21.126,0,32,0c0,2.783,0,5.393,0,8c-10.562,0-21.126,0-32,0C560,13.217,560,10.607,560,8z"
		/>
	<path fill="#6C6F71" d="M456,8c5.333,0,10.667,0,16,0c0,2.493,0,4.986,0,7.848c-2.547,0.352-5.161,0.094-7.751,0.143
		C461.612,16.038,458.973,16,456,16C456,13.234,456,10.617,456,8z"/>
	<path fill="#6C6F71" d="M760,8c0,2.487,0,4.975,0,7.461c-0.107,0.121-0.2,0.264-0.329,0.355c-0.12,0.089-0.278,0.176-0.42,0.177
		C743.501,16,727.75,16,712,16c0-2.487,0-4.975,0-7.461c0.107-0.121,0.2-0.264,0.329-0.356c0.12-0.088,0.278-0.175,0.42-0.176
		C728.499,8,744.25,8,760,8z"/>
	<path fill="#6C6F71" d="M664,16c-2.586,0-5.172,0-8,0c0-2.828,0-5.414,0-8c2.586,0,5.172,0,8,0C664,10.828,664,13.414,664,16z"/>
	<path fill="#6C6F71" d="M105,8c10.333,0,20.667,0,31,0c0,2.495,0,4.991,0,7.538c-0.096,0.086-0.208,0.215-0.347,0.3
		c-0.128,0.078-0.286,0.155-0.431,0.155C125.263,16.001,115.302,16,105,16C105,13.238,105,10.619,105,8z"/>
	<path fill="#6C6F71" d="M632,8c0,2.586,0,5.172,0,8c-2.828,0-5.414,0-8,0c0-2.586,0-5.172,0-8C626.828,8,629.414,8,632,8z"/>
	<path fill="#6C6F71" d="M616,16c-2.667,0-5.333,0-8,0c0-2.491,0-4.98,0-7.872c2.529-0.279,5.102-0.052,8-0.157
		C616,10.77,616,13.385,616,16z"/>
	<path fill="#6C6F71" d="M768,8c5.333,0,10.667,0,16,0c0,2.493,0,4.986,0,7.848c-2.547,0.352-5.161,0.094-7.751,0.143
		C773.612,16.038,770.973,16,768,16C768,13.234,768,10.617,768,8z"/>
	<path fill="#6C6F71" d="M32,8c10.563,0,21.126,0,32,0c0,2.783,0,5.393,0,8c-10.563,0-21.126,0-32,0C32,13.217,32,10.607,32,8z"/>
	<path fill="#6C6F71" d="M16,8c2.667,0,5.333,0,8,0c0,2.491,0,4.98,0,7.872c-2.529,0.278-5.102,0.052-8,0.157
		C16,13.23,16,10.615,16,8z"/>
	<path fill="#6C6F71" d="M640,8c2.667,0,5.333,0,8,0c0,2.491,0,4.98,0,7.872c-2.529,0.278-5.102,0.052-8,0.157
		C640,13.23,640,10.615,640,8z"/>
</g>
</svg>
