<?xml version="1.0" encoding="utf-8"?>
<!-- Generator: Adobe Illustrator 16.0.0, SVG Export Plug-In . SVG Version: 6.00 Build 0)  -->
<!DOCTYPE svg PUBLIC "-//W3C//DTD SVG 1.1//EN" "http://www.w3.org/Graphics/SVG/1.1/DTD/svg11.dtd">
<svg version="1.1" id="player" xmlns="http://www.w3.org/2000/svg" xmlns:xlink="http://www.w3.org/1999/xlink" x="0px" y="0px"
	 width="841.535px" height="841.535px" viewBox="0 -196.127 841.535 841.535" enable-background="new 0 -196.127 841.535 841.535"
	 xml:space="preserve">
<polygon points="785.376,224.64 785.376,168.48 729.216,168.48 673.056,168.48 616.896,168.48 560.735,168.48 504.576,168.48 
	504.576,112.32 504.576,56.16 448.416,56.16 448.416,0 393.119,0 393.119,56.16 336.96,56.16 336.96,112.32 336.96,168.48 
	280.8,168.48 224.64,168.48 168.479,168.48 112.319,168.48 56.159,168.48 56.159,224.64 0,224.64 0,280.8 0,336.96 0,393.121 
	0,449.281 56.159,449.281 112.319,449.281 168.479,449.281 224.64,449.281 280.8,449.281 336.96,449.281 393.119,449.281 
	448.416,449.281 504.576,449.281 560.735,449.281 616.896,449.281 673.056,449.281 729.216,449.281 785.376,449.281 
	841.535,449.281 841.535,393.121 841.535,336.96 841.535,280.8 841.535,224.64 "/>
</svg>
