<?xml version="1.0" encoding="utf-8"?>
<!-- Generator: Adobe Illustrator 16.0.0, SVG Export Plug-In . SVG Version: 6.00 Build 0)  -->
<!DOCTYPE svg PUBLIC "-//W3C//DTD SVG 1.1//EN" "http://www.w3.org/Graphics/SVG/1.1/DTD/svg11.dtd">
<svg version="1.1" id="Capa_1" xmlns="http://www.w3.org/2000/svg" xmlns:xlink="http://www.w3.org/1999/xlink" x="0px" y="0px" viewBox="0 0 2059.337 1600" enable-background="new 0 0 2059.337 1600" xml:space="preserve">
<g>
	<path fill="#FDFDFD" d="M424.182,634.406c25.125-157.929,222.536-326.626,376.876-330.215c10.768,0,21.536-3.59,28.714-10.768
		c7.179-3.589,14.357-7.179,17.947-17.947c53.839-100.5,25.125-179.465-64.607-244.072c-104.09-75.375-269.197,0-351.752,68.197
		C223.181,271.887,11.412,569.793,22.18,853.354c-35.893,190.245-28.714,394.829,25.125,563.52
		c35.894,107.686,139.982,161.524,247.662,168.697c107.679,7.196,330.215,39.482,427.126-25.119s104.09-190.232,114.857-297.905
		c10.769-118.447,43.071-340.989-57.429-434.312C679.021,738.496,391.877,835.407,424.182,634.406z"/>
	<path fill="#FDFDFD" d="M1608.655,634.406c25.119-157.929,222.524-326.626,376.876-330.215c10.769,0,21.536-3.59,28.715-10.768
		c7.19-3.589,14.357-7.179,17.959-17.947c53.839-100.5,25.119-179.465-64.607-244.072c-104.09-75.375-269.197,0-351.77,68.197
		c-208.174,172.286-419.947,470.198-409.18,753.752c-35.887,190.245-28.715,394.829,25.119,563.52
		c35.893,107.686,139.982,161.524,247.668,168.697c107.684,7.196,330.221,39.482,427.126-25.119s104.09-190.232,114.857-297.905
		c10.769-118.447,43.071-340.989-57.423-434.312C1863.49,738.496,1572.757,835.407,1608.655,634.406z"/>
</g>
</svg>
