<svg version="1.1" id="Layer_1" xmlns="http://www.w3.org/2000/svg" xmlns:xlink="http://www.w3.org/1999/xlink" x="0px" y="0px" viewBox="4.873 4.43 296.127 452.903" enable-background="new 4.873 4.43 296.127 452.903"
	 xml:space="preserve">
<g>
	<rect x="164.146" y="6.93" fill="#37B44A" width="134.354" height="134.355"/>
	<path fill="#2F2F2F" d="M296,9.43v129.355H166.646V9.43H296 M301,4.43H161.646v139.355H301V4.43L301,4.43z"/>
</g>
<g>
	<rect x="164.146" y="163.704" fill="#37B44A" width="134.354" height="134.354"/>
	<path fill="#2F2F2F" d="M296,166.204v129.354H166.646V166.204H296 M301,161.204H161.646v139.354H301V161.204L301,161.204z"/>
</g>
<g>
	<rect x="164.146" y="320.479" fill="#37B44A" width="134.354" height="134.354"/>
	<path fill="#2F2F2F" d="M296,322.979v129.354H166.646V322.979H296 M301,317.979H161.646v139.354H301V317.979L301,317.979z"/>
</g>
<g>
	<rect x="7.373" y="320.479" fill="#37B44A" width="134.355" height="134.354"/>
	<path fill="#2F2F2F" d="M139.228,322.979v129.354H9.873V322.979H139.228 M144.228,317.979H4.873v139.354h139.355V317.979
		L144.228,317.979z"/>
</g>
</svg>
