<?xml version="1.0" encoding="utf-8"?>
<!-- Generator: Adobe Illustrator 16.0.0, SVG Export Plug-In . SVG Version: 6.00 Build 0)  -->
<!DOCTYPE svg PUBLIC "-//W3C//DTD SVG 1.1//EN" "http://www.w3.org/Graphics/SVG/1.1/DTD/svg11.dtd">
<svg version="1.1" id="Layer_1" xmlns="http://www.w3.org/2000/svg" xmlns:xlink="http://www.w3.org/1999/xlink" x="0px" y="0px"
	 width="750.644px" height="281.491px" viewBox="0 0 750.644 281.491" enable-background="new 0 0 750.644 281.491"
	 xml:space="preserve">
<path d="M93.822,234.55h46.976v46.941h46.829V234.55h46.992v-46.906h93.796v46.906h93.822v-46.906h93.804v46.906h46.977v46.941
	h46.846V234.55h46.984v-46.906h93.796V140.72h-46.829V93.821h-46.976V46.889h-93.821V0H187.618v46.889H93.822v46.933H46.993v46.898
	H0v46.924h93.822V234.55z M563.018,93.821h46.846v46.898h-46.846V93.821z M422.237,93.821h46.984v46.898h-46.984V93.821z
	 M281.586,93.821h46.829v46.898h-46.829V93.821z M140.789,93.821h46.829v46.898h-46.829V93.821z"/>
</svg>
