<?xml version="1.0" encoding="utf-8"?>
<!-- Generator: Adobe Illustrator 16.0.0, SVG Export Plug-In . SVG Version: 6.00 Build 0)  -->
<!DOCTYPE svg PUBLIC "-//W3C//DTD SVG 1.1//EN" "http://www.w3.org/Graphics/SVG/1.1/DTD/svg11.dtd">
<svg version="1.1" id="Layer_1" xmlns="http://www.w3.org/2000/svg" xmlns:xlink="http://www.w3.org/1999/xlink" x="0px" y="0px"
	 width="3200px" height="1600px" viewBox="0 0 3200 1600" enable-background="new 0 0 3200 1600" xml:space="preserve">
<g>
	<a id="prevPost">
		<path fill="#FCFCFC" d="M0,0v0.014C0.644-0.004,1.274,0.01,1.899,0.04c5.854,0.188,9.39,1.502,13.764,4.391
			C91.201,54.339,98.122,55.453,100,56.771V0H0z"/>
		<g id="prevArrow">
			<g id="pixel-arrow">
				<path d="M59.683,17.486c-0.128-0.272-0.191-0.592-0.191-0.96c0-0.384,0.063-0.704,0.191-0.96h11.52
					c0.128,0.256,0.191,0.576,0.191,0.96c0,0.368-0.063,0.688-0.191,0.96H59.683z"/>
				<path d="M71.203,19.407c0.128,0.256,0.191,0.576,0.191,0.96c0,0.368-0.063,0.688-0.191,0.96h-11.52
					c-0.128-0.272-0.191-0.592-0.191-0.96c0-0.384,0.063-0.704,0.191-0.96H71.203z"/>
				<path d="M86.373,18.447c0,0.368-0.064,0.688-0.191,0.96h-2.402c0.129,0.256,0.193,0.576,0.193,0.96
					c0,0.368-0.064,0.688-0.193,0.96h-2.398c0.129,0.256,0.191,0.576,0.191,0.96c0,0.368-0.062,0.688-0.191,0.96h-2.4
					c0.127,0.256,0.193,0.576,0.193,0.96c0,0.368-0.066,0.688-0.193,0.96h-3.84c-0.127-0.271-0.193-0.592-0.193-0.96
					c0-0.384,0.066-0.704,0.193-0.96h2.4c-0.129-0.271-0.191-0.592-0.191-0.96c0-0.384,0.062-0.704,0.191-0.96h2.398
					c-0.127-0.272-0.191-0.592-0.191-0.96c0-0.384,0.064-0.704,0.191-0.96h2.402c-0.129-0.272-0.193-0.592-0.193-0.96
					c0-0.384,0.064-0.704,0.193-0.96H79.94c-0.127-0.272-0.191-0.592-0.191-0.96c0-0.384,0.064-0.704,0.191-0.96h-2.398
					c-0.129-0.272-0.191-0.592-0.191-0.96c0-0.384,0.062-0.704,0.191-0.96h-2.4c-0.127-0.272-0.193-0.592-0.193-0.96
					c0-0.384,0.066-0.704,0.193-0.96h3.84c0.127,0.256,0.193,0.576,0.193,0.96c0,0.368-0.066,0.688-0.193,0.96h2.4
					c0.129,0.256,0.191,0.576,0.191,0.96c0,0.368-0.062,0.688-0.191,0.96h2.398c0.129,0.256,0.193,0.576,0.193,0.96
					c0,0.368-0.064,0.688-0.193,0.96h2.402C86.309,17.743,86.373,18.062,86.373,18.447z"/>
			</g>
		</g>
	</a>
</g>
</svg>
