<?xml version="1.0" encoding="utf-8"?>
<!-- Generator: Adobe Illustrator 16.0.0, SVG Export Plug-In . SVG Version: 6.00 Build 0)  -->
<!DOCTYPE svg PUBLIC "-//W3C//DTD SVG 1.1//EN" "http://www.w3.org/Graphics/SVG/1.1/DTD/svg11.dtd">
<svg version="1.1" id="Layer_1" xmlns="http://www.w3.org/2000/svg" xmlns:xlink="http://www.w3.org/1999/xlink" x="0px" y="0px"
	 width="450px" height="450px" viewBox="-74.5 450.5 450 450" enable-background="new -74.5 450.5 450 450" xml:space="preserve">
<g>
	<path d="M10.719,672.689l1.612,1.289c0.484,0.646,1.29,1.291,1.935,1.612l0.645,0.646c1.128,0.968,1.935,2.258,2.257,3.709
		l1.612,7.255c0,1.935,1.612,3.547,3.225,4.03l2.58,0.806c0,0,0.483,0,0.806,0.321l3.224,0.969c2.58,0.806,4.837,2.257,6.771,4.191
		c1.935,1.611,3.869,3.707,5.481,5.965l0.645,0.646c1.29,1.612,3.224,2.418,5.159,1.935c1.935-0.482,4.031-0.645,6.126-0.645h2.418
		c1.612,0,3.708,0.482,5.481,1.612c1.612,0.967,3.708,1.612,5.643,2.418h0.484c1.935,0.806,4.03,0.483,5.643-0.646
		c1.612-1.289,3.708-1.935,5.804-1.935l7.577,0.483c1.612,0,3.225-0.322,4.031-1.612H90.2l2.741-2.579l0.806-0.807
		c1.29-1.612,3.225-2.258,5.159-2.418h7.255c1.935,0,3.708-1.612,4.514-3.226c0.806-1.612,2.418-2.901,4.353-3.226l3.224-0.645
		c1.29,0,2.418-1.129,2.902-2.58c0.484-1.611,1.29-2.9,2.419-3.869l2.579-2.578c1.612-1.612,2.418-3.226,2.741-5.16l-0.323,0.162
		v-0.483c0-1.612-0.967-2.58-2.257-2.58h-4.191c-1.612,0.322-3.225,0.322-4.514,0h-7.255c-3.708,0-7.255-0.646-10.802-1.612
		l-3.869-0.967l-3.225-0.968l-7.255-2.418c-3.869-1.129-6.771-3.708-8.544-7.255l-0.806-1.612c-1.128-2.418-3.547-3.708-5.965-3.226
		c-2.741,0-5.481,0-8.061-1.289l-1.935-0.807c-3.708-1.611-6.449-4.836-6.449-9.188l-0.645-4.353
		c-0.483-2.258-1.935-4.354-3.869-5.16c-2.257-0.967-4.353-2.256-6.449-3.707l-0.806-0.484c-2.418-1.936-4.514-4.514-5.643-7.577
		l-0.323-0.967c-0.806-2.58-0.967-5.32-0.322-8.062l0.322-0.967c0.645-2.096,0.806-4.191,0.806-6.449
		c0-1.935-0.806-3.869-2.257-5.319l-2.257-2.097c-2.58-2.096-4.192-5.158-4.353-8.543c-0.322-3.547-0.322-6.934,0.323-10.318v-0.483
		v-0.483c0-1.936-1.612-3.225-3.225-3.225H24.26c-2.096,0-3.869,1.29-4.836,3.225c-0.806,2.257-2.096,4.031-3.547,5.804
		l-0.645,0.806l-3.224,3.225l-1.612,1.613c-1.612,1.611-2.58,4.029-2.902,6.448c-0.323,2.418-0.967,4.836-1.935,7.095l-0.323,0.805
		c-0.806,1.936-2.096,3.709-3.708,4.837c-1.612,1.29-2.741,3.225-2.741,5.159l-0.322,7.416c0,3.225-0.484,6.449-1.612,9.672
		l-0.323,1.291c-0.806,2.096,0,4.353,1.935,5.32l6.771,2.9l0.645,0.323c0.483,0,0.645,0.321,0.806,0.806
		c0.483,0.645,0,1.612-0.484,1.612l-1.612,0.806c-0.967,0.323-1.612,1.29-1.935,2.419l-0.322,1.612v0.322l-1.612,9.027
		c-0.322,1.29-0.322,2.74-0.322,4.191c0,1.29,0.806,2.419,1.935,2.902l3.547,1.611C7.495,670.434,9.429,671.562,10.719,672.689z"/>
	<path d="M122.445,776.678c3.225-0.322,6.126-3.225,6.449-6.449l0.645-3.225c0-2.096,0.968-4.03,2.418-5.643
		c1.612-1.612,3.225-2.579,4.837-3.226l1.935-0.806c2.741-1.129,4.837-3.547,5.804-6.449l0.968-3.869
		c0.806-3.225,2.418-6.449,4.837-8.545l0.322-0.322c1.934-1.611,2.256-4.836,0.966-7.094l-0.483-1.129
		c-1.127-1.611-1.29-4.029-0.482-6.126c0.805-2.257,1.611-4.19,2.9-6.126l1.612-2.258c0.646-1.289,0.646-3.225-0.321-4.354
		c-0.969-1.289-1.612-2.901-1.612-4.515l-0.322-2.257v-5.48c0.322-1.613,0-3.709-0.483-5.32l-0.646-1.936l-0.161-0.482l-0.805-0.808
		c-0.807-0.645-1.612-0.483-2.419,0.323c-1.128,1.936-2.096,4.029-2.579,6.126v0.322c-0.483,2.096-2.418,3.547-4.353,3.225h-1.612
		h-0.322c-2.258,0-4.031,1.935-4.031,4.19c0,2.902-0.967,5.805-2.74,8.062l-0.968,0.967c-1.612,2.097-4.03,3.547-6.448,4.354
		l-1.29,0.321c-1.612,0.483-2.902,1.613-3.225,3.548c0,1.612-0.967,3.225-2.257,4.514l-1.612,1.29
		c-1.935,2.096-4.837,3.225-7.739,3.547l-8.061,0.807c-2.58,0-4.836,1.611-6.449,4.031c-1.612,2.418-4.03,4.029-6.449,4.353
		l-3.547,0.321c-2.58,0.323-5.32,0.323-8.061-0.321l-1.612-0.322l-4.353-1.129c-1.612-0.483-2.902,0-3.869,1.129l-1.612,2.097
		c-2.096,2.418-5.159,3.547-8.061,3.225l-10.479-1.29c-1.612,0-2.902-0.806-4.353-1.612c-1.612-0.967-2.741-2.096-3.87-3.224
		l-4.03-4.837c-0.484-0.322-1.29-0.483-2.096-0.322l-2.257,0.967l-9.028,2.258c-1.612,0.483-3.708,0-5.32-0.968
		c-1.612-1.29-3.547-1.612-5.481-1.612H8.143c-1.935,0.483-3.224,2.58-2.579,4.516l0.645,3.224c0.484,1.612,0.323,3.548-0.483,5.159
		c-0.806,1.612-0.645,3.225,0.483,4.837l0.967,1.29c1.29,1.936,3.225,3.547,4.837,5.159c1.612,1.611,3.224,3.224,4.514,5.32
		l2.418,4.353c1.29,2.257,3.225,3.547,5.804,3.547c2.418,0,4.836,0.807,6.771,2.418l4.836,4.516c1.29,1.128,3.225,1.29,4.514,0.321
		l0.806-0.321c0.967,0,1.612,0.645,1.612,1.611v0.807c0,2.096,1.612,4.029,3.708,4.837l7.255,1.611
		c2.58,0.807,5.159,1.612,7.577,3.226h1.29c1.29,0,2.418-1.129,2.257-2.58v-5.644c0-1.611,0.645-3.225,1.935-3.868l0.806-0.322
		c0.806,0.322,1.612,0.967,1.29,1.612v2.739c0,2.097,0.645,4.03,2.096,5.481c1.612,1.612,3.708,1.935,5.481,1.29
		c1.935-0.808,3.87-0.968,5.965-0.808l5.965,0.323c2.902,0.322,5.643,0,8.061-1.129c2.902-0.968,5.32-2.257,7.577-4.03l0.967-0.646
		l4.836-4.354c1.612-1.611,3.708-2.418,5.643-2.418H122.445L122.445,776.678z"/>
	<path d="M69.726,606.912c2.58,1.936,4.192,4.836,4.837,8.383v2.902c0.483,3.225,2.257,6.449,5.159,8.061
		c2.902,1.936,5.159,4.838,6.449,8.061l0.806,2.58c1.29,3.547,4.192,5.644,7.417,5.966h0.967c2.902,0,5.481,1.612,7.094,4.19
		c1.612,2.58,4.191,4.354,7.094,4.838l4.514,1.289c2.741,0.807,5.32,2.258,7.416,4.354l0.323,0.322
		c1.612,1.289,4.191,1.129,5.643-0.646l1.128-1.29l-0.161-0.161c1.129-1.129,0.968-3.225,0-4.03c-1.612-1.289-2.74-2.74-3.708-4.354
		l-1.612-2.579c-1.128-2.096-2.579-3.868-4.191-5.481l-0.322-0.322c-1.612-1.29-2.741-2.902-3.708-4.836
		c-0.806-1.612-0.806-3.225,0-4.836l0.967-1.612c0.967-1.612,1.612-3.87,1.612-5.804v-0.646c0-1.612-0.645-3.225-1.612-4.837
		c-0.645-1.29-1.29-2.902-1.612-4.514v-0.967c-0.484-1.936,0-4.03,1.29-5.644c1.29-2.096,2.257-4.03,2.741-6.448v-0.324
		c0.645-1.611,0.323-3.707-0.645-5.319c-0.968-1.612-1.29-3.224-0.645-5.159l1.128-3.224c0.967-2.902,2.418-5.481,4.353-7.739
		l2.257-2.418l1.612-1.936l0.968-0.967c0.967-0.967,1.128-2.58,0.322-3.869c-0.807-1.611-1.29-3.225-0.968-4.836l0.323-2.256
		c0.483-3.226,1.611-6.449,3.708-9.029l0.645-0.645c2.418-3.224,5.481-5.32,9.028-6.449l4.353-1.611
		c1.935-0.646,3.225-2.741,3.225-4.836c0-2.58,0.807-4.838,2.257-6.934l0.807-0.806c1.611-2.741,3.546-5.481,4.835-8.384
		l1.129-2.096c0.322-0.482,0.482-1.127,0.482-1.611c0-2.741-1.611-5.159-4.19-5.32l-7.093-0.484c-4.03-0.322-8.061,0-11.93,0
		l-13.708,1.61c-2.096,0-3.708,1.612-3.869,3.869c0,2.257-1.612,4.192-3.547,4.837l-5.804,1.611l-1.612,0.483l-4.836,1.612
		c-3.547,1.128-6.449,3.708-8.061,7.255l-1.29,2.097c-1.612,3.547-4.353,6.448-7.739,8.545c-3.225,2.096-4.837,5.48-5.159,9.351
		v1.612c-0.322,3.225-1.29,6.449-3.225,8.705l-0.806,1.291c-1.29,1.611-1.612,3.707-0.806,5.48c0.806,1.936,1.29,4.031,1.128,6.126
		v8.545c0,2.257-1.612,4.19-3.225,4.836c-2.257,0.806-3.708,2.58-4.353,4.837l-0.806,3.225
		C65.856,601.753,66.985,604.977,69.726,606.912z"/>
	<path d="M154.527,579.504h-0.323c-1.612,0.322-3.223,2.096-2.901,4.03c0.322,2.741,0,5.159-0.483,7.577l-0.646,2.742
		c-0.645,2.418-2.257,4.353-4.353,5.158l-0.968,0.483h-0.322c-0.967,0.646-1.612,2.096-0.806,3.226
		c0.967,1.611,1.29,3.223,1.128,4.836l-0.483,5.158c0,1.936-0.806,3.708-1.612,5.32c-0.967,1.611-0.967,3.225-0.322,4.836
		l1.612,3.547c0.806,1.611,0.968,3.225,0.483,5.159c-0.483,1.612-0.806,3.225-0.645,4.837c0,1.611,0.967,3.225,2.257,3.869
		l0.322,0.322l0.323,0.322c1.611,0.967,3.224,0.483,3.869-0.968l0.483-0.806c1.127-2.258,2.578-4.514,4.19-6.449l3.226-4.836
		c0.482,0,0.645-0.322,0.805-0.645l3.869-5.16c1.612-1.611,3.547-2.74,5.806-2.74c2.096,0,3.868-1.129,4.836-3.225
		c0.646-2.257,1.612-4.353,3.547-6.125l0.808-0.968c1.611-1.612,3.225-2.418,4.836-3.225c2.097-0.322,4.03-0.646,5.965-0.646h4.837
		c1.935,0,3.547-0.806,4.515-2.418c0.967-1.611,2.418-2.74,4.03-3.547l1.612-0.645c2.58-1.129,5.48-1.936,8.384-2.258l3.225-0.322
		c1.935,0,4.03,0,5.966,1.129c1.611,1.128,3.707,0.967,5.319-0.323l1.128-0.646c2.419-1.611,5.159-2.901,8.062-3.225h0.322
		c3.225-0.645,6.127-0.645,9.35-0.484h1.613c3.225,0.484,5.965,1.612,8.062,4.031l0.483,0.646c1.611,1.612,4.19,2.901,6.449,2.901
		h2.739c0.808,0,1.612-0.322,2.097-1.127c0.483-0.484,1.289-0.968,2.096-0.968h1.611c2.258,0,4.354,0.646,6.449,1.29l2.741,1.128
		c2.579,0.806,5.319,1.612,8.062,1.935h1.935c1.29,0,2.096-0.805,2.096-1.935c0-1.612-0.321-3.224-1.128-4.514l-1.129-2.58
		c-1.29-2.097-2.257-4.353-3.225-6.449l-0.322-0.806c-0.807-1.612-0.807-3.225,0-4.836v-0.807c0.322-1.289-0.322-2.74-1.612-3.225
		h-1.29c-2.579-0.807-4.836-2.257-6.447-4.354l-1.613-1.611c-1.611-1.612-2.578-4.031-3.225-6.449
		c-0.806-2.096-2.578-3.708-4.837-3.708h-6.771c-2.42-0.321-4.516-1.612-5.967-3.547L254,556.609
		c-1.129-1.612-2.096-3.547-2.74-5.481c-0.807-1.612-2.58-2.58-4.191-2.096l-1.936,0.645c-3.225,1.128-6.449,1.612-9.673,1.29
		l-2.58-0.322c-2.739,0-5.319-1.129-7.416-2.74l-1.612-1.129c-1.289-0.967-2.578-1.612-4.029-2.258
		c-1.612-0.645-2.902-0.322-3.869,0.807l-0.807,0.967c-1.612,1.611-3.869,2.902-6.127,3.225l-8.705,0.483
		c-1.612,0-3.226,0.806-4.354,1.935c-1.29,1.129-2.74,1.936-4.354,2.258h-0.322c-1.612,0-3.225,1.127-4.837,2.257v0.323
		c-1.612,1.611-3.708,2.418-5.804,2.418l-0.646,0.322c-1.935,0-3.869,0-5.805,0.483h-1.935c-2.74,0.483-4.837,2.741-5.481,5.644
		l-0.646,3.707c-0.482,2.579-1.611,4.836-3.225,6.932c-1.612,1.936-3.547,3.226-5.965,3.226L154.527,579.504L154.527,579.504z"/>
	<path d="M230.141,745.078c0.805-2.096,1.935-4.191,3.224-6.126c1.29-1.612,1.129-3.87-0.483-5.159l-2.74-2.419
		c-2.258-1.935-3.547-4.836-3.869-7.738l-0.322-3.225c0-0.968,0-2.097-0.322-3.226l-0.322-2.418c-0.322-2.74-1.935-4.836-4.19-6.449
		l-1.13-0.321c-1.611-0.968-3.225-2.418-4.514-4.353c-1.289-1.612-1.936-3.869-2.418-6.127l-0.484-2.74
		c0-0.969-0.645-1.612-1.611-2.096l-2.579-0.808l-5.159-1.612c-1.611-0.322-3.225-1.611-4.354-2.74h-0.322
		c-0.968-1.289-2.579-1.289-3.547-0.321l-1.612,1.612c-0.321,0.482-0.645,0.645-1.128,0.482c-0.968,0-1.611-0.807-1.29-1.611
		c0.322-2.58-0.646-5.16-2.741-6.771l-2.096-1.612l-4.837-3.225c-1.289-0.483-3.224,0-3.869,1.612l-0.646,0.967
		c0,0.322-0.482,0.484-0.645,0.646c-0.646,0-1.611,0-1.611-0.806l-0.484-0.807c-0.482-0.968-1.612-1.612-2.579-1.936l-0.483-0.807
		h-0.322c-0.646,0-0.967,0.807-0.807,1.613l0.646,3.224c0.646,2.579,0.968,5.159,1.29,7.739c0.322,2.578,1.611,4.836,3.547,6.447
		h0.645c2.42,1.936,3.87,4.838,4.031,7.739v8.062c-0.322,1.611,0,3.225,0.967,4.515l0.807,0.806
		c1.613,1.936,2.258,4.191,2.418,6.449l0.484,8.867c0,2.096-1.289,3.869-3.225,4.191l-1.612,0.321c-1.129,0-1.612,1.29-1.612,2.419
		c0,1.289,0.483,2.74,0.968,4.03v0.321c0.483,1.612,0.646,3.226,0.483,4.838l-0.646,4.353c-0.646,3.226-1.612,6.127-3.226,9.028
		l-1.127,1.935c-0.808,1.612-1.936,2.58-3.226,3.226c-1.612,0.645-2.741,1.935-3.226,3.547l-1.289,5.804
		c-0.807,3.225-2.258,6.449-4.191,9.674h-0.322c-1.935,2.579-4.354,4.836-7.255,6.448l-1.935,1.29l-4.836,2.418
		c-1.611,0.646-2.579,2.097-2.901,3.87l-0.807,5.32c-0.483,3.224-1.612,5.965-3.869,8.061l-2.096,2.418l-2.418,2.419l-2.419,2.579
		c-1.935,2.257-4.836,3.225-8.061,2.741l-5.804-1.129l-5.321-0.646h-1.451c-0.645,0.646-0.806,1.612-0.323,2.579
		c1.129,1.936,2.902,3.226,4.837,3.226l3.546,0.645c1.612,0,3.547,0.807,5.159,1.612c1.612,1.129,3.225,1.935,5.159,2.419h0.322
		c2.097,0.806,4.354,0.967,6.449,0.806l2.418-0.322c2.741-0.321,5.32,0,7.577,0.968l1.936,0.646c0.806,0.322,2.095,0,2.901-0.807
		c0.967-0.968,1.935-1.612,3.225-2.097l1.289-0.321c2.096-0.646,4.191-0.969,6.449-0.969h1.29c1.935,0,3.708,0.323,5.319,1.29
		l0.646,0.322c1.129,0.484,2.418,0,3.226-0.967c0.482-1.129,1.611-2.258,2.739-3.225l4.031-2.741l2.579-1.611l1.29-0.807
		c1.612-1.129,3.868-1.612,5.804-1.612l5.805-0.483c2.256-0.321,4.19-1.935,4.836-4.19c0.646-2.419,1.612-4.837,3.226-6.934
		c1.612-2.096,3.224-3.868,4.836-5.48c2.097-1.612,4.192-2.419,6.448-2.58h1.291c2.578-0.483,4.514-2.901,4.353-5.481v-0.321
		v-10.479c0.322-1.611,0.968-3.708,1.935-5.319l3.226-4.838l1.29-1.61c0.967-0.808,1.611-1.937,2.74-3.226l1.611-2.096
		c0.969-1.612,0.969-3.709-0.322-5.159c-1.611-1.611-2.418-3.869-2.74-6.127v-0.645c-0.322-2.58-0.322-5.32,0.484-8.062v-0.806
		H230.141z"/>
	<path d="M319.25,450.5h-337.5c-31.05,0-56.25,25.2-56.25,56.25v337.5c0,31.05,25.2,56.25,56.25,56.25h337.5
		c31.05,0,56.25-25.2,56.25-56.25v-337.5C375.5,475.7,350.3,450.5,319.25,450.5z M342.35,710.416l-0.322,1.128
		c-0.807,1.935-2.096,3.708-3.709,5.159c-1.611,1.611-3.225,2.58-4.19,3.708c-0.968,0.968-1.612,2.58-1.129,4.03l0.483,2.258
		c0.807,3.224,0.807,6.447,0,9.351v1.29c-0.646,2.418-1.612,4.514-2.58,6.448c-1.129,2.096-2.74,3.708-4.836,4.837l-2.418,1.612
		c-1.129,0.645-1.936,2.096-1.936,3.547c0,1.612-0.646,3.225-1.611,4.19l-2.418,3.226c-1.613,2.096-3.709,3.869-5.967,4.837
		c-2.257,1.612-4.191,3.224-5.643,4.836c-1.612,1.935-2.902,4.192-3.547,6.449c-0.646,2.901-2.902,4.514-5.32,4.514h-8.706
		c-2.257,0-4.353,1.612-5.319,3.547c-1.129,2.58-2.258,4.354-3.709,5.966c-1.611,1.612-2.578,3.548-3.225,5.805
		c-0.322,1.935-1.936,3.225-3.547,2.579c-2.096-0.968-4.191,0-5.158,1.611c-1.936,3.226-3.87,5.645-5.966,7.739l-1.128,0.967
		c-2.098,1.612-4.838,2.902-7.256,2.902c-2.901,0-4.354,1.29-4.836,3.225c-0.483,1.612-0.808,3.708-0.969,5.481
		c-0.322,1.935-0.967,3.708-1.611,5.32l-0.807,0.967c-1.611,2.419-2.902,4.837-4.515,6.933l-0.646,0.968
		c-2.096,2.74-4.836,4.836-8.061,5.644c-3.87,1.289-7.256,1.612-10.641,1.612h-2.258c-1.611,0-3.225,0.967-4.354,2.578l-0.969,1.612
		l-0.967,1.936l-2.096,3.547c-1.611,2.901-4.031,4.837-7.255,5.804c-3.226,0.807-6.933,1.129-10.317,0.968l-2.58-0.322
		c-2.258,0-4.354-0.646-6.448-1.611c-1.612-0.646-3.869,0-4.837,1.611c-1.612,2.258-3.547,3.548-5.644,4.191l-4.837,1.612
		c-3.225,0.806-6.771,0.806-10.156,0l-2.58-0.808c-1.611,0-3.225-0.806-4.514-1.61c-1.612-0.808-3.224-1.129-4.836-0.969
		l-2.096,0.322c-3.225,0.322-6.126,0-9.028-0.806l-4.353-0.968c-1.935-0.646-3.708-1.936-4.837-3.708
		c-0.806-1.612-2.579-2.901-4.837-3.226h-5.159c-3.225-0.482-6.126-1.611-8.061-4.029l-6.449-6.127l-2.257-1.935l-3.547-2.58
		l-2.096-1.612c-2.418-1.611-5.32-2.9-8.383-3.225l-9.673-1.611c-0.967,0-1.612-0.322-2.58-0.483l-3.708-0.807
		c-1.612-0.321-3.225-1.611-4.353-3.225c-0.967-1.612-2.741-2.257-4.353-1.612c-3.224,1.29-5.804,1.612-8.383,2.097h-2.257
		c-4.191,0.321-8.061-0.322-11.93-2.097c-3.869-1.611-6.449-4.029-8.867-7.094c-1.935-2.74-4.836-4.837-8.383-5.48l-4.514-0.968
		c-3.225-0.646-6.449-1.936-9.351-3.87c-3.224-2.257-4.836-4.353-6.126-6.932c-1.29-2.419-2.096-5.159-2.257-8.062v-1.29
		c-0.323-3.225-2.58-6.126-5.643-6.934c-3.708-1.128-6.449-2.74-8.867-4.836c-2.257-2.096-3.547-5.159-3.547-8.384l0.322-7.094
		c0-2.74-0.806-5.159-2.741-6.934c-1.935-1.935-3.225-4.353-3.225-6.933l-0.483-5.805c-0.323-4.19-1.128-8.383-2.096-12.574
		c-0.967-3.708,0.484-7.416,3.547-9.189l1.129-0.806c1.612-1.129,2.257-3.226,1.29-5.159l-1.29-1.611
		c-1.612-1.613-3.225-2.742-4.837-3.226c-1.29-0.322-1.612-1.612-1.612-2.418l1.612-1.937c0.967-1.127,0.806-2.9,0-3.869
		c-1.29-1.289-1.935-2.9-2.096-4.514l-0.322-11.285c0-2.258,0.322-4.515,0.967-6.771c0.645-1.935,0-4.192-1.935-5.159v0.161
		l-1.29-0.646c-2.902-1.611-5.159-4.03-6.771-7.094c-2.257-4.191-3.225-8.062-3.225-12.092l0.322-2.096
		c0-3.225,0.806-6.127,2.257-8.867l1.29-2.419c0.645-1.29,1.612-2.418,2.418-3.546c0.967-1.129,1.128-2.58,0.806-3.87l-0.806-2.579
		c-0.967-3.225-1.612-6.449-1.612-9.673l-0.483-1.935c0-3.547,0.967-7.095,3.224-9.674l1.612-2.096
		c1.128-1.612,2.902-2.58,4.836-3.225c1.612-0.484,2.741-2.097,2.902-4.031l0.322-5.481c0-4.353,2.096-8.383,5.32-11.284
		l3.869-2.902c0.806-0.807,1.612-1.612,2.257-2.902c0.806-0.967,0.967-2.257,0.806-3.224c-0.323-1.612,0-2.097,0.806-2.257
		c2.579,0.967,4.191,0.645,5.32-0.646l2.096-2.741l5.804-6.449c1.612-1.611,2.257-4.514,1.29-6.771l-1.935-4.192
		c-0.323-0.967,0-2.096,0.806-2.418c2.096,0,3.547,0.807,4.192,2.096l0.645,1.13c0.967,1.935,3.225,2.901,4.836,2.096
		c3.547-1.29,6.449-1.612,9.19-1.612h5.159c3.547,0,6.449-2.418,7.094-6.125c0.645-4.515,2.257-8.062,4.514-10.479
		c2.418-2.741,5.159-4.837,8.384-6.449c4.191-2.257,6.771-5.481,7.577-9.673c1.128-5.159,3.869-8.867,7.578-11.286l12.252-6.933
		l3.547-2.096c2.096-1.291,4.031-2.902,5.643-4.836l3.225-3.871c1.612-1.611,3.225-2.74,5.159-3.224
		c1.612-0.483,3.869-0.806,5.804-0.646l6.449,0.484c3.224,0,5.804,0.807,8.383,1.936l1.612,0.806
		c1.612,0.646,3.224,0.322,4.03-0.806l1.451-0.807l6.932-7.255c1.612-1.612,3.547-2.257,5.643-1.935
		c2.097,0.322,4.192,1.128,6.127,2.096c2.901,1.612,5.32,2.257,8.061,2.257h1.612c3.547,0,7.092,0.484,10.639,1.29l2.418,0.645
		c2.419,0.646,4.838-0.322,6.449-2.256c0.483-0.807,1.612-0.967,2.258-0.322c0.482,0.322,0.645,0.645,0.806,1.128
		c0.323,3.226,2.258,5.644,4.837,6.448l2.58,0.807c2.74,0.807,5.158,2.58,6.771,4.837c1.611,2.418,3.547,4.836,5.805,6.449
		l1.611,1.612c1.611,1.611,3.869,2.256,6.127,2.096h9.512c3.869,0,7.576,0.645,11.285,2.257c3.547,1.612,7.255,1.935,10.641,0.646
		c3.547-1.129,7.255-1.612,10.964-1.129l6.933,1.129c3.225,0.321,6.449,1.935,8.384,4.353l0.807,0.806
		c1.611,1.612,3.224,3.709,4.836,5.965c0.968,2.097,3.226,3.226,5.481,3.226h9.996c2.418,0,4.837,0.483,6.771,1.612
		c2.097,1.611,3.869,3.225,5.481,4.836l1.611,2.096c1.936,2.257,2.901,5.32,2.74,8.544c0,2.58,1.936,4.837,4.516,4.837l3.224,0.322
		c2.258,0,4.192,1.611,5.319,3.708l1.613,3.225l4.191,9.351c0.645,1.613,0.806,3.226,0.645,4.515c0,1.612,0.483,2.901,1.612,3.547
		l1.612,1.128c2.096,1.612,3.225,4.031,2.9,6.771l-1.127,7.576l-0.322,3.226c-0.323,1.612,0.482,3.708,1.935,4.836
		c2.418,1.612,3.547,3.708,3.708,6.126v3.225c0,1.612-0.322,3.547-1.611,4.836c-0.969,1.291-1.613,2.902-1.613,4.838l0.483,3.707
		c0,2.58,1.612,4.836,3.226,6.449c2.257,1.612,3.547,4.192,3.869,6.771c0.646,4.029,0.807,7.255,0.807,10.479v3.709
		c0,1.289,0,2.579,0.482,3.868c0.322,1.129,1.129,2.259,2.097,2.902l3.225,2.418c3.226,2.097,5.481,4.837,6.771,8.545
		c1.613,3.547,2.097,7.255,2.097,10.963v1.29c0,2.902-0.322,5.965-1.29,8.706c-0.807,2.901-0.645,5.644,0.482,8.062
		c1.291,2.258,2.098,4.836,2.42,7.577C343.8,704.611,343.479,707.836,342.35,710.416z"/>
	<path d="M304.301,689.457c-1.611-0.807-3.225-2.096-3.708-4.03l-0.483-0.968c-0.807-2.902-1.289-5.805-1.289-8.706l0.322-8.062
		v-0.483c0-2.74-2.258-4.836-4.838-4.836h-0.322c-3.225,0-5.803-0.968-8.061-3.226l-1.29-1.611l-3.226-3.708l-4.19-4.837
		c-1.612-2.258-3.226-4.191-5.319-6.126c-1.612-1.612-4.031-3.226-6.449-3.548l-3.225-0.483c-1.611-0.322-3.709-1.128-5.482-2.257
		c-1.288-0.967-3.223-0.645-4.514,0.645l-2.096,2.258l-0.968,0.645c-1.128,0.322-2.257-0.323-2.74-1.611
		c-0.646-1.936-0.646-4.193,0.322-6.127v-0.967c0-1.128-0.968-1.936-1.935-1.611h-2.58c-2.901,0-5.805-0.322-8.545-1.613
		l-1.611-0.645c-1.612-0.806-3.547-1.29-5.32-1.29c-1.611,0-3.225,0.323-4.837,1.29l-0.646,0.483
		c-1.935,1.29-4.191,1.935-6.449,2.096h-5.319c-2.418,0-4.837,0.806-6.448,2.097c-2.097,1.289-4.354,2.096-6.771,2.58l-4.354,0.645
		c-1.935,0.484-4.029,1.29-5.804,2.74c-1.612,1.612-3.869,2.58-5.965,3.226l-0.808,0.321c-2.578,0.807-4.836,2.42-6.447,4.838
		l-1.936,1.935c-1.129,1.612-1.129,3.548,0,5.159c0.967,1.612,2.901,2.096,4.836,1.612l2.42-0.968c1.289-0.483,2.739,0,3.868,0.646
		c0.968,0.806,2.418,1.289,3.869,1.128l4.03-0.482c2.258,0,4.515,0,6.771,0.645c2.418,0.807,4.514,1.611,6.448,3.225
		s4.03,2.258,6.448,2.58c2.419,0.322,4.837,0.807,7.094,1.611l1.612,0.322c1.612,0.484,2.901,1.613,3.868,3.225
		c0.808,1.29,1.613,3.225,1.613,4.837v0.483c0,1.936,1.611,3.225,3.225,3.225h0.967c2.58,0,5.32,0.322,8.062,1.129l1.129,0.483
		c1.611,0.646,3.224,1.612,4.353,3.225c1.29,1.612,2.097,3.226,2.58,4.837l0.483,2.258c0.482,2.418,0.645,4.836,0.645,7.416v0.806
		c0,1.612,1.129,3.225,2.902,3.87c1.611,0.322,3.547,0.967,5.32,1.935l0.805,0.322c2.097,1.29,4.191,2.901,5.805,4.837l0.807,1.128
		c2.096,2.419,3.225,5.481,3.225,8.545v1.129c0,2.419-0.483,4.837-1.289,7.095c-0.646,1.935,0,4.19,2.096,4.836l1.129,0.807
		c2.418,0.967,4.514,2.74,6.126,4.836c1.612,2.419,2.257,5.159,2.257,8.062v4.837c-0.322,1.611-0.806,2.9-1.611,4.029
		c-0.807,1.129-0.807,2.74,0,3.869l0.968,1.612l0.321-0.161c1.613,1.612,4.031,2.257,5.967,0.967l3.224-2.096
		c1.612-1.128,2.902-2.74,3.548-4.836v-0.323l1.611-4.836l0.968-1.611l0.646-1.613l0.645-1.129c0.646-1.289,1.612-2.256,3.225-2.739
		l0.646-0.322c1.289-0.323,2.096-1.612,2.096-2.901c0-1.613,0.807-2.902,1.612-4.031l1.289-1.129l3.226-4.19v-0.321
		c0.967-1.291,1.611-2.742,1.935-4.354s0-3.226-0.646-4.837l-0.322-0.646c-0.646-1.612-0.967-2.741-1.129-4.19l-0.482-4.516
		l-0.482-4.837c0-1.61,0.645-3.224,1.611-4.836c1.128-1.29,1.936-2.901,2.579-4.515v-0.646l0.321-0.321
		C306.559,691.068,305.752,689.457,304.301,689.457z"/>
</g>
</svg>
