<?xml version="1.0" encoding="utf-8"?>
<!-- Generator: Adobe Illustrator 16.0.0, SVG Export Plug-In . SVG Version: 6.00 Build 0)  -->
<!DOCTYPE svg PUBLIC "-//W3C//DTD SVG 1.1//EN" "http://www.w3.org/Graphics/SVG/1.1/DTD/svg11.dtd">
<svg version="1.1" id="Layer_1" xmlns="http://www.w3.org/2000/svg" xmlns:xlink="http://www.w3.org/1999/xlink" x="0px" y="0px"
	 width="500px" height="500px" viewBox="0 0 500 500" enable-background="new 0 0 500 500" xml:space="preserve">
<g id="css">
	<g>
		<polygon fill="#171617" points="350.189,18.462 320.871,18.462 351.36,51.546 351.36,67.292 288.561,67.292 288.561,48.856 
			319.045,48.856 288.561,15.772 288.561,0 350.189,0 		"/>
		<polygon fill="#171617" points="276.113,18.462 246.796,18.462 277.284,51.546 277.284,67.292 214.483,67.292 214.483,48.856 
			244.97,48.856 214.483,15.772 214.483,0 276.113,0 		"/>
		<polygon fill="#171617" points="202.762,19.212 171.126,19.212 171.126,48.084 202.762,48.084 202.762,67.292 148.642,67.292 
			148.642,0 202.762,0 		"/>
	</g>
	<polygon fill="#1874B6" points="105.531,458.573 73.385,98.015 426.615,98.014 394.438,458.515 249.783,498.616 	"/>
	<polygon fill="#37A9DA" points="250.002,467.966 366.887,435.559 394.387,127.496 250.002,127.496 	"/>
	<g>
		<polygon fill="#FFFFFF" points="250.001,258.125 308.517,258.125 312.557,212.842 250.001,212.842 250.001,168.619 
			250.153,168.619 360.887,168.619 359.826,180.484 348.958,302.342 250.001,302.342 		"/>
		<polygon fill="#EBEBEB" points="250.265,372.967 250.072,373.023 200.822,359.722 197.674,324.456 173.743,324.456 
			153.284,324.456 159.479,393.889 250.061,419.036 250.265,418.978 		"/>
		<polygon fill="#FFFFFF" points="304.758,300.471 299.433,359.692 250.112,373.006 250.112,419.013 340.768,393.889 
			341.433,386.418 349.125,300.471 		"/>
		<polygon fill="#EBEBEB" points="250.153,168.619 250.153,196.084 250.153,212.731 250.153,212.842 143.48,212.842 143.48,212.842 
			143.338,212.842 142.452,202.902 140.438,180.484 139.379,168.619 		"/>
		<polygon fill="#EBEBEB" points="250.001,258.129 250.001,285.596 250.001,302.24 250.001,302.349 201.516,302.349 
			201.516,302.349 201.375,302.349 200.488,292.412 198.473,269.994 197.415,258.129 		"/>
	</g>
</g>
</svg>
