<?xml version="1.0" encoding="utf-8"?>
<!-- Generator: Adobe Illustrator 16.0.0, SVG Export Plug-In . SVG Version: 6.00 Build 0)  -->
<!DOCTYPE svg PUBLIC "-//W3C//DTD SVG 1.1//EN" "http://www.w3.org/Graphics/SVG/1.1/DTD/svg11.dtd">
<svg version="1.1" id="html" xmlns="http://www.w3.org/2000/svg" xmlns:xlink="http://www.w3.org/1999/xlink" x="0px" y="0px"
	 width="500px" height="500px" viewBox="-299.5 225.5 500 500" enable-background="new -299.5 225.5 500 500" xml:space="preserve">
<g id="html_1_">
	<polygon fill="#E45126" points="-194.624,685.35 -226.855,323.832 127.316,323.832 95.051,685.29 -49.986,725.5 	"/>
	<polygon fill="#F1682B" points="-49.771,694.766 67.428,662.274 95.002,353.391 -49.771,353.391 	"/>
	<polygon fill="#EBEBEB" points="-49.771,487.474 -108.44,487.474 -112.493,442.07 -49.771,442.07 -49.771,397.729 -49.924,397.729 
		-160.95,397.729 -159.887,409.626 -148.99,531.81 -49.771,531.81 	"/>
	<polygon fill="#EBEBEB" points="-49.771,602.622 -49.963,602.677 -99.343,589.342 -102.502,553.981 -126.495,553.981 
		-147.01,553.981 -140.798,623.599 -49.975,648.813 -49.771,648.755 	"/>
	<g>
		<path fill="#020202" d="M-193.902,225.585h22.532v22.261h20.614v-22.261h22.533V293h-22.532v-22.572h-20.612V293h-22.535V225.585
			L-193.902,225.585z"/>
		<path fill="#020202" d="M-98.595,247.942h-19.836v-22.356h62.214v22.356h-19.844v45.059h-22.533L-98.595,247.942L-98.595,247.942z
			"/>
		<path fill="#020202" d="M-46.342,225.585h23.497l14.454,23.686l14.438-23.686h23.503V293H7.11v-33.413l-15.504,23.968h-0.387
			l-15.513-23.968V293h-22.047V225.585L-46.342,225.585z"/>
		<path fill="#020202" d="M40.763,225.585h22.54v45.132h31.685v22.281H40.763V225.585L40.763,225.585z"/>
	</g>
	<polygon fill="#FFFFFF" points="-49.924,487.474 -49.924,531.81 4.674,531.81 -0.472,589.312 -49.924,602.661 -49.924,648.791 
		40.975,623.599 41.641,616.108 52.06,499.38 53.141,487.474 41.193,487.474 	"/>
	<polygon fill="#FFFFFF" points="-49.924,397.729 -49.924,425.268 -49.924,441.96 -49.924,442.07 57.034,442.07 57.034,442.07 
		57.177,442.07 58.066,432.104 60.085,409.626 61.145,397.729 	"/>
</g>
</svg>
