<?xml version="1.0" encoding="utf-8"?>
<!-- Generator: Adobe Illustrator 16.0.0, SVG Export Plug-In . SVG Version: 6.00 Build 0)  -->
<!DOCTYPE svg PUBLIC "-//W3C//DTD SVG 1.1//EN" "http://www.w3.org/Graphics/SVG/1.1/DTD/svg11.dtd">
<svg version="1.1" id="Layer_1" xmlns="http://www.w3.org/2000/svg" xmlns:xlink="http://www.w3.org/1999/xlink" x="0px" y="0px"
	 width="500px" height="500px" viewBox="0 0 500 500" enable-background="new 0 0 500 500" xml:space="preserve">
<g id="javascript">
	<polygon fill="#E4A229" points="105.298,459.401 73.099,98.257 426.901,98.257 394.67,459.342 249.784,499.51 	"/>
	<polygon fill="#EFBF23" points="249.703,468.361 366.778,435.904 394.323,127.34 249.703,127.34 	"/>
	<g>
		<polygon fill="#171617" points="312.965,18.491 283.598,18.491 314.138,51.629 314.138,67.401 251.236,67.401 251.236,48.935 
			281.77,48.935 251.236,15.797 251.236,0 312.965,0 		"/>
		<path fill="#030303" d="M240.034,0.029v67.343h-54.171V45.114h31.655V0.029h22.514H240.034z"/>
	</g>
	<polygon fill="#EBEBEB" points="249.636,376.343 249.443,376.399 200.113,363.078 196.958,327.753 172.991,327.753 
		152.498,327.753 158.703,397.298 249.431,422.485 249.636,422.428 	"/>
	<polygon fill="#EBEBEB" points="255.602,305.585 255.602,261.293 201.061,261.293 207.457,191.778 255.725,190.493 
		255.602,144.434 167.412,144.434 164.134,177.083 153.725,293.69 152.646,305.585 164.581,305.585 	"/>
	<polygon fill="#FFFFFF" points="255.302,190.555 255.496,190.5 303.872,193.413 307.977,239.144 331.945,239.144 352.439,239.144 
		344.692,153.568 255.506,144.414 255.302,144.471 	"/>
	<polyline fill="#FFFFFF" points="347.873,190.69 344.078,144.434 250.583,144.434 250.583,173.162 250.583,190.575 250.583,190.69 
		347.873,190.69 	"/>
	<polygon fill="#FFFFFF" points="249.482,261.314 249.482,305.605 304.023,305.605 298.882,363.048 249.482,376.383 
		249.482,422.465 340.285,397.298 340.949,389.815 351.359,273.207 352.439,261.314 340.503,261.314 	"/>
	<path fill="#FFFFFF" d="M342.183,188.728"/>
</g>
</svg>
