<svg version="1.1" id="moon" xmlns="http://www.w3.org/2000/svg" xmlns:xlink="http://www.w3.org/1999/xlink" x="0px" y="0px" viewBox="7.158 5.878 37.662 40.099" enable-background="new 7.158 5.878 37.662 40.099"
	 xml:space="preserve">
<g>
	<path d="M27.659,45.477c-5.592,0-10.778-2.249-14.603-6.334c-3.821-4.079-5.722-9.415-5.353-15.025
		C8.2,16.574,13.067,9.919,20.028,7.012c-3.29,4.124-4.828,9.375-4.25,14.691c0.984,9.056,8.25,16.461,17.277,17.609
		c0.866,0.11,1.741,0.166,2.603,0.166c2.617,0,5.218-0.517,7.622-1.504C39.502,42.703,33.792,45.477,27.659,45.477z"/>
	<path d="M18.479,8.304c-2.568,3.942-3.718,8.672-3.198,13.453c1.008,9.284,8.457,16.875,17.712,18.051
		c0.886,0.112,1.783,0.17,2.665,0.17c2.026,0,4.043-0.302,5.97-0.886c-3.633,3.735-8.637,5.885-13.969,5.885
		c-5.453,0-10.509-2.193-14.238-6.176c-3.726-3.977-5.579-9.18-5.219-14.651C8.644,17.443,12.631,11.455,18.479,8.304 M21.693,5.878
		C13.647,8.36,7.758,15.681,7.204,24.084c-0.378,5.751,1.57,11.219,5.487,15.4c3.919,4.186,9.234,6.492,14.968,6.492
		c7.027,0,13.437-3.586,17.161-9.279c-2.791,1.487-5.924,2.28-9.162,2.28c-0.842,0-1.695-0.055-2.539-0.162
		c-8.801-1.118-15.885-8.338-16.844-17.167C15.634,15.751,17.694,9.992,21.693,5.878L21.693,5.878z"/>
</g>
</svg>
