<?xml version="1.0" encoding="utf-8"?>
<!-- Generator: Adobe Illustrator 16.0.0, SVG Export Plug-In . SVG Version: 6.00 Build 0)  -->
<!DOCTYPE svg PUBLIC "-//W3C//DTD SVG 1.1//EN" "http://www.w3.org/Graphics/SVG/1.1/DTD/svg11.dtd">
<svg version="1.1" id="Layer_1" xmlns="http://www.w3.org/2000/svg" xmlns:xlink="http://www.w3.org/1999/xlink" x="0px" y="0px"
	viewBox="0 0 300 300" enable-background="new 0 0 300 300" xml:space="preserve">
<path fill="#9BBA9C" d="M122.22,293.529C41.792,279.348-11.911,202.648,2.271,122.221C16.451,41.795,93.148-11.91,173.578,2.271
	c80.432,14.187,134.135,90.881,119.955,171.312C279.348,254.006,202.651,307.711,122.22,293.529z"/>
<g id="bobbyBoardroomHead">
	<path id="path6339_8_" fill="#E0E1E0" d="M222.538,180.842c-1.494,0.114-2.988,0.293-4.482,0.464
		c-7.796,0.904-15.734,1.463-20.646,3.557c-1.724,0.733-3.067,1.677-4.583,2.135c-1.318,0.404-2.752,0.5-4.139,0.16
		c-1.512-4.632-1.201-9.279,1.064-13.229c2.217-3.867,5.967-6.469,10.62-7.499c7.431-1.979,14.44-1.173,18.833,3.046
		C222.216,172.378,223.478,176.448,222.538,180.842L222.538,180.842z"/>
	<path fill="#9E7050" d="M242.743,133.199l-9.564-36.008l-25.186-10.544l-12.295-0.229l-23.827-3.546l-14.412-4.157l-29.228,18.161
		l-11.956,23.155l-18.68,37.838l-10.294,10.33c0.765-11.216-1.705-20.745-7.37-24.177c-2.885-1.752-6.245-1.616-9.111-0.021
		c-1.365,0.75-2.556,1.848-3.353,3.245c-0.651,1.151-1.008,2.466-1.276,3.86c-0.722,3.621-0.822,7.785-0.464,11.756
		c0.271,3.088,0.761,6.102,1.712,8.947c0.54,1.629,1.215,3.181,1.905,4.739c9.075,20.503,18.629,40.684,31.819,55.131
		c7.192,7.885,15.377,14.033,22.058,21.66c4.071,4.641,7.585,9.809,11.456,14.648c0.204,0.25,2.087,1.426,2.312,1.668
		c3.278,1.842,4.976,2.592,9.668,3.973c2.624,1.172,5.254,2.266,7.899,3.416c2.767,1.193,5.512,2.41,8.45,3.117
		c4.639,1.123,9.758,0.943,14.869,0.822c4.768-0.121,9.508-0.121,13.646-1.859c4.619-1.938,8.515-5.854,10.738-11.094
		c3.08-5.592,5.947-11.289,8.699-17.078c4.354-9.172,8.379-18.594,12.203-28.103c3.346-7.72,6.491-15.526,9.223-23.454
		c1.794-5.204,3.409-10.459,4.768-15.792c1.502-5.833,2.709-11.752,3.632-17.729c0.851-5.352,1.136-10.809,1.136-16.199
		c0-4.804-0.479-9.744,0.058-13.379C242.144,135.172,242.357,134.164,242.743,133.199z M161.666,179.055
		c-1.101-0.3-2.216-0.562-3.331-0.822c-5.815-1.365-11.648-3.017-15.709-2.78c-1.426,0.085-2.634,0.414-3.839,0.357
		c-1.051-0.055-2.102-0.354-3.006-0.959c0.132-3.725,1.569-6.991,4.225-9.246c2.599-2.213,5.962-3.121,9.565-2.656
		c5.841,0.5,10.645,2.889,12.683,7.062C163.649,172.878,163.485,176.134,161.666,179.055z M214.942,180.53
		c-0.955,0.039-1.905,0.118-2.855,0.189c-4.973,0.396-10.03,0.572-13.189,1.787c-1.112,0.43-1.984,0.998-2.957,1.255
		c-0.85,0.226-1.758,0.254-2.634,0.011c-0.858-2.988-2.56-7.449,0.965-8.393c5.008-1.34,6.19-1.822,9.172-2.373
		c9.15-1.716,6.938-2.566,9.63,0.222C214.925,175.144,215.632,177.761,214.942,180.53z"/>
	<path id="path6339_7_" fill="#E0E1E0" d="M161.816,179.055c-1.101-0.3-2.216-0.562-3.327-0.822
		c-5.816-1.365-11.649-3.017-15.714-2.78c-1.422,0.085-2.63,0.414-3.835,0.357c-1.055-0.055-2.105-0.354-3.006-0.959
		c0.129-3.725,1.566-6.991,4.225-9.246c2.595-2.213,5.959-3.121,9.562-2.656c5.841,0.5,10.645,2.889,12.686,7.062
		C163.804,172.878,163.64,176.134,161.816,179.055L161.816,179.055z"/>
	<path id="hair_5_" fill="#272626" d="M246.611,117.686l-4.769,19.613l-9.801-37.646l-25.771-10.98
		c-4.096,0.204-13.704,0.004-17.843-0.304c-7.856-0.586-12.035-0.815-19.978-2.441l-17.08,0.154L128.26,96.84l-8.457,16.979
		l-22.179,44.004l-10.391,11.198c-6.059,6.526,5.723-15.327-8.839-25.249c-1.38-0.923-2.978-1.541-4.672-0.822l-2.92,2.405
		l-1.991,4.157c-1.512,3.781-1.969,7.855-1.676,11.852c0.372,4.983,2.134,9.78,4.218,14.684
		c4.958,11.639,12.246,23.327,19.812,34.723c5.265,6.948,8.075,19.364,9.49,20.454c1.483,2.57,0.218,2.521-0.49,3.914
		c-6.08-4.002-12.125-8.078-17.933-12.33c-2.895-2.116-5.715-4.261-8.296-6.978c-4.732-4.939-8.614-11.73-12.381-18.522
		c-1.794-3.245-3.592-6.498-5.269-9.829c-4.468-8.857-8.171-18.129-10.058-27.823c-1.909-9.786-2.045-19.952-0.254-29.989
		c1.941-11.081,4.704-21.918,8.106-32.581c4.411-13.775,9.93-27.187,16.199-40.215c0.836,0.021,1.537,0.029,1.537,0.029
		s-0.693-0.007-1.537-0.029c1.147,0.186,2.084,0.343,2.084,0.343s-0.937-0.157-2.084-0.343c2.069,0.697,3.768,1.255,3.768,1.255
		s-1.694-0.561-3.768-1.255l0,0c2.445-0.339,4.536-1.601,6.148-3.474c2.241-2.631,3.342-6.327,3.474-10.369
		c0.308-0.365,0.547-0.668,0.547-0.668s-0.236,0.296-0.547,0.668c1.802-1.827,3.739-3.385,5.869-4.958
		c7.46-5.526,17.347-10.687,27.015-15.484c0.357,0.329,0.625,0.601,0.625,0.601s-0.268-0.268-0.625-0.601l3.567,4.354l17.479-8.257
		c2.212,3.11,5.136,4.589,8.071,3.381c2.517-1.037,3.754-3.539,3.574-6.67c5.176-0.729,10.381-0.804,15.562-0.5
		c15.292,0.894,30.097,4.754,43.223,12.471c11.823,6.949,21.731,16.95,29.959,28.581c8.443,11.928,14.527,26.018,16.393,39.644
		c1.022,7.481,0.394,15.348-1.752,19.441C248.227,116.142,247.562,117.032,246.611,117.686L246.611,117.686z"/>
	<path id="leftEyebrow" fill="#272626" d="M233.222,164.36l-15.562-6.283
		c-7.088,0.689-14.154,0.864-19.709-0.715c-2.478-0.709-4.529-1.648-5.309-3.278c-1.141-2.388,0.365-5.376,3.643-6.587
		c7.385-2.725,14.959-2.617,21.718,0.396C224.965,150.999,230.212,156.8,233.222,164.36L233.222,164.36z"/>
	<path id="rightEyebrow" fill="#272626" d="M176.438,146.103c1.487,1.465,2.109,3.299,1.541,5.15
		c-0.568,1.859-2.105,3.027-4.156,3.41c-10.734-2.424-21.709-4.668-32.259-6.741c-3.991-0.786-7.748-1.394-8.094-2.76
		c-0.441-1.751,4.309-4.257,10.711-5.801L176.438,146.103z"/>
	<g id="eyes">
		<path id="path6335" fill="#272626" d="M187.752,216.653c-8.653-1.205-15.716-1.852-15.827-1.358
			c-0.133,0.554,8.096,2.224,18.312,3.828c-0.551-7.331-1.009-14.683-1.229-21.976c-0.118-3.795-0.183-7.57-0.14-11.355l5.612,0.794
			c0.375-0.594,0.904-1.012,1.555-1.372c3.803-2.113,11.756-1.773,19.908-0.819l15.166-2.859
			c-4.139-7.134-11.326-10.948-18.747-10.978c-8.093-0.035-16.214,4.576-21.074,3.486c-1.387-0.315-2.502-1.055-3.731-1.312
			c-1.266-0.268-2.652-0.129-3.836,0.555L187.752,216.653z"/>
		<path id="path6337" fill="#272626" d="M148.414,176.531c3.132,0.347,6.222,1.058,9.103,2.177
			c2.287,0.887,4.406,2.13,6.555,2.119c2.438-0.007,4.812-1.412,6.059-3.896c-0.139-5.086-2.512-9.564-6.111-12.553
			c-3.65-3.034-8.536-4.336-13.662-4.407c-8.158-0.114-16.472,3.206-24.329,8.157l10.493,7.416c0.413,0.361,0.926,0.565,1.438,0.608
			c0.452,0.039,0.928-0.071,1.401-0.15c1.562-0.271,3.137-0.357,4.763-0.235C145.569,175.874,147.021,176.095,148.414,176.531
			L148.414,176.531z"/>
		<path id="path6339" fill="#E0E1E0" d="M162.646,180.677c-1.029-0.324-2.069-0.611-3.113-0.9
			c-5.437-1.494-10.884-3.264-14.719-3.188c-1.346,0.024-2.497,0.296-3.628,0.192c-0.99-0.086-1.973-0.407-2.806-1.008
			c0.238-3.503,1.696-6.523,4.266-8.554c2.518-1.987,5.715-2.713,9.097-2.148c5.488,0.684,9.945,3.113,11.736,7.113
			C164.708,174.937,164.45,177.997,162.646,180.677L162.646,180.677z"/>
		<path id="path6341" fill="#E0E1E0" d="M216.179,184.059c-0.951,0.007-1.901,0.05-2.859,0.089
			c-4.976,0.226-10.037,0.223-13.239,1.33c-1.13,0.387-2.017,0.926-2.995,1.147c-0.861,0.192-1.773,0.192-2.639-0.082
			c-0.754-3.013-0.35-5.944,1.259-8.351c1.573-2.358,4.067-3.842,7.066-4.285c4.797-0.918,9.208-0.09,11.799,2.788
			C216.357,178.676,216.969,181.313,216.179,184.059z"/>
		<path id="path6349" fill="#7D5C44" d="M143.794,169.715c1.024-1.337,2.345-2.427,3.814-3.285
			c1.24-0.722,2.568-1.262,3.957-1.466c1.772-0.257,3.588,0.051,5.22,0.826c1.184,0.558,2.247,1.358,3.04,2.377
			c0.801,1.033,1.315,2.266,1.694,3.553c0.551,1.938,0.758,3.953,0.515,5.895c-0.114,0.961-0.347,1.891-0.729,2.781
			c-1.545-0.43-3.104-0.834-4.641-1.291c-1.887-0.564-3.754-1.129-5.707-1.537c-3.509-0.726-7.321-0.865-11.085-0.715
			c0.629-1.266,1.266-2.523,1.914-3.777C142.392,171.905,143.001,170.744,143.794,169.715L143.794,169.715z"/>
		<path id="path6351" fill="#7D5C44" d="M197.349,179.977c0.501-1.401,1.316-2.677,2.316-3.8
			c0.844-0.947,1.816-1.758,2.924-2.305c1.423-0.701,3.031-0.94,4.611-0.736c1.15,0.153,2.259,0.535,3.21,1.18
			c0.95,0.643,1.723,1.543,2.388,2.523c0.993,1.476,1.709,3.116,2.041,4.814c0.16,0.84,0.218,1.684,0.139,2.534
			c-1.415,0.061-2.834,0.143-4.25,0.179c-1.748,0.039-3.467,0.068-5.215,0.264c-3.145,0.34-6.391,1.262-9.515,2.414
			c0.183-1.234,0.379-2.467,0.579-3.697C196.771,182.2,196.97,181.056,197.349,179.977z"/>
		<path id="path6353" fill="#351C0F" d="M145.962,171.752c0.723-0.943,1.657-1.712,2.695-2.319
			c0.876-0.508,1.816-0.891,2.793-1.033c1.255-0.183,2.537,0.032,3.691,0.579c0.836,0.396,1.583,0.958,2.146,1.684
			c0.566,0.726,0.933,1.598,1.195,2.509c0.393,1.369,0.536,2.792,0.369,4.168c-0.087,0.676-0.252,1.333-0.518,1.959
			c-1.094-0.301-2.191-0.586-3.281-0.912c-1.332-0.396-2.652-0.801-4.03-1.082c-2.48-0.516-5.172-0.615-7.833-0.508
			c0.445-0.891,0.896-1.78,1.354-2.67C144.97,173.3,145.405,172.478,145.962,171.752z"/>
		<path id="path6355" fill="#351C0F" d="M199.729,181.099c0.347-0.99,0.922-1.891,1.637-2.684
			c0.59-0.665,1.28-1.24,2.066-1.627c1.001-0.493,2.138-0.664,3.26-0.518c0.809,0.104,1.591,0.375,2.26,0.828
			c0.672,0.458,1.222,1.091,1.687,1.788c0.708,1.04,1.212,2.202,1.444,3.399c0.107,0.593,0.15,1.187,0.1,1.791
			c-1.004,0.043-2.002,0.1-3.002,0.121c-1.237,0.031-2.452,0.05-3.689,0.189c-2.223,0.242-4.514,0.894-6.719,1.705
			c0.128-0.873,0.271-1.741,0.406-2.613C199.315,182.672,199.458,181.864,199.729,181.099L199.729,181.099z"/>
		<path id="path6357" fill="#0A0A0A" d="M147.37,173.479c0.484-0.64,1.117-1.158,1.826-1.569
			c0.594-0.343,1.227-0.6,1.892-0.7c0.849-0.122,1.718,0.021,2.5,0.394c0.565,0.268,1.072,0.65,1.453,1.14
			c0.384,0.489,0.635,1.083,0.808,1.698c0.27,0.929,0.363,1.895,0.252,2.823c-0.059,0.458-0.17,0.904-0.35,1.326
			c-0.742-0.204-1.482-0.4-2.224-0.614c-0.902-0.266-1.794-0.537-2.728-0.736c-1.736-0.372-3.621-0.482-5.479-0.477
			c0.402-0.531,0.757-1.097,1.087-1.676C146.724,174.544,146.995,173.976,147.37,173.479L147.37,173.479z"/>
		<path id="path6359" fill="#0A0A0A" d="M201.381,182.171c0.229-0.676,0.626-1.283,1.112-1.822
			c0.396-0.451,0.861-0.844,1.396-1.102c0.68-0.336,1.445-0.449,2.209-0.35c0.544,0.071,1.08,0.254,1.53,0.564
			c0.462,0.308,0.829,0.736,1.144,1.208c0.479,0.708,0.822,1.487,0.977,2.302c0.082,0.4,0.104,0.805,0.067,1.212
			c-0.679,0.028-1.358,0.067-2.034,0.086c-0.828,0.021-1.654,0.039-2.498,0.125c-1.559,0.161-3.174,0.579-4.736,1.091
			c0.193-0.559,0.348-1.13,0.461-1.705C201.124,183.236,201.202,182.687,201.381,182.171L201.381,182.171z"/>
	</g>
	<g id="mouth">
		<path id="path6345" fill="#570F0F" d="M190.064,239.818c-1.048,0.723-1.401,1.848-0.872,2.852
			c0.539,1.006,1.666,1.338,2.859,0.877c-0.404-0.125-0.707-0.223-0.707-0.223s0.303,0.098,0.707,0.223
			c-9.39,2.865-19.001,3.984-28.045,2.438c-6.299-1.084-12.293-3.414-17.541-7.256c1.795-1.559,3.977-2.502,6.256-2.902
			c2.904-0.508,6.012-0.018,9.127,0.117c6.777,0.307,13.618-0.84,19.466,0.182C184.56,236.693,187.513,237.869,190.064,239.818
			L190.064,239.818z"/>
		<path id="path6347" fill="#272626" d="M197.942,232.623c1.326,0.744,1.001,3.885-1.18,7.023
			c-1.462,2.102-3.346,3.881-5.983,4.443c-8.149,1.711-21.679-8.779-35.88-7.818c-2.821,0.193-5.764,0.77-8.021,2.713
			c-0.316-0.113-0.575-0.307-0.842-0.539c-1.994-1.766-3.742-6.148-5.334-10.598c20.91,4.189,42.074,8.482,54.273,5.146
			C196.185,232.676,197.292,232.254,197.942,232.623L197.942,232.623z"/>
		<path id="path6361" fill="#FFFFFF" d="M190.819,235.572c-1.885,0.117-3.754,0.104-5.694,0.039
			c-8.778-0.283-18.958-1.762-28.919-3.213c-2.539-0.373-5.079-0.744-7.617-1.123l-0.117,2.141c1.141,0.309,2.338,0.391,3.502,0.309
			c1.384-0.086,2.75-0.459,4.062-0.326c1.461,0.15,2.853,0.912,4.311,1.059c1.355,0.139,2.774-0.268,4.118-0.104
			c1.415,0.172,2.749,0.969,4.168,1.15c1.208,0.156,2.487-0.125,3.682,0.074c1.279,0.219,2.459,1.002,3.731,1.18
			c1.072,0.154,2.209-0.113,3.303-0.021c1.165,0.098,2.295,0.605,3.424,0.623c0.794,0.01,1.573-0.207,2.353-0.158
			c0.922,0.051,1.815,0.486,2.759,0.662c0.926,0.174,1.902,0.146,2.816-0.143L190.819,235.572z"/>
	</g>
</g>
</svg>
