<svg width="450px" height="450px" viewBox="0 1.5 450 450" enable-background="new 0 1.5 450 450" xml:space="preserve">
<g id="Dark_Blue">
	<path d="M393.75,451.5H56.25C25.2,451.5,0,426.3,0,395.25V57.75C0,26.7,25.2,1.5,56.25,1.5h337.5C424.8,1.5,450,26.7,450,57.75
		v337.5C450,426.3,424.8,451.5,393.75,451.5z"/>
</g>
<g id="Logo__x2014__FIXED">
	<path fill="#FFFFFF" d="M172.8,340.8c106.089,0,164.138-87.975,164.138-164.138c0-2.475,0-4.949-0.111-7.425
		c11.25-8.101,21.037-18.337,28.8-29.925c-10.351,4.611-21.487,7.649-33.188,9.111c11.926-7.087,21.037-18.45,25.426-31.95
		c-11.139,6.639-23.514,11.363-36.676,13.95c-10.574-11.25-25.537-18.225-42.074-18.225c-31.838,0-57.712,25.875-57.712,57.712
		c0,4.5,0.562,8.888,1.462,13.163c-47.925-2.362-90.45-25.425-118.912-60.3c-4.95,8.55-7.763,18.448-7.763,29.023
		c0,20.025,10.237,37.688,25.65,48.038c-9.45-0.338-18.337-2.926-26.1-7.2c0,0.226,0,0.45,0,0.787c0,27.9,19.913,51.3,46.238,56.588
		c-4.837,1.351-9.9,2.024-15.188,2.024c-3.712,0-7.312-0.337-10.8-1.012c7.312,22.948,28.688,39.6,53.888,40.05
		c-19.8,15.523-44.663,24.75-71.663,24.75c-4.612,0-9.225-0.227-13.725-0.788C109.913,331.237,140.288,340.8,172.8,340.8"/>
</g>
</svg>
