<?xml version="1.0" encoding="utf-8"?>
<!-- Generator: Adobe Illustrator 16.0.0, SVG Export Plug-In . SVG Version: 6.00 Build 0)  -->
<!DOCTYPE svg PUBLIC "-//W3C//DTD SVG 1.1//EN" "http://www.w3.org/Graphics/SVG/1.1/DTD/svg11.dtd">
<svg version="1.1" id="Layer_1" xmlns="http://www.w3.org/2000/svg" xmlns:xlink="http://www.w3.org/1999/xlink" x="0px" y="0px"
	 width="1501.629px" height="750.816px" viewBox="0 -102.384 1501.629 750.816"
	 enable-background="new 0 -102.384 1501.629 750.816" xml:space="preserve">
<g id="state-1">
	<rect x="68.256" y="477.792" width="68.256" height="68.257"/>
	<rect x="613.439" y="477.792" width="68.256" height="68.257"/>
	<rect x="136.512" width="68.256" height="68.256"/>
	<rect x="545.184" width="68.256" height="68.256"/>
	<path d="M681.695,68.256v68.256v68.256h-68.256v-68.256h-68.256V68.256h-68.257v68.256h-68.256h-68.257h-68.256V68.256h-68.256
		v68.256h-68.256v68.256H67.392v-68.256V68.256H0v68.256v68.256v68.256v68.256h68.256v68.256h68.256v68.256h68.256v-68.256h68.256
		h68.256h68.257h68.256h68.256v68.256h68.256v-68.256h68.256V341.28h68.256v-68.256v-68.256v-68.256V68.256H681.695z
		 M545.184,204.768v68.256h-68.256v-68.256H545.184z M273.023,204.768v68.256h-68.256v-68.256H273.023z"/>
</g>
<g id="state-2">
	<polygon points="1159.487,477.792 1159.487,546.049 1227.743,546.049 1295.999,546.049 1295.999,477.792 1227.743,477.792 	"/>
	<polygon points="1023.838,546.049 1092.094,546.049 1092.094,477.792 1023.838,477.792 955.583,477.792 955.583,546.049 	"/>
	<path d="M1432.51,273.024v-68.256h-68.256v-68.256h-68.256V68.256h-68.256v68.256h-68.256h-68.256h-68.256V68.256h-68.258v68.256
		h-68.256v68.256h-68.256v68.256h-67.391v68.256v68.256v68.256h68.256v-68.256V341.28h68.256v68.256v68.256h68.256v-68.256h68.256
		h68.254h68.26h68.256h68.256v68.256h68.256v-68.256V341.28h68.256v68.256v68.256h68.256v-68.256V341.28v-68.256H1432.51z
		 M1295.999,204.768v68.256h-68.256v-68.256H1295.999z M1023.838,204.768v68.256h-68.256v-68.256H1023.838z"/>
	<rect x="887.327" width="68.256" height="68.256"/>
	<rect x="1295.999" width="68.256" height="68.256"/>
</g>
</svg>
