<?xml version="1.0" encoding="utf-8"?>
<!-- Generator: Adobe Illustrator 16.0.0, SVG Export Plug-In . SVG Version: 6.00 Build 0)  -->
<!DOCTYPE svg PUBLIC "-//W3C//DTD SVG 1.1//EN" "http://www.w3.org/Graphics/SVG/1.1/DTD/svg11.dtd">
<svg version="1.1" id="Layer_1" xmlns="http://www.w3.org/2000/svg" xmlns:xlink="http://www.w3.org/1999/xlink" x="0px" y="0px"
	 width="450px" height="450px" viewBox="0 0 450 450" enable-background="new 0 0 450 450" xml:space="preserve">
<path d="M393.75,1.5H56.25C25.2,1.5,0,26.7,0,57.75v337.5c0,31.05,25.2,56.25,56.25,56.25h337.5c31.05,0,56.25-25.2,56.25-56.25
	V57.75C450,26.7,424.8,1.5,393.75,1.5z M187.92,192.42c9.287-14.838,10.869-17.542,13.6-23.241
	c3.634-7.584,4.832-12.089,4.908-18.452c0.072-6.082-0.839-9.69-3.64-14.409c-1.988-3.35-6.462-8.393-8.278-9.333
	c-2.961-1.531-3.575-3.611-1.473-4.989c3.325-2.178,12.411-0.797,20.758,3.157c9.444,4.474,16.405,10.898,20.938,19.323
	c3.494,6.494,4.901,11.47,7.271,25.69c2.63,15.779,5.236,20.785,10.508,20.18c2.793-0.321,4.536-1.381,5.713-3.474
	c1.873-3.334,1.069-7.896-2.719-15.448c-3.097-6.169-2.904-8.033,0.727-7.072c1.882,0.497,7.984,5.482,12.211,9.973
	c10.572,11.235,15.832,21.442,18.363,35.625c1.327,7.439,1.438,19.774,0.234,26.221c-1.518,8.134-4.593,15.81-8.964,22.374
	c-4.873,7.32-15.04,16.583-22.433,20.438c-3.338,1.738-4.496,1.845-6.133,0.558c-2.035-1.601-1.605-2.714,2.894-7.492
	c6.76-7.181,10.21-12.284,12.213-18.063c3.089-8.915,1.552-21.346-3.62-29.268c-2.145-3.281-5.283-6.176-6.702-6.176
	c-0.774,0-0.647,1.024,0.793,6.299c0.505,1.848,0.917,4.106,0.917,5.02c0,4.824-6.812,8.324-12.812,6.58
	c-4.875-1.418-7.024-5.84-6.379-13.125c0.199-2.252,0.379-6.343,0.396-9.093c0.033-4.847-0.013-5.092-1.548-8.118
	c-2.991-5.898-9.908-11.975-13.632-11.975c-1.606,0-1.738,0.098-1.738,1.278c0,0.792,0.445,1.693,1.174,2.373
	c3.859,3.602,4.584,10.981,1.722,17.496c-1.77,4.026-3.765,6.308-10.579,12.091c-8.966,7.608-11.854,11.233-13.646,17.116
	c-0.828,2.723-0.914,3.83-0.681,8.815c0.392,8.373,2.098,13.923,6.086,19.796c3.062,4.51,6.647,7.369,11.517,9.188
	c2.342,0.875,2.6,1.101,2.6,2.278c0,1.366-1.038,2.264-2.569,2.223c-0.454-0.012-2.654-0.688-4.892-1.502
	c-15.07-5.482-27.609-16.164-34.028-28.991c-3.568-7.131-5.64-15.769-5.638-23.509C171.36,222.316,175.453,212.343,187.92,192.42z
	 M116.863,341.038c-1.869,0.518-1.996,0.521-3.996,0.042c-5.858-1.398-14.335-8.753-23.736-20.593
	c-19.083-24.034-29.444-50.991-32.495-84.542c-0.587-6.457-0.582-22.793,0.01-28.772c2.791-28.188,12.654-52.463,30.752-75.684
	c5.542-7.111,14.728-16.426,19.127-19.397c6.225-4.204,10.143-4.544,13.903-1.206c1.533,1.361,1.887,1.995,2.083,3.74
	c0.369,3.286-1.313,5.853-9.146,13.943c-10.945,11.305-15.995,17.598-21.587,26.905c-12.702,21.134-18.136,43.359-17.357,70.978
	c0.415,14.714,1.99,25.56,5.462,37.624c3.127,10.863,6.881,19.625,12.502,29.178c5.644,9.592,10.386,15.659,19.87,25.425
	c8.32,8.566,10.387,11.543,10.387,14.955C122.641,337.028,120.245,340.099,116.863,341.038z M314.657,322.556l-1.913,1.098
	l-81.15,0.075c-44.633,0.043-81.707-0.092-82.386-0.299c-4.961-1.504-7.837-6.461-6.641-11.447c0.739-3.084,3.835-6.254,6.847-7.014
	c3.034-0.764,159.972-0.764,163.004,0c3.105,0.782,6.155,3.962,6.834,7.126C320.141,316.24,318.277,320.483,314.657,322.556z
	 M373.572,302.33c-10.202,16.872-25.766,34.159-34.055,37.826c-2.166,0.958-5.273,1.424-7.022,1.052
	c-1.771-0.375-4.938-3.78-5.294-5.693c-0.576-3.081,1.257-5.825,9.805-14.679c4.205-4.355,9.381-10.081,11.499-12.725
	c15.505-19.334,24.119-40.846,26.418-65.973c0.708-7.744,0.343-27.703-0.646-35.186c-2.068-15.676-5.891-28.501-12.506-41.986
	c-6.33-12.903-12.881-22.055-23.94-33.455c-7.431-7.655-9.619-10.45-10.365-13.23c-0.731-2.725-0.206-4.749,1.839-7.071
	c2.803-3.185,6.008-3.469,11.02-0.978c6.066,3.017,13.93,10.894,23.057,23.099c18.362,24.556,27.833,51.571,30.109,85.887
	C395.424,248.375,388.35,277.889,373.572,302.33z"/>
</svg>
