<?xml version="1.0" encoding="utf-8"?>
<!-- Generator: Adobe Illustrator 16.0.0, SVG Export Plug-In . SVG Version: 6.00 Build 0)  -->
<!DOCTYPE svg PUBLIC "-//W3C//DTD SVG 1.1//EN" "http://www.w3.org/Graphics/SVG/1.1/DTD/svg11.dtd">
<svg version="1.1" id="Layer_1" xmlns="http://www.w3.org/2000/svg" xmlns:xlink="http://www.w3.org/1999/xlink" x="0px" y="0px"
	 width="20px" height="40px" viewBox="0 -5 20 40" enable-background="new 0 -5 20 40" xml:space="preserve">
<path fill="#FDFDFD" d="M2.06,11c0.374,2.968,2.372,5.479,5.18,6.51C6.445,15.432,6.032,13.227,6.02,11H2.06z M2.06,9h3.96
	c0.012-2.226,0.425-4.431,1.22-6.51C4.432,3.521,2.434,6.032,2.06,9z M17.939,9c-0.373-2.968-2.371-5.479-5.181-6.51
	c0.796,2.079,1.21,4.284,1.222,6.51H17.939z M17.939,11H13.98c-0.013,2.227-0.426,4.432-1.222,6.51
	C15.568,16.479,17.566,13.968,17.939,11z M8.02,11c0.16,3.95,1.23,7,1.98,7s1.82-3.05,1.98-7H8.02z M8.02,9h3.96
	C11.82,5.05,10.75,2,10,2S8.18,5.05,8.02,9z M10,20C4.477,20,0,15.523,0,10C0,4.477,4.477,0,10,0c5.523,0,10,4.477,10,10
	C20,15.523,15.523,20,10,20z"/>
</svg>
