<?xml version="1.0" encoding="utf-8"?>
<!-- Generator: Adobe Illustrator 16.0.0, SVG Export Plug-In . SVG Version: 6.00 Build 0)  -->
<!DOCTYPE svg PUBLIC "-//W3C//DTD SVG 1.1//EN" "http://www.w3.org/Graphics/SVG/1.1/DTD/svg11.dtd">
<svg version="1.1" id="Layer_1" xmlns="http://www.w3.org/2000/svg" xmlns:xlink="http://www.w3.org/1999/xlink" x="0px" y="0px" viewBox="0 0 1577.623 1577.62" enable-background="new 0 0 1577.623 1577.62"
	 xml:space="preserve">
<path fill="#9BBA9C" d="M651.842,1565.488c-428.949-75.633-715.365-484.699-639.728-913.643
	C87.74,222.907,496.791-63.52,925.752,12.112c428.971,75.664,715.387,484.698,639.76,913.664
	C1489.857,1354.699,1080.808,1641.125,651.842,1565.488z"/>
<g id="questionMarkTwo" display="none">
	<path display="inline" fill="#B26768" d="M1808.555,261.365c-57.973-27.931-124.838-41.909-200.561-41.909
		c-81.477,0-152.768,16.72-213.877,50.139c-61.104,33.43-107.6,75.6-139.445,126.522c-31.872,50.918-44.992,163.307-44.992,163.307
		l202.459-3.093c0,0,41.781-99.104,68.938-128.091s69.456-43.478,126.917-43.478c49.094,0,89.18,14.384,120.268,43.099
		c31.066,28.736,46.613,64,46.613,105.776c0,21.418-5.094,41.285-15.28,59.562c-10.181,18.282-22.726,34.912-37.605,49.797
		c-14.886,14.88-39.045,37.051-72.47,66.294c-38.133,33.435-68.437,62.479-90.879,86.768c-22.47,24.288-40.48,52.869-54.059,85.003
		c-13.59,32.112-20.369,71.728-20.369,115.6c0,35.003-13.717,70,4.822,91.334h172.384c18.054-16,6.971-37.371,12.384-67.057
		c5.744-25.584,10.054-45.45,12.928-55.626c2.864-10.192,6.918-20.582,12.145-30.773c5.211-10.177,13.179-21.515,23.888-33.787
		c10.704-12.267,24.944-26.555,42.704-42.752c64.24-57.451,108.758-98.352,133.578-122.635c24.79-24.288,46.209-53.157,64.24-86.581
		c18.017-33.419,27.024-72.336,27.024-116.736c0-56.405-15.808-108.635-47.397-156.693
		C1911.312,327.317,1866.539,289.317,1808.555,261.365z"/>
	<path display="inline" fill="#B26768" d="M1582.565,1146.304c-33.43,0-61.638,11.228-84.618,33.681
		c-22.987,22.469-34.47,50.139-34.47,83.045c0,37.088,11.872,65.947,35.653,86.57c23.76,20.613,51.573,30.944,83.439,30.944
		c30.811,0,57.974-10.453,81.478-31.339c23.504-20.885,35.243-49.61,35.243-86.176c0-32.906-11.227-60.576-33.675-83.045
		C1643.157,1157.531,1615.467,1146.304,1582.565,1146.304z"/>
</g>
<g>
	<path fill="#88B337" d="M808.221,489.671c-11.341,0.017-22.55,2.386-32.918,6.945V374.457H479.039
		c-54.546,0-98.754,44.209-98.754,98.755v296.263h122.159c-18.271-41.607,0.641-90.162,42.267-108.432
		c41.609-18.27,90.163,0.642,108.432,42.267c9.268,21.083,9.268,45.1,0,66.183h122.16v-122.16
		c41.608,18.271,90.163-0.641,108.431-42.268c18.27-41.625-0.641-90.162-42.266-108.431
		C831,492.008,819.678,489.654,808.221,489.671z"/>
	<path fill="#E8594A" d="M1170.32,473.212c0-54.546-44.209-98.755-98.752-98.755H775.303v122.159
		c41.608-18.271,90.163,0.642,108.431,42.268c18.271,41.608-0.641,90.163-42.266,108.432c-21.084,9.267-45.099,9.267-66.183,0
		v122.159h122.16c-18.27,41.609,0.641,90.163,42.267,108.432c41.609,18.27,90.164-0.641,108.433-42.267
		c9.267-21.083,9.267-45.099,0-66.182h122.176V473.212L1170.32,473.212z"/>
	<path fill="#D65245" d="M1170.32,482.609c-94.079,130.883-263.921,205.229-395.018,245.241v41.627h122.159
		c-18.271,41.607,0.642,90.162,42.268,108.431c41.607,18.27,90.162-0.641,108.432-42.267c9.268-21.083,9.268-45.098,0-66.182
		h122.159V482.609z"/>
	<path fill="#FDB62F" d="M742.385,901.148c11.34,0.016,22.549,2.387,32.918,6.945V769.475h-122.16
		c18.271-41.607-0.641-90.162-42.267-108.432s-90.163,0.642-108.432,42.267c-9.268,21.083-9.268,45.1,0,66.183H380.285v296.264
		c0,54.545,44.208,98.754,98.754,98.754h296.264v-105.701c-41.609,18.271-90.164-0.641-108.432-42.268
		c-18.271-41.607,0.642-90.162,42.267-108.432C719.605,903.484,730.929,901.131,742.385,901.148z"/>
	<path fill="#FFA719" d="M380.285,1065.74c0,54.545,44.208,98.756,98.754,98.756h296.264v-105.701
		c-41.412,18.236-89.769-0.543-108.005-41.955c-4.23-9.611-6.583-19.965-6.914-30.467c-88.237,39.355-183.503,60.539-280.101,62.299
		v17.068H380.285z"/>
	<path display="none" fill="#4398D1" d="M1213.362,1113.471l-104.139-278.158l-114.373,43.072
		c31.881,32.473,31.388,84.648-1.088,116.514c-32.474,31.865-84.65,31.387-116.513-1.088
		c-16.228-16.541-24.756-39.139-23.472-62.279L739.42,974.604l48.719,130.176c-11.308-0.643-22.631,1.086-33.246,5.068
		c-42.499,16.492-63.564,64.307-47.072,106.803c16.212,41.758,62.774,62.973,104.926,47.764c10.615-4,20.295-10.188,28.391-18.139
		l37.136,99.268l277.368-104.465C1206.761,1221.723,1232.585,1164.641,1213.362,1113.471z"/>
	<path display="none" fill="#3E8FC9" d="M1159.655,970.029c-113.566,169.857-326.465,229.176-451.161,249.602
		c17.497,41.625,65.426,61.178,107.049,43.682c9.531-4,18.223-9.793,25.594-17.037l37.136,99.268l277.368-104.465
		c51.104-19.355,76.913-76.402,57.723-127.557L1159.655,970.029z"/>
	<path fill="#80A834" d="M808.221,489.671c-11.341,0.017-22.55,2.386-32.918,6.945v-23.882
		C652.058,586.187,485.08,648.846,380.285,679.379v90.096h122.159c-18.271-41.607,0.641-90.162,42.267-108.432
		c41.609-18.27,90.163,0.642,108.432,42.267c9.268,21.083,9.268,45.1,0,66.183h122.16v-122.16
		c41.608,18.271,90.163-0.641,108.431-42.268c18.27-41.625-0.641-90.162-42.266-108.431
		C831,492.008,819.678,489.654,808.221,489.671z"/>
</g>
</svg>
