<svg viewBox="0 0 714 714">
<g ><line x1="430" y1="505" x2="302" y2="529"></line>
<line x1="430" y1="537" x2="302" y2="561"></line><line x1="430" y1="569" x2="302" y2="593"></line><line x1="410" y1="605" x2="322" y2="621"></line></g>
<g ><defs><clipPath id="i-lightbulb-light-clip">
<polygon points="514,329 436,369 436,436 299,436 293,360 489,280"></polygon></clipPath></defs><g><line x1="330" y1="369" x2="330" y2="435"></line><polyline points="478,313 402,349 402,435"></polyline></g>
<line x1="478" y1="129" x2="254" y2="233"></line><line x1="354" y1="125" x2="254" y2="173"></line><line x1="478" y1="189" x2="254" y2="293"></line><line x1="478" y1="249" x2="254" y2="353"></line></g><path class="i-lightbulb-base" d="M292.431,505c0.863,4.314,5.169,7.845,9.569,7.845h128c4.4,0,8.706-3.53,9.569-7.845l12.861-64.311c0.863-4.314-2.03-7.845-6.431-7.845H286c-4.4,0-7.294,3.53-6.431,7.845L292.431,505z"></path></svg>