<?xml version="1.0" encoding="utf-8"?>
<!-- Generator: Adobe Illustrator 16.0.0, SVG Export Plug-In . SVG Version: 6.00 Build 0)  -->
<!DOCTYPE svg PUBLIC "-//W3C//DTD SVG 1.1//EN" "http://www.w3.org/Graphics/SVG/1.1/DTD/svg11.dtd">
<svg version="1.1" id="Layer_1" xmlns="http://www.w3.org/2000/svg" xmlns:xlink="http://www.w3.org/1999/xlink" x="0px" y="0px"
	 width="100px" height="100.014px" viewBox="0 0 100 100.014" enable-background="new 0 0 100 100.014" xml:space="preserve">
<path fill="#F8E098" stroke="#C9A85D" stroke-miterlimit="10" d="M0,0.5c28.75,6.243,39.506,59.856,51.499,70.674
	c9.666,1.402,41.954-17.019,49.813-12.917c-1.933-1.382-10.371-3.225-88.141-55.696C8.668-0.475,6.029,0.697,0,0.5z"/>
<path id="corner-color-filter" opacity="0.3" fill="#FDFDFD" d="M-0.5,1c28.75,6.243,39.506,59.856,51.499,70.674
	C60.665,73.076,91.641,53.989,99.5,58.09c-1.933-1.382-9.059-2.558-86.828-55.028C8.168,0.026,5.529,1.197-0.5,1z"/>
<path id="corner-color-filter_1_" display="none" opacity="0.5" fill="#3D465C" enable-background="new    " d="M-15.768-10
	c36.144,1.713,47.091,69.484,60.957,81.731C56.364,73.32,91.913,52.882,101,57.526c-2.234-1.566-10.473-2.896-100.384-62.3
	C-4.591-8.212-8.798-9.777-15.768-10z"/>
<path fill="#F8E098" d="M0,100h100V58.257c-1.111-0.566-4.61-2.942-6.25-1.916c-0.425,0.266-1.823,1.075-3.959,1.1
	c-2.166,0.025-3.206,0.978-4.925,1.544c-4.616,1.522-3.613,2.688-5.46,1.965c-0.489-0.191-4.209,0.683-5.586,2.118
	c-0.82,0.855-3.653,0.105-5.322,1.996c-1.109,1.258-3.089,2.019-4.572,1.599c-0.843-0.238-5.843,0.512-6.249,1.723
	c-0.358,1.067-3.354,0.494-4.565,0.322c-1.334-1.178-3.019-5.7-3.94-5.216c-0.039,0.021-0.683,0.419-1.004-0.567
	c-0.319-0.98,0.11-2.486-1.425-4.143c-0.061-0.065-1.469,0.017-1.577-3.604c-0.009-0.295-0.946-4.795-1.737-3.908
	c-0.765,0.858-0.459-2.638-1.559-3.384c-1.202-0.815-2.256-2.464-1.895-3.961c0.131-0.542-1.256-1.644-1.313-2.654
	c-0.041-0.713-0.414-1.862-1.065-3.332c-0.733-1.657-3.677-3.398-3.18-6.026c0.25-1.32-4.264-4.563-5.343-8.229
	c-0.824-2.799-4.759-7.4-6.521-8.469c-1.679-1.019-3.146-3.279-5.762-6.081c-1.916-2.051-2.717-4.188-5.417-6
	C9.293,1.736,9.781,1.007,0,1"/>
</svg>
