<?xml version="1.0" encoding="utf-8"?>
<!-- Generator: Adobe Illustrator 16.0.0, SVG Export Plug-In . SVG Version: 6.00 Build 0)  -->
<!DOCTYPE svg PUBLIC "-//W3C//DTD SVG 1.1//EN" "http://www.w3.org/Graphics/SVG/1.1/DTD/svg11.dtd">
<svg version="1.1" id="rippedPaperBottom" xmlns="http://www.w3.org/2000/svg" xmlns:xlink="http://www.w3.org/1999/xlink" x="0px"
	 y="0px" width="800px" height="20px" viewBox="0 0 800 20" enable-background="new 0 0 800 20" xml:space="preserve">
<path fill="#F8E098" stroke="#C9A85D" stroke-miterlimit="10" d="M-20.333,20.501c-2.821,0.151-6.349-18.869-1.75-20.333
	c0.428-0.137,20.042-0.282,20.375-0.083c2.072-0.37,11.323,3.711,14.925,4.791c1.363,0.409,5.195,2.63,7.25,3
	C25.36,2.687,27.254,3.432,35.967,5c5.32,0.959,12.424,1.159,16.625,2.125c2.146,0.49,4.021,0.924,6.25,0.25
	c2.852-0.595,4.703,3.119,8.75,3.001c0.383,0.379,4.021-5.376,4.375-5.269c2.584,0.766,6.562-0.798,8.5,0.404
	c0.768,0.475,1.982,2.569,2.5,3.232c3.342-1.613,12.865-3.805,19-2.424c2.279,0.513,3.527,3.245,7,2.424
	c0.5-0.404,1-0.808,1.5-1.212c3.666,0,7.334,0,11,0c2.354-0.557,6.896-1.949,9-2.424c2.5,0.269,5,0.539,7.5,0.808
	c4.039-1.083,3.785-3.945,11-4.04c2.197,2.431,4.072,1.152,8.5,2.02c0.238,0.047,0.982,0.875,1.5,0.808
	c1.271-0.167,2.033-1.7,4.5-1.212c2.455,0.486,4.021,2.775,6,3.232c2.459,0.567,5.953-0.946,8.5,0.404
	c1.283,0.681,2.553,2.706,4,3.231c1.666,0.136,3.334,0.27,5,0.404c0.666,0.539,1.334,1.077,2,1.616
	c2.107,0.463,2.428-0.928,3.5-1.212c2.5,0,5,0,7.5,0c1.217-0.301,2.324-1.566,4.5-1.212c2.479,0.401,3.354,2.271,5,2.828
	c2.5-0.136,5-0.271,7.5-0.404c0.652,0.13,2.549,1.128,3,1.212c2.496,0.458,6.475-1.175,8-1.615c2.334,0,4.67,0,7,0
	c3.387-0.81,8.08-0.877,11.5-1.617c3-0.135,6-0.269,9-0.403c2.076-0.656,5.334-2.367,7.5-2.828c4.59-0.979,14.061,3.653,17.5,3.231
	c8.555-1.05,15.195-4.6,23-5.655c4.572-0.622,8.705,2.188,14,0.808c2.799-0.729,3.689-1.953,8-2.02
	c0.082,0.087,14.328,7.229,14.5,7.271c2.576,0.62,9.65-0.917,13.5-0.404c1.744,0.231,1.166,1.641,3.5,1.213
	c0.5-0.404,1-0.81,1.5-1.213c4,0,8,0,12,0c0.5-0.539,1-1.076,1.5-1.615c2.646-1.311,6.873-0.61,9.5,0c2.666,0,5.338,0,8,0
	c2.852,0.727,13.676,3.808,16,0.808c1.18-1.233,0.924-2.762,1.5-3.636c0.594-0.324,0.846-0.313,2-0.404
	c2.2,1.715,7.898-1.444,10-0.808c1.475,0.446,1.551,1.528,4.5,1.616c0-0.269,0-0.539,0-0.808c-0.376-0.433-0.301-0.384-0.5-1.212
	c1.023-0.288,2.341-0.401,4-0.404c0.573,0.588,1.005,0.889,1.5,1.616c3.663-2.338,16.4-5.961,24-4.04
	c1.621,0.41,1.688,2.146,4.5,1.616c0.337-0.269,0.671-0.539,1-0.808c4.166,0.135,8.334,0.269,12.5,0.404
	c1.509-0.492,5.567-2.811,9-2.02c0.5,0.404,1,0.808,1.5,1.212c2.5,0.135,5,0.269,7.5,0.404c0.5,0.404,1,0.808,1.5,1.212
	c2.688,0.845,5.187,0.013,7.5,0.808c1.646,0.562,2.621,2.003,4.5,2.424c4.166,0.135,8.334,0.269,12.5,0.404
	c0.951,0.228,1.863,1.4,2.5,1.616c2.833,0,5.667,0,8.5,0c1.544-1.587,6.576-4.225,9-4.848c5,0.135,10,0.269,15,0.404
	c0.333-0.404,0.667-0.808,1-1.212c5.854-2.142,14.461,2.662,18,4.04c2.541,0.99,3.66-1.249,6-0.808
	c3.339,0.629,7.41,2.964,11.5,3.232c3.646-4.103,8.567-0.199,13.5,0.404c4.896,0.599,8.296-3.855,14-2.02
	c2.632,0.847,6.404,3.562,11.5,2.423c3.154-0.706,6.271-3.325,9.5-4.041c2.915-0.645,5.877,0.819,8,1.212
	c5.646,1.045,8.438-2.139,13-1.212c2.042,0.415,3.28,1.871,5,2.425c2.586,0.825,4.607,0.584,7,1.615
	c0.667,0.538,1.333,1.079,2,1.616c4,0,8,0,12,0c0.788,0.217,1.711,1.399,2.5,1.615c2.288,0.621,15.792,0.58,17.5,0
	c1.283-0.438,3.725-2.037,5.5-2.424c2.605-0.569,3.519,0.679,6,0.809c0.985-1.281,2.652-4.292,3.875-5.35
	c5.542-0.044,10.331,2.619,14.625,2.928c1.06-1.388,1.939-3.476,4.75-3.553c1.019,0.856,1.225,2.603,3.25,2.745
	c0.986-1.151,1.881-3.625,4.375-3.62c1.993,1.59,3.271,0.825,6.625,1.625c1.854,0.441,1.962,1.43,4.75,0.625
	c0.654-0.188,4.771-3.013,5.75-3.125c2.529-0.29,6.446,6.016,9.625,4.75c3.894-1.548,4.464-5.467,9.75-5.75
	c6.728,4.831,14.912-2.476,20.125-3.25c0,10.369,0,10.131,0,20.501"/>
</svg>
