<?xml version="1.0" encoding="utf-8"?>
<!-- Generator: Adobe Illustrator 16.0.0, SVG Export Plug-In . SVG Version: 6.00 Build 0)  -->
<!DOCTYPE svg PUBLIC "-//W3C//DTD SVG 1.1//EN" "http://www.w3.org/Graphics/SVG/1.1/DTD/svg11.dtd">
<svg version="1.1" id="rippedPaperBottom" xmlns="http://www.w3.org/2000/svg" xmlns:xlink="http://www.w3.org/1999/xlink" x="0px"
	 y="0px" width="20px" height="800px" viewBox="0 0 20 800" enable-background="new 0 0 20 800" xml:space="preserve">
<path fill="#252D3E" d="M0,800C0,533.36,0,266.646,0,0c10.504,0-10.503,0,0,0c-0.203,1.979,2.213,4.939,2.625,7.25
	C2.995,9.322,6.079,14.023,5,17.625c-0.409,1.363,4.37,10.07,4,12.125c5.188,4.894-0.765,5.537-2.333,14.25
	c-0.959,5.32-1.534,9.632-2.5,13.833c-0.49,2.146-1.174,10.104-0.5,12.333c0.596,2.853,0.048,2.12,0.167,6.167
	c-4.167,1.334-2.696,6.438-2.802,6.792C0.265,85.709,1.201,86.468,0,88.406c0,0.75,1.788,4.638,1.125,5.156
	c1.613,3.342,2.252,3.386,0.872,9.52C1.483,105.36-0.82,111.464,0,114.938c0.404,0.5,1.222,4.687,1.625,5.187
	C1.625,123.79,0,131.77,0,135.436c0.558,2.354-0.476,6.521,0,8.625c-0.27,2.5,0.27,2.125,0,4.625c1.083,4.039,1.405-2.027,1.5,5.188
	c-2.431,2.197,0.869-0.428,0,4c-0.047,0.238-0.442,1.732-0.375,2.25c0.167,1.271,0.988,1.158,0.5,3.625
	c-0.486,2.455,0.957,4.521,0.5,6.5c-0.566,2.459,4.226,5.453,2.875,8c-0.681,1.283,0.276,4.803-0.25,6.25
	c-0.135,1.666-1.781,1.835-1.917,3.501c-0.539,0.666,2.373,2.001,1.833,2.667c-0.463,2.107-2.618,4.594-2.333,5.667
	c0,2.5-0.833,4.5-0.833,7c0.301,1.217,0.688,7.824,0.333,10c-0.402,2.479,0.557,4.188,0,5.833c0.136,2.5,0.031,2.5,0.167,5
	c-0.13,0.652,2.251,2.382,2.167,2.833c-0.458,2.496-3.107,2.811-2.667,4.334c0,2.334-1.5,4.169-1.5,6.499
	c0.81,3.387,0.759,5.081,1.5,8.501c0.135,3,2.365,3.333,2.5,6.333c0.656,2.076-2.461,1.667-2,3.833
	c0.979,4.59-0.255,20.396,0.166,23.834c1.051,8.556,1.654,14.11,2.709,21.915c0.622,4.572-4.631,9.83-3.25,15.125
	c0.729,2.799-0.441,3.438-0.375,7.75c-0.087,0.082-1.25,12.25,2,14.875c-0.62,2.576-2.737,3.4-3.25,7.25
	c-0.231,1.744,2.572,7.166,3,9.5c0.404,0.5,0.346,3.75,0.75,4.25c0,4-1.5,5.75-1.5,9.75c0.54,0.5,1.961,2.75,2.5,3.25
	c1.311,2.646-2.14,5.123-2.75,7.75c0,2.666,3.334,5.588,3.334,8.25c-0.727,2.853-7.167,11.509-4.167,13.834
	c1.233,1.18-2.041,4.257-1.167,4.834c0.324,0.594,1.783,5.428,1.875,6.583c-1.715,2.2,1.011,2.523,0.375,4.625
	c-0.446,1.475,1.338,0.301,1.25,3.25c0.271,0-1.646,2-1.375,2c0.433-0.376-1.078,2.449-0.25,2.25c0.288,1.024,0.748,0.341,0.75,2
	c-0.588,0.573,0.351,3.88-0.375,4.375c2.338,3.663,1.421,10.525-0.5,18.125c-0.41,1.621,2.345,3.312,2.875,6.125
	c0.271,0.337-0.021,7.421,0.25,7.75c-0.137,4.166,0.259,7.459,0.125,11.625c0.492,1.509-1.209,1.692-2,5.125
	c-0.404,0.5,3.279,1.5,2.875,2c-0.135,2.5-2.49,0.75-2.625,3.25c-0.404,0.5,2.279,3,1.875,3.5c-0.845,2.688-1.455,5.438-2.25,7.75
	c-0.562,1.646,1.172,0.746,0.75,2.625c-0.135,4.166-2.116,2.334-2.25,6.5c-0.228,0.951,2.092,4.613,1.875,5.25
	c0,2.833-0.875,8.667-0.875,11.5c1.588,1.544-1.373,5.701-0.75,8.125c-0.135,5,2.009,0.625,1.875,5.625
	c0.402,0.333-2.403,6.542-2,6.875c2.144,5.854,1.503,18.836,0.125,22.375c-0.99,2.541,2.44,3.91,2,6.25
	c-0.629,3.339-1.358,3.16-1.625,7.25c4.103,3.646-0.147,2.692-0.75,7.625c-0.599,4.896,3.084,16.796,1.25,22.5
	c-0.848,2.632-1.513,8.154-0.375,13.25c0.707,3.154-2.842,5.646-2.125,8.875c0.645,2.915,2.394,6.377,2,8.5
	c-1.045,5.646,2.051,8.062,1.125,12.625c-0.416,2.042-2.57,3.78-3.125,5.5c-0.824,2.586,3.533,2.607,2.5,5
	c-0.538,0.667,0.412,3.208-0.125,3.875c0,4-1.25,7.75-1.25,11.75c-0.217,0.788,3.341,1.961,3.125,2.75
	c-0.621,2.288-2.45,13.166-1.87,14.874c0.437,1.283-0.387,4.477,0,6.25c0.569,2.604,0.379,3.02,0.25,5.5
	c1.281,0.985-0.308,4.652,0.75,5.875c0.044,5.542-0.816,6.581-1.125,10.875c1.388,1.061,0.299,2.689,0.375,5.5
	c-0.857,1.02,0.018,2.102-0.125,4.125c1.151,0.986-0.119,2.381-0.125,4.875c-1.59,1.993,0.176,2.271-0.625,5.625
	c-0.441,1.854-2.554,6.586-1.75,9.374c0.188,0.654-0.112,5.606,0,6.585c0.29,2.529-0.015,4.321,1.25,7.5
	c1.548,3.896,3.217,3.38,3.5,8.666C1.625,790.25,1.125,794.875,0,800C-10.369,800,10.37,800,0,800z"/>
</svg>
