<?xml version="1.0" encoding="utf-8"?>
<!-- Generator: Adobe Illustrator 16.0.0, SVG Export Plug-In . SVG Version: 6.00 Build 0)  -->
<!DOCTYPE svg PUBLIC "-//W3C//DTD SVG 1.1//EN" "http://www.w3.org/Graphics/SVG/1.1/DTD/svg11.dtd">
<svg version="1.1" id="Layer_1" xmlns="http://www.w3.org/2000/svg" xmlns:xlink="http://www.w3.org/1999/xlink" x="0px" y="0px"
	 width="800px" height="20px" viewBox="0 0 800 20" enable-background="new 0 0 800 20" xml:space="preserve">
<path fill-rule="evenodd" clip-rule="evenodd" fill="#F7DF98" d="M776,8v8c-7.83,0-15.661,0-23.846,0c0-2.551,0-5.129,0-7.85
	c-16.133,0-31.914,0-48.048,0c0,2.444,0,5.027,0,7.723c-10.8,0-21.249,0-32.051,0c0-2.519,0-5.107,0-7.846c-2.801,0-5.254,0-8.056,0
	c0-2.782,0-5.405,0-8.027c-10.666,0-21.334,0-32,0c0,2.493,0,4.986,0,7.847c-2.547,0.352-5.161,0.095-7.751,0.143
	C621.611,8.038,618.973,8,616,8c0-2.765,0-5.383,0-8c-2.666,0-5.334,0-8,0c0,2.599,0,5.197,0,7.931c-2.713,0-5.145,0-7.895,0
	c0,2.678,0,5.237,0,8.069c-2.908,0-5.507,0-8.105,0c0-2.581,0-5.161,0-8c-2.148,0-4.074,0-6,0c-1,0-2,0-3,0c-2,0-4,0-6,0
	c-0.666,0-1.334,0-2,0c-2.256,0-4.512,0-7,0c0-2.833,0-5.416,0-8c-13.334,0-26.666,0-40,0c0,2.333,0,4.667,0,7
	c-0.008,1.347-1.036,0.984-1.756,0.987C520.496,8.01,514.748,8,509,8c-4.243,0-8.486,0-13,0c0-2.811,0-5.405,0-8c-8,0-16,0-24,0
	c0,2.493,0,4.986,0,7.847c-2.547,0.352-5.161,0.095-7.751,0.143C461.611,8.038,458.973,8,456,8c0-2.765,0-5.383,0-8c-8,0-16,0-24,0
	c0,2.482,0,4.965,0,7.898c-7.838,0.252-15.701-0.016-23.887,0.159c0,2.536,0,5.105,0,7.942c-5.256,0-10.185,0-15.113,0
	c-0.333,0-0.667,0-1,0c0-2.588,0-5.177,0-8c-3.166,0-6.083,0-9,0c-1.667,0-3.333,0-5,0c-3.248,0-6.496,0-10,0c0,2.819,0,5.41,0,8
	c-10.667,0-21.333,0-32,0c0-2.586,0-5.172,0-8c-2.828,0-5.414,0-8,0c0-2.667,0-5.333,0-8c-10.667,0-21.333,0-32,0
	c0,2.667,0,5.333,0,8c-2.586,0-5.172,0-8,0c0,2.828,0,5.414,0,8c-5.154,0-10.309,0-15.658,0c-0.834-2.483,0.034-5.141-0.538-8
	C267.561,8,263.28,8,259,8c-0.944,0.127-1.954-0.298-3,0.438c0,2.025,0.002,4.155-0.001,6.284c-0.001,0.68-0.023,1.354-0.999,1.278
	c-15.577,0-31.155,0-46.898,0c0-2.668,0-5.118,0-7.866c-13.364,0-26.568,0-40.102,0c0-2.902,0-5.519,0-8.134c-16,0-32,0-48,0
	c0,2.577,0,5.155,0,8c-1.809,0-3.404,0-5,0c-3.252,0-6.504,0.001-9.756,0c-0.68-0.001-1.316-0.062-1.244-1c0-2.333,0-4.667,0-7
	c-5.333,0-10.667,0-16,0c0,2.667,0,5.333,0,8c-2.667,0-5.333,0-8,0c0-2.667,0-5.333,0-8c-2.667,0-5.333,0-8,0
	c0,2.619,0,5.238,0,7.981c-8.228,0.074-16.125-0.067-24.178,0.09c0,2.899,0,5.351,0,7.929c-6.811,0-13.444-0.006-20.078,0.002
	C21.159,16.009,14.572,15.967,8,16.03c0,1.642,0,2.806,0,3.97c32,0,64,0,96,0c2.667,0,5.333,0,8,0c88,0,176,0,264,0c5,0,10,0,15,0
	c40.666,0,81.334,0,122,0c5,0,10,0,15,0c18.666,0,37.334,0,56,0c1,0,2,0,3,0s2,0,3,0c70,0,140,0,210,0c0-4,0-8,0-12
	C797.334,8,778.666,8,776,8z"/>
</svg>
