<?xml version="1.0" encoding="utf-8"?>
<!-- Generator: Adobe Illustrator 16.0.0, SVG Export Plug-In . SVG Version: 6.00 Build 0)  -->
<!DOCTYPE svg PUBLIC "-//W3C//DTD SVG 1.1//EN" "http://www.w3.org/Graphics/SVG/1.1/DTD/svg11.dtd">
<svg version="1.1" id="Layer_1" xmlns="http://www.w3.org/2000/svg" xmlns:xlink="http://www.w3.org/1999/xlink" x="0px" y="0px"
	 width="20px" height="800px" viewBox="0 0 20 800" enable-background="new 0 0 20 800" xml:space="preserve">
<g>
	<path fill-rule="evenodd" clip-rule="evenodd" fill="#F7DF97" d="M0,7.754c0,0.122,7.989,0,7.989,0C8.038,10.392,8,13.03,8,15.836
		c2.602,0,5.054,0,7.753,0c0,5.389,0,10.616,0,16.019c-2.375,0-4.827,0-7.596,0c0,13.378,0,26.594,0,40.146C5.236,72,2.618,72,0,72"
		/>
	<path fill-rule="evenodd" clip-rule="evenodd" fill="#F7DF97" d="M0,672c2.497,0,4.995,0,7.492,0
		c0.743,4.306,0.985,47.769,0.342,64c-2.592,0-5.212,0-7.833,0C0,714.667,0,693.333,0,672z"/>
	<path fill-rule="evenodd" clip-rule="evenodd" fill="#F7DF97" d="M0,448c2.497,0,4.993,0,7.49,0c0.729,4.203,0.944,32.964,0.342,48
		c-2.591,0-5.211,0-7.832,0C0,480,0,464,0,448z"/>
	<path fill-rule="evenodd" clip-rule="evenodd" fill="#F7DF97" d="M0,344c2.497,0,4.993,0,7.49,0c0.729,4.203,0.944,32.964,0.342,48
		c-2.591,0-5.211,0-7.832,0C0,376,0,360,0,344z"/>
	<path fill-rule="evenodd" clip-rule="evenodd" fill="#F7DF97" d="M0,144c2.497,0,4.993,0,7.49,0c0.729,4.203,0.944,32.964,0.342,48
		c-2.591,0-5.211,0-7.832,0C0,176,0,160,0,144z"/>
	<path fill-rule="evenodd" clip-rule="evenodd" fill="#F7DF97" d="M0,408c2.496,0,4.991,0,7.538,0
		c0.086,0.097,0.215,0.208,0.3,0.347c0.079,0.129,0.155,0.286,0.156,0.431C8,419.071,8,429.364,8,440c-2.761,0-5.38,0-8,0
		C0,429.333,0,418.667,0,408z"/>
	<path fill-rule="evenodd" clip-rule="evenodd" fill="#F7DF97" d="M0,280c2.495,0,4.989,0,7.484,0
		c0.119,0.113,0.261,0.212,0.351,0.346c0.083,0.124,0.158,0.284,0.158,0.429C8.001,288.403,8,296.031,8,304c-2.763,0-5.381,0-8,0
		C0,296,0,288,0,280z"/>
	<path fill-rule="evenodd" clip-rule="evenodd" fill="#F7DF97" d="M0,760c2.495,0,4.989,0,7.484,0
		c0.119,0.113,0.261,0.213,0.351,0.346c0.084,0.124,0.159,0.284,0.159,0.429C8.001,768.403,8,776.031,8,784c-2.763,0-5.381,0-8,0
		C0,776,0,768,0,760z"/>
	<path fill-rule="evenodd" clip-rule="evenodd" fill="#F7DF97" d="M0,504c2.493,0,4.986,0,7.847,0
		c0.352,2.547,0.094,5.161,0.143,7.751C8.038,514.388,8,517.027,8,520c-2.765,0-5.382,0-8,0C0,514.667,0,509.333,0,504z"/>
	<path fill-rule="evenodd" clip-rule="evenodd" fill="#F7DF97" d="M0,592c2.493,0,4.986,0,7.847,0
		c0.352,2.547,0.094,5.161,0.143,7.751C8.038,602.388,8,605.027,8,608c-2.765,0-5.382,0-8,0C0,602.667,0,597.333,0,592z"/>
	<path fill-rule="evenodd" clip-rule="evenodd" fill="#F7DF97" d="M0,632c2.493,0,4.986,0,7.847,0
		c0.352,2.547,0.094,5.161,0.143,7.751C8.038,642.388,8,645.027,8,648c-2.765,0-5.382,0-8,0C0,642.667,0,637.333,0,632z"/>
	<path fill-rule="evenodd" clip-rule="evenodd" fill="#F7DF97" d="M0,87c2.491,0,4.982,0,7.896,0c0.222,2.867,0.047,5.768,0.123,9
		C5.232,96,2.616,96,0,96C0,93,0,90,0,87z"/>
	<path fill-rule="evenodd" clip-rule="evenodd" fill="#F7DF97" d="M0,216c2.491,0,4.982,0,7.872,0c0.279,2.529,0.052,5.102,0.157,8
		c-2.797,0-5.413,0-8.029,0C0,221.333,0,218.667,0,216z"/>
	<path fill-rule="evenodd" clip-rule="evenodd" fill="#F7DF97" d="M0,240c2.491,0,4.982,0,7.872,0c0.279,2.529,0.052,5.102,0.157,8
		c-2.797,0-5.413,0-8.029,0C0,245.333,0,242.667,0,240z"/>
	<path fill-rule="evenodd" clip-rule="evenodd" fill="#F7DF97" d="M0,328c2.491,0,4.982,0,7.872,0c0.279,2.529,0.052,5.102,0.157,8
		c-2.797,0-5.413,0-8.029,0C0,333.333,0,330.667,0,328z"/>
	<path fill-rule="evenodd" clip-rule="evenodd" fill="#F7DF97" d="M0,112c2.491,0,4.982,0,7.872,0c0.279,2.529,0.052,5.102,0.157,8
		c-2.797,0-5.413,0-8.029,0C0,117.333,0,114.667,0,112z"/>
	<path fill-rule="evenodd" clip-rule="evenodd" fill="#F7DF97" d="M0,528c2.491,0,4.982,0,7.872,0c0.279,2.529,0.052,5.102,0.157,8
		c-2.797,0-5.413,0-8.029,0C0,533.333,0,530.667,0,528z"/>
	<path fill-rule="evenodd" clip-rule="evenodd" fill="#F7DF97" d="M0,656c2.491,0,4.982,0,7.872,0c0.279,2.529,0.052,5.102,0.157,8
		c-2.797,0-5.413,0-8.029,0C0,661.333,0,658.667,0,656z"/>
</g>
</svg>
