<?xml version="1.0" encoding="utf-8"?>
<!-- Generator: Adobe Illustrator 16.0.0, SVG Export Plug-In . SVG Version: 6.00 Build 0)  -->
<!DOCTYPE svg PUBLIC "-//W3C//DTD SVG 1.1//EN" "http://www.w3.org/Graphics/SVG/1.1/DTD/svg11.dtd">
<svg version="1.1" id="Layer_1" xmlns="http://www.w3.org/2000/svg" xmlns:xlink="http://www.w3.org/1999/xlink" x="0px" y="0px"
	 width="100px" height="100.014px" viewBox="0 0 100 100.014" enable-background="new 0 0 100 100.014" xml:space="preserve">
<rect y="0" fill="#F86753" width="100" height="100"/>
<g id="patreon-logo">
	<g>
		<g>
			<g>
				<g>
					<g>
						<defs>
							<rect id="SVGID_1_" x="67.75" y="7" width="25.25" height="24.283"/>
						</defs>
						<clipPath id="SVGID_2_">
							<use xlink:href="#SVGID_1_"  overflow="visible"/>
						</clipPath>
					</g>
					<g>
						<defs>
							<rect id="SVGID_3_" x="67.75" y="7" width="25.25" height="24.283"/>
						</defs>
						<defs>
							<path id="SVGID_4_" d="M83.938,31.256c-5.016,0-9.092-4.084-9.092-9.105c0-5.005,4.076-9.075,9.092-9.075
								c4.998,0,9.062,4.07,9.062,9.075C93,27.172,88.936,31.256,83.938,31.256"/>
						</defs>
						<clipPath id="SVGID_5_">
							<use xlink:href="#SVGID_3_"  overflow="visible"/>
						</clipPath>
						<clipPath id="SVGID_6_" clip-path="url(#SVGID_5_)">
							<use xlink:href="#SVGID_4_"  overflow="visible"/>
						</clipPath>
						<rect x="73.584" y="11.808" clip-path="url(#SVGID_6_)" fill="#FFFFFF" width="20.678" height="20.715"/>
					</g>
				</g>
			</g>
		</g>
	</g>
	<g>
		<g>
			<g>
				<g>
					<g>
						<defs>
							<rect id="SVGID_7_" x="67.751" y="7.003" width="4.438" height="24.253"/>
						</defs>
						<clipPath id="SVGID_8_">
							<use xlink:href="#SVGID_7_"  overflow="visible"/>
						</clipPath>
						<rect x="66.486" y="5.739" clip-path="url(#SVGID_8_)" fill="#002B49" width="6.965" height="26.784"/>
					</g>
				</g>
			</g>
		</g>
	</g>
</g>
<path id="corner-color-filter_1_" display="none" opacity="0.5" fill="#3D465C" enable-background="new    " d="M-15.768-10
	c36.144,1.713,47.091,69.483,60.957,81.73C56.364,73.32,91.913,52.882,101,57.526C98.766,55.96,90.527,54.63,0.616-4.774
	C-4.591-8.212-8.798-9.777-15.768-10z"/>
<g>
	<path fill="#FDFDFD" d="M100,56c0,14.667,0,29.333,0,44c-33.333,0-66.667,0-100,0C0,69.333,0,38.667,0,8c5.333,0,10.667,0,16,0
		c0,2.619,0,5.464,0,8h8.191c0,2.561,0,5.453,0,8.054c2.64,0,5.091,0,7.877,0c0,5.398,0,10.637,0,16.029c2.792,0,5.242,0,8.029,0
		c0,5.398,0,10.638,0,16.027c2.794,0,5.245,0,8.029,0c0,5.4,0,10.641,0,15.738c5.456,0,10.567,0,16.022,0c0-2.721,0-5.298,0-8.015
		c5.461,0,10.576,0,15.688,0c0.531-2.694-0.324-5.354,0.497-7.836C87.025,56,93.513,56,100,56z"/>
	<path fill="#CCCCCC" d="M16,8c5.148,0,10.297,0,15.797,0c0,2.533,0,5.094,0,7.824c5.446,0,10.549,0,15.776,0
		c0.963,2.646,0.014,5.307,0.61,8.001c2.398,0,4.847,0,7.469,0c0.771,2.668,0.021,5.312,0.49,8.011c5.127,0,2.231,0,7.685,0
		c0,2.71,0,5.277,0,8.006c2.782,0,13.231,0,16.024,0c0,2.715,0,5.289,0,8.158c6.94,0,13.545,0,20.146,0c0,2.667,0,5.333,0,8
		c-6.487,0-12.977,0-19.664,0c-0.821,2.483,0.034,5.143-0.497,7.836c-5.114,0-10.229,0-15.688,0c0,2.717,0,5.294,0,8.014
		c-5.455,0-10.567,0-16.022,0c0-5.099,0-10.337,0-15.736c-2.784,0-5.235,0-8.029,0c0-5.393,0-10.63,0-16.028
		c-2.787,0-5.237,0-8.029,0c0-5.394,0-10.631,0-16.029c-2.786,0-5.237,0-7.877,0c0-2.601,0-5.493,0-8.054H16
		C16,13.464,16,10.619,16,8z"/>
	<path fill="#CCCCCC" d="M16,0c0,2.667,0,5.333,0,8C10.667,8,5.333,8,0,8c0-2.667,0-5.333,0-8C5.333,0,10.667,0,16,0z"/>
</g>
</svg>
