<?xml version="1.0" encoding="utf-8"?>
<!-- Generator: Adobe Illustrator 16.0.0, SVG Export Plug-In . SVG Version: 6.00 Build 0)  -->
<!DOCTYPE svg PUBLIC "-//W3C//DTD SVG 1.1//EN" "http://www.w3.org/Graphics/SVG/1.1/DTD/svg11.dtd">
<svg version="1.1" id="Layer_1" xmlns="http://www.w3.org/2000/svg" xmlns:xlink="http://www.w3.org/1999/xlink" x="0px" y="0px"
	 width="100px" height="100.014px" viewBox="0 0 100 100.014" enable-background="new 0 0 100 100.014" xml:space="preserve">
<rect y="0" fill="#F86753" width="100" height="100"/>
<path fill="#F8E098" d="M-15.768-9.952c36.144,1.713,47.091,69.485,60.957,81.732C56.364,73.367,91.913,52.93,101,57.573
	c-2.234-1.564-10.473-2.896-100.384-62.3C-4.591-8.164-8.798-9.729-15.768-9.952z"/>
<path id="corner-color-filter" opacity="0.3" fill="#FDFDFD" enable-background="new    " d="M-15.768-10
	c36.144,1.713,47.091,69.484,60.957,81.731C56.364,73.32,91.913,52.882,101,57.526c-2.234-1.564-10.473-2.896-100.384-62.3
	C-4.591-8.212-8.798-9.777-15.768-10z"/>
<g id="patreon-logo">
	<g>
		<g>
			<g>
				<g>
					<defs>
						<rect id="SVGID_1_" x="67.75" y="7" width="25.25" height="24.283"/>
					</defs>
					<clipPath id="SVGID_2_">
						<use xlink:href="#SVGID_1_"  overflow="visible"/>
					</clipPath>
				</g>
				<g>
					<defs>
						<rect id="SVGID_3_" x="67.75" y="7" width="25.25" height="24.283"/>
					</defs>
					<defs>
						<path id="SVGID_4_" d="M83.938,31.256c-5.016,0-9.092-4.084-9.092-9.105c0-5.005,4.076-9.076,9.092-9.076
							c4.998,0,9.062,4.071,9.062,9.076C93,27.172,88.936,31.256,83.938,31.256"/>
					</defs>
					<clipPath id="SVGID_5_">
						<use xlink:href="#SVGID_3_"  overflow="visible"/>
					</clipPath>
					<clipPath id="SVGID_6_" clip-path="url(#SVGID_5_)">
						<use xlink:href="#SVGID_4_"  overflow="visible"/>
					</clipPath>
					<rect x="73.584" y="11.808" clip-path="url(#SVGID_6_)" fill="#FFFFFF" width="20.678" height="20.715"/>
				</g>
			</g>
		</g>
	</g>
	<g>
		<g>
			<g>
				<g>
					<defs>
						<rect id="SVGID_7_" x="67.751" y="7.003" width="4.438" height="24.253"/>
					</defs>
					<clipPath id="SVGID_8_">
						<use xlink:href="#SVGID_7_"  overflow="visible"/>
					</clipPath>
					<rect x="66.486" y="5.738" clip-path="url(#SVGID_8_)" fill="#002B49" width="6.965" height="26.785"/>
				</g>
			</g>
		</g>
	</g>
</g>
<path id="corner-color-filter_1_" opacity="0.75" fill="#3D465C" enable-background="new    " d="M-15.768-10
	c36.144,1.713,47.091,69.484,60.957,81.731C56.364,73.32,91.913,52.882,101,57.526c-2.234-1.566-10.473-2.896-100.384-62.3
	C-4.591-8.212-8.798-9.777-15.768-10z"/>
<path fill="#41484D" d="M53.111,68.707c-1.334-1.178-3.019-5.7-3.94-5.216c-0.039,0.021-0.683,0.419-1.004-0.567
	c-0.319-0.98,0.11-2.486-1.425-4.143c-0.061-0.065-1.469,0.017-1.577-3.604c-0.009-0.295-0.946-4.795-1.737-3.908
	c-0.765,0.858-0.459-2.638-1.559-3.384c-1.202-0.815-2.256-2.464-1.895-3.961c0.131-0.542-1.256-1.644-1.313-2.654
	c-0.041-0.713-0.414-1.862-1.065-3.332c-0.733-1.657-3.677-3.398-3.18-6.026c0.25-1.32-4.264-4.563-5.343-8.229
	c-0.824-2.799-4.759-7.4-6.521-8.469c-1.679-1.019-3.146-3.279-5.762-6.081c-1.916-2.051-2.717-4.188-5.417-6
	c-2.08-1.396-2.029-0.533-4.435-2.125C5.417,0.001,4.117-1.174,2.031,0C1.422-0.019,1.25-1.337,0,0.014V100h100V56.771
	c-1.111-0.566-2.977-1.512-4.616-0.485c-0.425,0.266-3.457,1.131-5.593,1.155c-2.166,0.025-3.206,0.978-4.925,1.544
	c-4.616,1.522-3.613,2.688-5.46,1.965c-0.489-0.191-4.209,0.683-5.586,2.118c-0.82,0.855-3.653,0.105-5.322,1.996
	c-1.109,1.258-3.089,2.019-4.572,1.599c-0.843-0.238-5.843,0.512-6.249,1.723C57.318,69.452,54.322,68.879,53.111,68.707z"/>
</svg>
