<?xml version="1.0" encoding="utf-8"?>
<!-- Generator: Adobe Illustrator 16.0.0, SVG Export Plug-In . SVG Version: 6.00 Build 0)  -->
<!DOCTYPE svg PUBLIC "-//W3C//DTD SVG 1.1//EN" "http://www.w3.org/Graphics/SVG/1.1/DTD/svg11.dtd">
<svg version="1.1" id="rippedPaperBottom" xmlns="http://www.w3.org/2000/svg" xmlns:xlink="http://www.w3.org/1999/xlink" x="0px"
	 y="0px" width="20px" height="800px" viewBox="0 0 20 800" enable-background="new 0 0 20 800" xml:space="preserve">
<path fill="#F8E098" d="M0,0v800h17.009H20c-1.125-5.125-1.625-9.75-4.755-20.753c0.282-5.286,1.952-4.771,3.5-8.666
	c1.265-3.179,0.96-4.971,1.25-7.5c0.002-0.019,0.003-0.047,0.005-0.068v-2.048c-0.043-1.789-0.128-4.042-0.005-4.469
	c0.002-0.006,0.003-0.015,0.005-0.022v-3.197c-0.416-2.376-1.46-4.91-1.755-6.153c-0.802-3.354,0.965-3.632-0.625-5.625
	c-0.006-2.494-1.276-3.889-0.125-4.875c-0.144-2.024,0.731-3.106-0.125-4.125c0.076-2.811-1.013-4.44,0.375-5.5
	c-0.31-4.294-1.169-5.333-1.125-10.875c1.058-1.223-0.531-4.89,0.75-5.875c-0.129-2.481-0.319-2.896,0.25-5.5
	c0.387-1.774-0.437-4.967,0-6.25c0.58-1.708-1.249-12.586-1.87-14.874c-0.216-0.789,3.342-1.962,3.125-2.75
	c0-4-1.25-7.75-1.25-11.75c-0.537-0.667,0.413-3.208-0.125-3.875c-0.848-1.964,1.932-2.332,2.5-3.83v-1.17
	c-0.555-1.72-2.709-3.458-3.125-5.5c-0.926-4.563,2.17-6.979,1.125-12.625c-0.395-2.123,1.355-5.585,2-8.5v-1.786
	c-0.49-2.422-2.696-4.539-2.125-7.089c1.138-5.096,0.473-10.618-0.375-13.25c-1.834-5.704,1.85-17.604,1.25-22.5
	c-0.604-4.933-4.854-3.979-0.75-7.625c-0.268-4.09-0.996-3.911-1.625-7.25c-0.439-2.34,2.99-3.709,2-6.25
	c-1.378-3.539-2.02-16.521,0.125-22.375c0.402-0.333-2.402-6.542-2-6.875c-0.134-5,2.01-0.625,1.875-5.625
	c0.623-2.424-2.338-6.581-0.75-8.125c0-2.833-0.875-8.667-0.875-11.5c-0.217-0.637,2.104-4.299,1.875-5.25
	c-0.134-4.166-2.115-2.334-2.25-6.5c-0.422-1.879,1.312-0.979,0.75-2.625c-0.795-2.313-1.405-5.062-2.25-7.75
	c-0.404-0.5,2.279-3,1.875-3.5c-0.135-2.5-2.49-0.75-2.625-3.25c-0.404-0.5,3.279-1.5,2.875-2c-0.791-3.433-2.492-3.616-2-5.125
	c-0.134-4.166,0.262-7.459,0.125-11.625c0.271-0.329-0.021-7.413,0.25-7.75c0.53-2.813,3.285-4.504,2.875-6.125
	c-1.921-7.6-2.838-14.462-0.5-18.125c-0.727-0.495,0.213-3.802-0.375-4.375c0.002-1.659,0.462-0.976,0.75-2
	c0.828,0.199-0.684-2.626-0.25-2.25c0.271,0-1.646-2-1.375-2c-0.088-2.949,1.696-1.775,1.25-3.25
	c-0.636-2.102,2.09-2.425,0.375-4.625c0.092-1.155,1.551-5.989,1.875-6.583v-0.86c-0.507-1.167-2.085-3.096-1.167-3.974
	c3-2.325-3.44-10.981-4.167-13.834c0-2.662,3.334-5.584,3.334-8.25c-0.609-2.627-4.061-5.104-2.75-7.75
	c0.539-0.5,1.96-2.75,2.5-3.25c0-4-1.5-5.75-1.5-9.75c0.404-0.5,0.346-3.75,0.75-4.25c0.396-2.164,2.83-6.977,3-9.057v-0.443
	c-0.513-3.85-2.63-4.674-3.25-7.25c3.25-2.625,2.087-14.793,2-14.875c0.066-4.312-1.104-4.951-0.375-7.75
	c1.381-5.295-3.872-10.553-3.25-15.125c1.055-7.805,1.658-13.359,2.709-21.915c0.421-3.438-0.812-19.244,0.166-23.834
	c0.461-2.166-2.656-1.757-2-3.833c0.135-3,2.365-3.333,2.5-6.333c0.741-3.42,0.689-5.114,1.5-8.501c0-2.33-1.5-4.165-1.5-6.499
	c0.439-1.523-2.209-1.838-2.667-4.334c-0.084-0.451,2.297-2.181,2.167-2.833c0.136-2.5,0.031-2.5,0.167-5
	c-0.558-1.645,0.401-3.354,0-5.833c-0.354-2.176,0.032-8.783,0.333-10c0-2.5-0.833-4.5-0.833-7c0.285-1.073-1.87-3.56-2.333-5.667
	c-0.54-0.666,2.372-2.001,1.833-2.667c-0.136-1.666-1.782-1.835-1.917-3.501c-0.525-1.447,0.432-4.967-0.25-6.25
	c-1.352-2.547,3.441-5.541,2.875-8c-0.457-1.979,0.986-4.045,0.5-6.5c-0.488-2.467,0.333-2.354,0.5-3.625
	c0.066-0.518-0.328-2.012-0.375-2.25c-0.869-4.428,2.432-1.803,0-4c0.095-7.215,0.417-1.149,1.5-5.188
	c-0.135-1.25-0.066-1.781,0-2.312v-6.138c-0.139-1.722-0.302-3.525,0-4.799c0-3.666-1.625-11.646-1.625-15.311
	c0.402-0.5,1.221-4.687,1.625-5.187v-3.853c-0.451-3.079-1.645-6.441-1.997-8.003c-1.38-6.134-0.741-6.178,0.872-9.52
	C18.212,93.044,20,89.156,20,88.406c-1.201-1.938-0.266-2.697-1.032-5.281c-0.105-0.354,1.365-5.458-2.802-6.792
	c0.119-4.047-0.429-3.314,0.167-6.167c0.674-2.229-0.01-10.187-0.5-12.333c-0.966-4.201-1.541-8.513-2.5-13.833
	C11.766,35.287,5.812,34.644,11,29.75c-0.37-2.055,4.409-10.762,4-12.125c-1.079-3.602,2.005-8.303,2.375-10.375
	C17.757,5.11,19.854,2.416,20,0.457V0h-3.029H0z"/>
</svg>
