<svg version="1.1" id="Layer_1" xmlns="http://www.w3.org/2000/svg" xmlns:xlink="http://www.w3.org/1999/xlink" x="0px" y="0px" viewBox="0 0 300 300" enable-background="new 0 0 300 300" xml:space="preserve">
<path fill="#B26768" d="M122.22,293.529C41.792,279.348-11.911,202.648,2.271,122.221C16.451,41.795,93.148-11.91,173.578,2.271
	c80.432,14.187,134.135,90.881,119.955,171.312C279.348,254.006,202.651,307.711,122.22,293.529z"/>
<g id="questionMark">
	<path fill="#9BBA9C" d="M189.104,49.006c-10.87-5.237-23.407-7.858-37.605-7.858c-15.277,0-28.644,3.135-40.102,9.401
		C99.94,56.817,91.222,64.724,85.251,74.272c-5.976,9.547-8.436,30.62-8.436,30.62l37.961-0.58c0,0,7.834-18.582,12.926-24.017
		s13.023-8.152,23.797-8.152c9.205,0,16.721,2.697,22.55,8.081c5.825,5.388,8.74,12,8.74,19.833c0,4.016-0.955,7.741-2.865,11.168
		c-1.909,3.428-4.261,6.546-7.051,9.337c-2.791,2.79-7.321,6.947-13.588,12.43c-7.15,6.269-12.832,11.715-17.04,16.269
		c-4.213,4.554-7.59,9.913-10.136,15.938c-2.548,6.021-3.819,13.449-3.819,21.675c0,6.563-2.572,13.125,0.904,17.125h32.322
		c3.385-3,1.307-7.007,2.322-12.573c1.077-4.797,1.885-8.522,2.424-10.43c0.537-1.911,1.297-3.859,2.277-5.77
		c0.977-1.908,2.471-4.034,4.479-6.335c2.007-2.3,4.677-4.979,8.007-8.016c12.045-10.772,20.392-18.441,25.046-22.994
		c4.648-4.554,8.664-9.967,12.045-16.234c3.378-6.266,5.067-13.563,5.067-21.888c0-10.576-2.964-20.369-8.887-29.38
		C208.371,61.372,199.976,54.247,189.104,49.006z"/>
	<path fill="#9BBA9C" d="M146.731,214.932c-6.268,0-11.557,2.105-15.866,6.315c-4.31,4.213-6.463,9.401-6.463,15.571
		c0,6.954,2.226,12.365,6.685,16.232c4.455,3.865,9.67,5.802,15.645,5.802c5.777,0,10.87-1.96,15.277-5.876
		s6.608-9.302,6.608-16.158c0-6.17-2.105-11.358-6.314-15.571C158.092,217.037,152.9,214.932,146.731,214.932z"/>
</g>
</svg>
