<?xml version="1.0" encoding="utf-8"?>
<!-- Generator: Adobe Illustrator 16.0.0, SVG Export Plug-In . SVG Version: 6.00 Build 0)  -->
<!DOCTYPE svg PUBLIC "-//W3C//DTD SVG 1.1//EN" "http://www.w3.org/Graphics/SVG/1.1/DTD/svg11.dtd">
<svg version="1.1" id="Capa_1" xmlns="http://www.w3.org/2000/svg" xmlns:xlink="http://www.w3.org/1999/xlink" x="0px" y="0px" viewBox="0 0 351.128 272.811" enable-background="new 0 0 351.128 272.811"
	 xml:space="preserve">
<g>
	<path d="M72.326,108.17c4.284-26.928,37.944-55.692,64.26-56.304c1.836,0,3.672-0.612,4.896-1.836
		c1.224-0.612,2.448-1.224,3.06-3.06c9.18-17.136,4.284-30.6-11.016-41.616c-17.748-12.852-45.9,0-59.976,11.628
		C38.054,46.358,1.946,97.153,3.782,145.502c-6.12,32.438-4.896,67.321,4.284,96.084c6.12,18.361,23.868,27.541,42.228,28.764
		c18.36,1.227,56.304,6.732,72.828-4.283s17.748-32.436,19.584-50.795c1.836-20.196,7.344-58.141-9.792-74.053
		C115.778,125.918,66.818,142.442,72.326,108.17z"/>
	<path d="M274.287,108.17c4.283-26.928,37.942-55.692,64.26-56.304c1.836,0,3.672-0.612,4.896-1.836
		c1.226-0.612,2.448-1.224,3.062-3.06c9.18-17.136,4.283-30.6-11.016-41.616c-17.748-12.852-45.9,0-59.979,11.628
		c-35.495,29.376-71.604,80.172-69.768,128.52c-6.119,32.438-4.896,67.321,4.283,96.084c6.12,18.361,23.868,27.541,42.229,28.764
		c18.361,1.227,56.305,6.732,72.828-4.283s17.748-32.436,19.584-50.795c1.836-20.196,7.344-58.141-9.791-74.053
		C317.738,125.918,268.166,142.442,274.287,108.17z"/>
</g>
</svg>
