<?xml version="1.0" encoding="utf-8"?>
<!-- Generator: Adobe Illustrator 16.0.0, SVG Export Plug-In . SVG Version: 6.00 Build 0)  -->
<!DOCTYPE svg PUBLIC "-//W3C//DTD SVG 1.1//EN" "http://www.w3.org/Graphics/SVG/1.1/DTD/svg11.dtd">
<svg version="1.1" id="Layer_1" xmlns="http://www.w3.org/2000/svg" xmlns:xlink="http://www.w3.org/1999/xlink" x="0px" y="0px" viewBox="0 0 1577.623 1577.602" enable-background="new 0 0 1577.623 1577.602"
	 xml:space="preserve">
<path fill="#9BBA9C" d="M651.842,1565.488c-428.949-75.633-715.365-484.699-639.728-913.643
	C87.74,222.907,496.791-63.52,925.752,12.112c428.971,75.664,715.387,484.698,639.76,913.664
	C1489.857,1354.699,1080.808,1641.125,651.842,1565.488z"/>
<g id="questionMarkTwo" display="none">
	<path display="inline" fill="#B26768" d="M1808.555,261.365c-57.973-27.931-124.838-41.909-200.561-41.909
		c-81.477,0-152.768,16.72-213.877,50.139c-61.104,33.43-107.6,75.6-139.445,126.522c-31.872,50.918-44.992,163.307-44.992,163.307
		l202.459-3.093c0,0,41.781-99.104,68.938-128.091s69.456-43.478,126.917-43.478c49.094,0,89.18,14.384,120.268,43.099
		c31.066,28.736,46.613,64,46.613,105.776c0,21.418-5.094,41.285-15.28,59.562c-10.181,18.282-22.726,34.912-37.605,49.797
		c-14.886,14.88-39.045,37.051-72.47,66.294c-38.133,33.435-68.437,62.479-90.879,86.768c-22.47,24.288-40.48,52.869-54.059,85.003
		c-13.59,32.112-20.369,71.728-20.369,115.6c0,35.003-13.717,70,4.822,91.334h172.384c18.054-16,6.971-37.371,12.384-67.057
		c5.744-25.584,10.054-45.45,12.928-55.626c2.864-10.192,6.918-20.582,12.145-30.773c5.211-10.177,13.179-21.515,23.888-33.787
		c10.704-12.267,24.944-26.555,42.704-42.752c64.24-57.451,108.758-98.352,133.578-122.635c24.79-24.288,46.209-53.157,64.24-86.581
		c18.017-33.419,27.024-72.336,27.024-116.736c0-56.405-15.808-108.635-47.397-156.693
		C1911.312,327.317,1866.539,289.317,1808.555,261.365z"/>
	<path display="inline" fill="#B26768" d="M1582.565,1146.304c-33.43,0-61.638,11.228-84.618,33.681
		c-22.987,22.469-34.47,50.139-34.47,83.045c0,37.088,11.872,65.947,35.653,86.57c23.76,20.613,51.573,30.944,83.439,30.944
		c30.811,0,57.974-10.453,81.478-31.339c23.504-20.885,35.243-49.61,35.243-86.176c0-32.906-11.227-60.576-33.675-83.045
		C1643.157,1157.531,1615.467,1146.304,1582.565,1146.304z"/>
</g>
<g>
	<path fill="#FF637B" d="M539.574,705.667c-61.623-8.377-133.506,18.265-183.128,67.894l-82.863,82.863
		c-9.369,9.368-11.292,23.873-4.654,35.363c6.478,11.337,20.042,17.111,32.951,13.656c52.582-14.1,122.177-18.792,139.29-5.722
		L539.574,705.667z"/>
	<path fill="#E63950" d="M892.547,1060.854l-194.335,93.749c10.826,14.747,9.971,61.394-2.647,146.812
		c-1.884,12.635,4.646,24.863,15.8,30.441c11.284,5.707,24.94,3.501,33.882-5.44l82.862-82.862
		C874.924,1196.74,900.23,1125.023,892.547,1060.854z"/>
	<path fill="#7C8388" d="M727.425,1164.599c-68.359,36.872-77.057,38.947-87.417,45.99c-11.604,7.452-26.52,5.798-36.461-4.145
		l-207.161-207.16c-9.529-9.529-11.597-24.864-4.143-36.461c7.042-10.361,7.874-16.99,45.158-88.248l82.039-0.833l207.161,207.162
		L727.425,1164.599z"/>
	<path fill="#575F64" d="M727.425,1164.599c-68.359,36.872-77.057,38.947-87.417,45.99c-11.604,7.452-26.52,5.798-36.461-4.145
		l-103.584-103.583L624.26,978.57l102.333,102.334L727.425,1164.599z"/>
	<path fill="#FAECD8" d="M727.425,1164.599L437.401,874.575c143.769-271.379,316.543-440.843,517.074-507.127l140.869,140.038
		l137.551,137.558C1166.611,844.744,997.566,1018.754,727.425,1164.599z"/>
	<path fill="#F4D7AF" d="M727.425,1164.599l-144.6-144.601l512.519-512.513l137.551,137.55
		C1166.611,844.744,997.566,1018.754,727.425,1164.599z"/>
	<path fill="#64E1DC" d="M1005.02,597.81l-1.242-1.244c-57.176-57.175-149.986-57.182-207.162,0
		c-57.174,57.174-57.174,149.986,0,207.152l1.244,1.244c57.174,55.52,149.154,55.52,205.918-1.244
		C1060.539,746.964,1060.539,654.977,1005.02,597.81z"/>
	<path fill="#00C8C8" d="M1003.777,803.719c-56.764,56.764-148.744,56.764-205.918,1.244l207.16-207.153
		C1060.539,654.977,1060.539,746.964,1003.777,803.719z"/>
	<path fill="#FF637B" d="M1232.895,645.036c-63.385-4.555-131.332-34.386-186.439-88.661l-1.242-1.243
		c-55.52-55.52-86.594-123.886-90.738-187.691c19.059-6.63,38.529-12.016,58.008-16.571c70.846-16.159,145.012-19.89,222.076-11.597
		c7.453,0.824,14.494,4.555,18.637,10.353c4.143,4.143,7.051,9.529,7.463,15.747c8.705,76.645,4.143,150.811-12.018,221.657
		C1244.086,606.507,1239.111,625.565,1232.895,645.036z"/>
	<path fill="#E63950" d="M1232.895,645.036c-63.385-4.555-131.332-34.386-186.439-88.661l206.74-206.749
		c4.143,4.143,7.043,9.529,7.463,15.747c8.697,76.653,4.143,150.811-12.018,221.657
		C1244.086,606.507,1239.111,625.565,1232.895,645.036z"/>
	<path fill="#FF637B" d="M722.45,906.893c-0.412-7.049-3.311-13.26-8.286-18.234c-4.974-6.631-12.84-11.185-21.125-11.185
		c-107.727-0.832-131.76,37.284-137.97,43.503c-179.396,179.397-181.472,267.654-181.472,276.764
		c0.412,7.874,3.311,14.924,8.697,20.301c0.412,0.412,0.832,0.833,1.663,0.833c4.143,4.142,9.941,6.629,16.151,7.041
		c14.916,1.656,99.021-0.412,279.25-180.643C719.971,1004.67,722.87,966.967,722.45,906.893z"/>
	<path fill="#E63950" d="M722.45,906.893c0.42,60.074-2.479,97.777-43.091,138.38c-180.229,180.23-264.335,182.299-279.243,180.643
		c-6.218-0.412-12.017-2.899-16.159-7.041l330.215-330.216C719.139,893.633,722.039,899.844,722.45,906.893z"/>
</g>
</svg>
