<?xml version="1.0" encoding="utf-8"?>
<!-- Generator: Adobe Illustrator 16.0.0, SVG Export Plug-In . SVG Version: 6.00 Build 0)  -->
<!DOCTYPE svg PUBLIC "-//W3C//DTD SVG 1.1//EN" "http://www.w3.org/Graphics/SVG/1.1/DTD/svg11.dtd">
<svg version="1.1" id="Layer_1" xmlns="http://www.w3.org/2000/svg" xmlns:xlink="http://www.w3.org/1999/xlink" x="0px" y="0px"
	 width="450px" height="450px" viewBox="0 0 450 450" enable-background="new 0 0 450 450" xml:space="preserve">
<path d="M393.75,1.5H56.25C25.2,1.5,0,26.7,0,57.75v337.5c0,31.05,25.2,56.25,56.25,56.25h337.5c31.05,0,56.25-25.2,56.25-56.25
	V57.75C450,26.7,424.8,1.5,393.75,1.5z M336.827,169.237c0.11,2.476,0.11,4.95,0.11,7.425c0,76.163-58.049,164.138-164.138,164.138
	c-32.512,0-62.887-9.562-88.31-25.767c4.5,0.561,9.113,0.788,13.725,0.788c27,0,51.863-9.228,71.663-24.751
	c-25.2-0.449-46.576-17.102-53.888-40.049c3.488,0.674,7.088,1.012,10.8,1.012c5.288,0,10.351-0.674,15.188-2.024
	c-26.325-5.288-46.238-28.688-46.238-56.588c0-0.337,0-0.561,0-0.787c7.763,4.274,16.65,6.862,26.1,7.2
	c-15.413-10.35-25.65-28.013-25.65-48.038c0-10.575,2.813-20.473,7.763-29.023c28.462,34.875,70.987,57.938,118.912,60.3
	c-0.9-4.275-1.462-8.663-1.462-13.163c0-31.837,25.875-57.712,57.712-57.712c16.537,0,31.5,6.975,42.074,18.225
	c13.162-2.587,25.537-7.311,36.676-13.95c-4.389,13.5-13.5,24.863-25.426,31.95c11.701-1.462,22.836-4.5,33.188-9.111
	C357.864,150.9,348.077,161.136,336.827,169.237z"/>
</svg>
